<?xml version="1.0" standalone="no"?>
<!DOCTYPE svg PUBLIC "-//W3C//DTD SVG 20010904//EN"
 "http://www.w3.org/TR/2001/REC-SVG-20010904/DTD/svg10.dtd">
<svg version="1.0" xmlns="http://www.w3.org/2000/svg"
 width="1366.000000pt" height="719.000000pt" viewBox="0 0 1366.000000 719.000000"
 preserveAspectRatio="xMidYMid meet">

<g transform="translate(0.000000,719.000000) scale(0.100000,-0.100000)"
fill="#000000" stroke="none">
<path d="M780 7151 c38 -49 132 -113 208 -141 154 -58 345 -22 472 90 43 37
44 39 15 31 -16 -5 -50 -22 -75 -39 -178 -119 -417 -99 -569 49 -63 61 -97 68
-51 10z"/>
<path d="M850 7184 c0 -7 11 -17 64 -56 l28 -21 -12 24 c-20 38 -42 59 -62 59
-10 0 -18 -3 -18 -6z"/>
<path d="M915 7180 c3 -5 14 -14 24 -20 15 -7 20 -5 24 10 4 17 0 20 -25 20
-17 0 -27 -4 -23 -10z"/>
<path d="M977 7183 c-15 -14 -6 -44 17 -55 22 -9 30 -6 65 22 23 17 41 34 41
36 0 7 -116 4 -123 -3z"/>
<path d="M1076 7150 c-26 -22 -53 -40 -60 -40 -6 0 -26 9 -44 20 -41 25 -42
25 -29 -5 9 -20 17 -24 34 -20 16 4 21 1 17 -8 -7 -18 80 -38 159 -35 57 1 58
2 15 5 -27 2 -48 9 -48 15 0 6 9 8 21 5 22 -6 49 12 49 32 0 6 -8 8 -17 4 -12
-4 -11 0 4 11 13 9 28 26 33 37 10 18 7 19 -37 19 -41 -1 -55 -7 -97 -40z m59
-40 c-27 -12 -43 -12 -25 0 8 5 22 9 30 9 10 0 8 -3 -5 -9z m-45 -11 c0 -5
-21 -9 -47 -8 -33 1 -41 3 -25 7 36 11 72 11 72 1z"/>
<path d="M1359 7186 c-1 -3 -2 -10 -3 -15 -2 -16 -51 -49 -102 -70 l-49 -20
39 0 c54 -1 136 44 136 75 0 20 -18 45 -21 30z"/>
<path d="M1440 7180 c0 -5 20 -10 44 -10 25 0 48 5 51 10 4 6 -13 10 -44 10
-28 0 -51 -4 -51 -10z"/>
<path d="M2068 7183 c12 -2 30 -2 40 0 9 3 -1 5 -23 4 -22 0 -30 -2 -17 -4z"/>
<path d="M3612 7160 c0 -19 2 -27 5 -17 2 9 2 25 0 35 -3 9 -5 1 -5 -18z"/>
<path d="M3520 7161 c0 -11 4 -22 9 -25 4 -3 6 6 3 19 -5 30 -12 33 -12 6z"/>
<path d="M1450 6445 c0 -43 4 -75 10 -75 6 0 10 26 11 58 l1 57 20 -57 c11
-32 25 -58 32 -58 7 0 21 26 32 58 l19 57 3 -57 c4 -85 22 -71 22 17 0 66 -2
75 -18 75 -13 0 -23 -15 -36 -56 -20 -63 -27 -61 -46 9 -9 35 -17 47 -31 47
-17 0 -19 -8 -19 -75z"/>
<path d="M1630 6516 c0 -2 11 -24 25 -47 14 -24 25 -56 25 -71 0 -16 5 -28 10
-28 6 0 10 11 10 25 0 14 11 48 25 75 19 37 22 50 11 50 -7 0 -19 -13 -26 -30
-7 -16 -16 -30 -20 -30 -4 0 -13 14 -20 30 -7 17 -19 30 -26 30 -8 0 -14 -2
-14 -4z"/>
<path d="M1830 6445 c0 -60 3 -75 15 -75 12 0 15 15 15 75 0 60 -3 75 -15 75
-12 0 -15 -15 -15 -75z"/>
<path d="M1900 6445 c0 -60 3 -75 15 -75 9 0 15 9 15 25 0 18 5 25 19 25 25 0
51 26 51 50 0 29 -28 50 -66 50 l-34 0 0 -75z m54 49 c29 -11 14 -54 -20 -54
-2 0 -4 14 -4 30 0 32 1 33 24 24z"/>
<path d="M4100 6445 c0 -60 3 -75 15 -75 12 0 15 15 15 75 0 60 -3 75 -15 75
-12 0 -15 -15 -15 -75z"/>
<path d="M4170 6445 c0 -60 3 -75 15 -75 9 0 15 9 15 25 0 18 5 25 19 25 25 0
51 26 51 50 0 29 -28 50 -66 50 l-34 0 0 -75z m54 49 c29 -11 14 -54 -20 -54
-2 0 -4 14 -4 30 0 32 1 33 24 24z"/>
<path d="M4360 6445 l0 -75 40 0 c45 0 55 17 13 22 -27 3 -28 6 -31 66 -4 88
-22 78 -22 -13z"/>
<path d="M4490 6500 c-43 -43 -13 -130 45 -130 33 0 75 42 75 75 0 33 -42 75
-75 75 -14 0 -34 -9 -45 -20z m74 -16 c9 -8 16 -26 16 -39 0 -13 -7 -31 -16
-39 -18 -19 -20 -19 -45 -6 -25 14 -26 75 -1 89 23 14 28 14 46 -5z"/>
<path d="M4660 6502 c-48 -39 -17 -132 44 -132 42 0 66 27 66 75 0 34 -5 47
-22 59 -30 21 -61 20 -88 -2z m80 -57 c0 -46 -31 -64 -60 -35 -11 11 -20 27
-20 35 0 8 9 24 20 35 29 29 60 11 60 -35z"/>
<path d="M4810 6445 c0 -60 3 -75 15 -75 10 0 15 10 15 30 0 17 4 30 9 30 6 0
18 -13 28 -30 9 -16 23 -30 30 -30 18 0 17 6 -12 47 l-24 36 26 31 c17 21 21
32 13 34 -8 3 -26 -10 -41 -29 l-28 -34 -1 33 c0 22 -5 32 -15 32 -12 0 -15
-15 -15 -75z"/>
<path d="M4950 6462 c0 -64 18 -92 58 -92 40 0 62 34 62 95 0 42 -3 55 -15 55
-12 0 -15 -13 -15 -55 0 -42 -4 -56 -17 -63 -33 -17 -43 -3 -43 59 0 46 -3 59
-15 59 -12 0 -15 -13 -15 -58z"/>
<path d="M5110 6445 c0 -60 3 -75 15 -75 9 0 15 9 15 25 0 18 5 25 19 25 25 0
51 26 51 50 0 29 -28 50 -66 50 l-34 0 0 -75z m54 49 c29 -11 14 -54 -20 -54
-2 0 -4 14 -4 30 0 32 1 33 24 24z"/>
<path d="M7310 6445 c0 -60 3 -75 15 -75 10 0 15 10 15 30 0 27 3 30 30 30 27
0 30 -3 30 -30 0 -20 5 -30 15 -30 12 0 15 15 15 75 0 60 -3 75 -15 75 -10 0
-15 -11 -15 -35 0 -32 -2 -35 -30 -35 -28 0 -30 3 -30 35 0 24 -5 35 -15 35
-12 0 -15 -15 -15 -75z"/>
<path d="M7470 6445 c0 -60 3 -75 15 -75 12 0 15 15 15 75 0 60 -3 75 -15 75
-12 0 -15 -15 -15 -75z"/>
<path d="M7540 6445 l0 -75 35 0 c46 0 85 37 85 79 0 38 -40 71 -86 71 l-34 0
0 -75z m71 45 c12 -7 19 -21 19 -38 0 -34 -9 -47 -37 -56 -22 -7 -23 -5 -23
48 0 58 6 64 41 46z"/>
<path d="M7690 6445 l0 -75 45 0 c49 0 62 17 18 22 -20 2 -29 9 -31 26 -3 18
1 22 22 22 32 0 34 17 4 22 -33 4 -29 32 5 36 44 5 31 22 -18 22 l-45 0 0 -75z"/>
<path d="M7870 6445 c0 -43 4 -75 10 -75 6 0 10 26 11 58 l1 57 20 -57 c11
-32 25 -58 32 -58 7 0 21 26 32 58 l19 57 3 -57 c4 -85 22 -71 22 17 0 66 -2
75 -18 75 -13 0 -23 -15 -36 -56 -20 -63 -27 -61 -46 9 -9 35 -17 47 -31 47
-17 0 -19 -8 -19 -75z"/>
<path d="M8050 6516 c0 -2 11 -24 25 -47 14 -24 25 -56 25 -71 0 -16 5 -28 10
-28 6 0 10 11 10 25 0 14 11 48 25 75 19 37 22 50 11 50 -7 0 -19 -13 -26 -30
-7 -16 -16 -30 -20 -30 -4 0 -13 14 -20 30 -7 17 -19 30 -26 30 -8 0 -14 -2
-14 -4z"/>
<path d="M8250 6445 c0 -60 3 -75 15 -75 12 0 15 15 15 75 0 60 -3 75 -15 75
-12 0 -15 -15 -15 -75z"/>
<path d="M8320 6445 c0 -60 3 -75 15 -75 9 0 15 9 15 25 0 18 5 25 19 25 25 0
51 26 51 50 0 29 -28 50 -66 50 l-34 0 0 -75z m54 49 c29 -11 14 -54 -20 -54
-2 0 -4 14 -4 30 0 32 1 33 24 24z"/>
<path d="M10529 6445 c34 -97 50 -98 80 -4 12 39 20 73 18 76 -11 11 -25 -8
-37 -52 -7 -25 -16 -47 -20 -50 -4 -2 -14 20 -24 50 -9 30 -23 55 -30 55 -9 0
-6 -21 13 -75z"/>
<path d="M10660 6445 c0 -60 3 -75 15 -75 9 0 15 9 15 25 0 18 5 25 19 25 25
0 51 26 51 50 0 29 -28 50 -66 50 l-34 0 0 -75z m54 49 c29 -11 14 -54 -20
-54 -2 0 -4 14 -4 30 0 32 1 33 24 24z"/>
<path d="M10790 6445 c0 -88 18 -102 22 -17 l3 57 33 -57 c23 -39 40 -58 53
-58 17 0 19 8 19 75 0 62 -3 75 -16 75 -13 0 -15 -10 -12 -54 1 -30 0 -52 -4
-50 -4 3 -19 27 -34 54 -17 32 -34 50 -46 50 -16 0 -18 -9 -18 -75z"/>
<path d="M10966 6505 c-9 -9 -16 -21 -16 -26 0 -10 28 -38 56 -56 25 -15 4
-32 -32 -25 -33 6 -31 -16 3 -24 34 -9 57 6 61 39 3 20 -3 29 -27 42 -46 23
-40 41 13 35 11 -1 17 3 14 12 -7 19 -53 21 -72 3z"/>
<path d="M13400 6510 c0 -5 9 -10 20 -10 18 0 20 -7 20 -65 0 -51 3 -65 15
-65 12 0 15 14 15 65 0 58 2 65 20 65 11 0 20 5 20 10 0 6 -25 10 -55 10 -30
0 -55 -4 -55 -10z"/>
<path d="M13550 6500 c-42 -42 -13 -130 43 -130 43 0 67 27 67 75 0 34 -5 47
-22 59 -31 22 -64 20 -88 -4z m74 -16 c9 -8 16 -26 16 -39 0 -13 -7 -31 -16
-39 -18 -19 -20 -19 -45 -6 -25 14 -26 75 -1 89 23 14 28 14 46 -5z"/>
<path d="M11150 6485 c0 -11 34 -75 40 -75 6 0 40 64 40 75 0 3 -18 5 -40 5
-22 0 -40 -2 -40 -5z"/>
<path d="M410 3030 l0 -3030 385 0 385 0 0 70 c0 40 4 70 10 70 6 0 10 -30 10
-70 l0 -70 48 0 c26 0 56 7 66 15 11 8 32 15 48 15 17 0 28 5 28 14 0 23 -26
37 -56 30 -19 -5 -25 -4 -20 5 4 6 23 11 41 11 38 0 55 -20 55 -64 0 -16 6
-26 15 -26 11 0 15 11 15 39 0 22 -4 41 -9 43 -4 2 0 12 10 22 16 17 19 17 19
3 0 -9 11 -17 28 -20 l27 -4 -27 -2 c-26 -1 -28 -4 -28 -41 0 -39 1 -40 36
-40 l36 0 -4 45 c-2 25 0 45 4 45 5 0 8 -20 8 -45 0 -41 2 -45 25 -45 22 0 25
4 25 39 0 29 -5 41 -17 44 -17 4 -17 5 0 6 9 0 17 8 17 16 0 8 5 15 10 15 6 0
10 -6 10 -14 0 -8 10 -17 23 -19 l22 -4 -22 -2 c-20 -1 -23 -7 -23 -41 0 -38
2 -40 30 -40 29 0 30 2 30 45 0 25 5 45 10 45 6 0 10 -20 10 -45 l0 -45 41 0
41 0 -4 45 c-2 25 0 45 4 45 5 0 8 -20 8 -45 0 -54 24 -63 34 -13 9 45 24 58
68 58 38 0 39 1 34 30 -3 21 0 30 10 30 11 0 14 -17 14 -75 0 -60 3 -75 15
-75 10 0 15 10 15 28 1 39 22 62 57 62 33 0 47 -12 56 -47 5 -22 2 -23 -44
-23 -27 0 -49 -4 -49 -10 0 -7 175 -10 505 -10 278 0 505 4 505 8 0 18 -26 32
-57 32 -33 0 -33 0 -33 50 l0 50 50 0 c38 0 50 -4 50 -15 0 -10 -11 -15 -35
-15 -28 0 -35 -4 -35 -20 0 -11 7 -20 15 -20 29 0 64 -23 69 -46 9 -35 48 -31
81 7 46 56 24 100 -37 74 -13 -5 -18 -3 -18 8 0 27 75 38 98 15 21 -21 14 -70
-15 -100 l-27 -28 123 0 c94 0 122 3 119 13 -3 6 -19 13 -36 15 -38 4 -45 32
-8 32 33 0 53 25 35 46 -12 15 -24 15 -62 -1 -12 -5 -17 -3 -17 8 0 32 78 37
105 7 15 -16 16 -25 7 -44 -8 -18 -8 -31 1 -51 10 -21 18 -25 45 -23 29 3 35
9 57 56 l24 52 -49 0 c-38 0 -50 4 -50 15 0 12 14 15 65 15 76 0 77 -2 41 -85
l-25 -55 30 0 c20 0 37 8 48 22 17 20 17 24 2 49 -14 25 -14 29 3 48 21 23 75
28 94 9 15 -15 16 -50 1 -65 -8 -8 -6 -18 7 -37 16 -22 27 -25 72 -26 46 0 53
3 50 18 -2 12 -15 18 -46 20 -45 3 -48 9 -36 71 6 30 9 31 55 31 37 0 49 -4
49 -15 0 -11 -11 -15 -40 -15 -33 0 -40 -3 -40 -20 0 -14 7 -20 23 -20 31 0
67 -27 67 -51 0 -15 7 -19 39 -19 37 0 39 1 44 39 7 52 28 95 49 99 16 3 16 0
-2 -40 -11 -24 -20 -55 -20 -70 l0 -28 76 0 c65 0 75 2 70 16 -3 9 -6 18 -6
20 0 2 -18 4 -40 4 l-40 0 0 50 0 50 50 0 c38 0 50 -4 50 -15 0 -10 -11 -15
-35 -15 -28 0 -35 -4 -35 -19 0 -14 10 -21 36 -26 28 -5 39 -13 47 -36 8 -20
18 -29 33 -29 26 0 84 62 84 89 0 24 -26 34 -51 21 -27 -15 -47 -1 -24 17 25
18 70 17 89 -3 23 -23 19 -58 -10 -93 l-26 -31 140 0 140 0 31 35 c17 20 31
44 31 54 0 24 -26 34 -51 21 -27 -15 -47 -1 -24 17 25 18 70 17 89 -3 23 -23
19 -58 -10 -93 l-26 -31 55 0 c50 0 58 3 82 31 46 56 24 100 -37 74 -13 -5
-18 -3 -18 8 0 27 75 38 98 15 21 -21 14 -70 -15 -100 l-27 -28 100 1 99 0 45
70 c58 88 80 92 80 13 0 -56 14 -84 42 -84 21 0 78 63 78 87 0 26 -25 37 -51
23 -27 -15 -47 -1 -24 17 22 16 59 17 86 3 27 -15 24 -62 -7 -99 l-26 -31 76
0 c60 0 74 3 70 14 -9 24 15 94 39 111 24 17 77 20 77 5 0 -5 -11 -10 -23 -10
-24 0 -57 -27 -57 -47 0 -6 11 -8 24 -6 35 7 66 -13 66 -42 0 -22 4 -25 35
-25 35 0 35 0 35 46 0 36 -3 45 -15 41 -26 -11 -26 11 1 32 15 12 31 21 35 21
5 0 9 -31 9 -70 l0 -70 120 0 120 0 0 70 c0 62 2 70 19 70 12 0 34 -24 65 -72
l45 -73 1 73 c0 57 3 72 15 72 12 0 15 -14 15 -70 l0 -70 31 0 c31 0 31 0 24
42 -4 24 -14 55 -21 71 -13 24 -13 27 0 27 20 0 42 -43 51 -98 l7 -42 3534 0
3534 0 0 3030 0 3030 -6300 0 -6300 0 0 -3030z m1710 2190 c0 -82 -3 -100 -15
-100 -12 0 -15 18 -15 100 0 82 3 100 15 100 12 0 15 -18 15 -100z m-910 -5
c0 -78 -3 -95 -15 -95 -12 0 -15 17 -15 95 0 78 3 95 15 95 12 0 15 -17 15
-95z m138 79 c46 -32 15 -104 -45 -104 -20 0 -23 -5 -23 -35 0 -24 -5 -35 -15
-35 -12 0 -15 17 -15 95 l0 95 38 0 c21 0 48 -7 60 -16z m231 1 c34 -17 41
-33 41 -86 0 -59 -34 -89 -100 -89 l-50 0 0 95 0 95 40 0 c23 0 54 -7 69 -15z
m481 6 c0 -14 -18 -23 -30 -16 -6 4 -8 11 -5 16 8 12 35 12 35 0z m398 -3 c-3
-7 -23 -14 -46 -16 -39 -3 -42 -5 -42 -33 0 -27 2 -29 40 -29 22 0 40 -4 40
-10 0 -5 -18 -10 -40 -10 l-40 0 0 -40 c0 -29 -4 -40 -15 -40 -12 0 -15 16
-15 88 0 49 3 92 7 95 3 4 31 7 61 7 38 0 53 -4 50 -12z m508 -13 c20 -31 12
-53 -36 -109 l-32 -36 41 0 c23 0 41 -4 41 -10 0 -6 -28 -10 -65 -10 -36 0
-65 3 -65 7 0 3 23 30 50 59 53 56 59 74 35 94 -12 10 -22 10 -39 2 -28 -12
-41 -5 -25 15 6 7 27 13 45 13 25 0 38 -7 50 -25z m149 1 c11 -17 15 -42 13
-82 -3 -48 -7 -60 -29 -76 -20 -15 -31 -17 -51 -9 -49 18 -63 127 -22 172 25
27 70 24 89 -5z m185 -71 c0 -78 -3 -95 -15 -95 -12 0 -15 15 -15 77 0 60 -3
74 -12 65 -7 -7 -16 -12 -20 -12 -16 0 -8 22 15 41 42 35 47 26 47 -76z m164
79 c36 -35 33 -136 -4 -166 -28 -23 -42 -23 -71 1 -21 17 -24 28 -24 84 0 39
5 70 14 80 17 21 65 22 85 1z m152 -5 c17 -19 17 -22 2 -49 -14 -25 -14 -29
-1 -34 9 -4 13 -17 11 -38 -4 -42 -45 -65 -91 -51 -49 14 -43 29 10 29 45 -1
48 1 48 24 0 21 -5 26 -32 28 -39 4 -46 32 -9 32 33 0 53 25 35 46 -12 15 -24
15 -61 -1 -13 -5 -18 -2 -18 8 0 32 78 37 106 6z m208 5 c27 -26 19 -61 -25
-109 l-42 -45 47 0 c25 0 46 -4 46 -10 0 -6 -28 -10 -65 -10 -79 0 -82 9 -20
70 46 45 58 83 29 94 -8 3 -24 1 -35 -4 -27 -15 -47 -1 -24 17 25 18 70 17 89
-3z m152 -9 c20 -31 12 -53 -36 -109 l-32 -36 41 0 c23 0 41 -4 41 -10 0 -6
-28 -10 -65 -10 -36 0 -65 3 -65 7 0 3 23 30 50 59 53 56 59 74 35 94 -12 10
-22 10 -39 2 -28 -12 -41 -5 -25 15 6 7 27 13 45 13 25 0 38 -7 50 -25z m124
-70 c0 -78 -3 -95 -15 -95 -12 0 -15 15 -15 75 0 72 -1 75 -19 65 -31 -16 -34
6 -5 29 48 38 54 30 54 -74z m210 0 c0 -78 -3 -95 -15 -95 -12 0 -15 15 -15
77 0 60 -3 74 -12 65 -7 -7 -16 -12 -20 -12 -16 0 -8 22 15 41 42 35 47 26 47
-76z m168 83 c15 -15 15 -51 0 -66 -9 -9 -8 -16 5 -30 37 -40 11 -86 -48 -86
-59 0 -85 45 -49 85 14 16 14 20 0 41 -14 22 -14 26 0 46 17 25 72 30 92 10z
m159 -15 c-10 -51 -67 -163 -82 -163 -16 0 -14 9 29 100 l26 55 -47 5 c-76 8
-67 30 12 30 l68 0 -6 -27z m-2796 -23 c10 0 19 -4 19 -10 0 -5 -9 -10 -21
-10 -18 0 -20 -5 -17 -47 3 -41 6 -48 26 -51 25 -4 29 -17 7 -26 -37 -14 -65
24 -65 90 0 20 -5 34 -12 34 -9 1 -8 5 3 13 8 7 19 21 24 32 8 19 9 19 12 -2
3 -15 12 -23 24 -23z m-84 -26 c24 -37 11 -54 -42 -54 -25 0 -45 -4 -45 -9 0
-18 31 -33 60 -29 37 6 41 -17 5 -26 -35 -9 -78 13 -89 47 -28 78 66 139 111
71z m207 26 c24 -9 26 -14 26 -74 0 -55 -3 -65 -17 -64 -10 1 -27 -2 -39 -6
-14 -4 -29 0 -44 12 -33 27 -20 58 31 73 51 16 55 44 4 36 -52 -8 -44 13 12
32 1 1 13 -3 27 -9z m273 0 c8 0 13 -6 10 -12 -2 -8 -16 -12 -34 -10 -47 5
-49 -15 -3 -38 31 -16 40 -26 40 -45 0 -30 -40 -50 -77 -38 -37 13 -32 28 10
25 29 -3 37 0 37 13 0 9 -13 21 -30 27 -38 13 -54 39 -37 60 15 19 37 28 55
22 8 -2 20 -4 29 -4z m348 -20 c11 -12 15 -31 13 -56 -8 -96 -128 -92 -128 4
0 45 8 58 40 70 30 11 54 5 75 -18z m125 12 c0 -4 -10 -12 -22 -17 -19 -8 -24
-19 -26 -62 -2 -38 -7 -53 -18 -53 -11 0 -14 16 -14 71 0 62 2 70 18 65 9 -3
24 -1 32 4 14 9 30 5 30 -8z m60 -8 c0 -8 -9 -14 -20 -14 -19 0 -27 19 -14 33
10 9 34 -4 34 -19z m-710 -54 c0 -56 -3 -70 -15 -70 -12 0 -15 14 -15 70 0 56
3 70 15 70 12 0 15 -14 15 -70z m705 -60 c0 -22 -29 -18 -33 3 -3 14 1 18 15
15 10 -2 18 -10 18 -18z m425 6 c0 -21 -21 -31 -30 -15 -5 7 -6 17 -4 21 9 14
34 9 34 -6z m505 -6 c0 -22 -29 -18 -33 3 -3 14 1 18 15 15 10 -2 18 -10 18
-18z m503 3 c-2 -10 -10 -18 -18 -18 -8 0 -16 8 -18 18 -2 12 3 17 18 17 15 0
20 -5 18 -17z m4653 -1038 c18 -25 36 -45 41 -45 13 0 10 9 -17 44 -26 34 -30
46 -17 46 9 0 62 -84 62 -99 0 -7 -4 -9 -10 -6 -22 13 -8 -33 16 -56 14 -13
44 -52 66 -86 40 -62 78 -88 78 -53 0 22 -26 46 -32 30 -2 -6 -27 24 -57 67
-29 42 -48 79 -42 81 19 6 12 32 -19 78 l-31 44 1536 0 1535 0 0 -1819 0
-1818 -45 8 c-25 5 -54 13 -64 19 -24 12 -51 13 -51 2 0 -8 92 -38 134 -44 11
-2 21 -8 23 -14 5 -15 -76 -1 -146 25 -137 51 -273 162 -385 315 -34 45 -83
96 -118 122 -62 45 -97 52 -43 8 17 -13 47 -39 69 -56 21 -18 65 -67 98 -110
55 -72 123 -148 133 -148 2 0 21 -16 42 -35 21 -19 44 -35 51 -35 6 0 12 -3
12 -7 0 -9 122 -68 160 -78 14 -3 34 -10 45 -15 43 -18 60 -23 73 -21 9 1 12
-39 12 -174 l0 -175 -2173 0 -2173 0 -44 58 c-24 31 -74 84 -111 117 l-67 59
148 146 c191 189 175 183 480 177 176 -3 247 -8 328 -25 75 -15 111 -18 135
-11 17 5 48 9 69 9 59 0 93 22 51 33 -10 3 18 4 62 4 55 0 64 -2 28 -4 -29 -2
-53 -8 -53 -12 0 -11 163 -21 338 -21 135 0 144 1 149 20 5 18 14 20 87 20 80
0 141 -19 171 -54 5 -7 44 -38 85 -69 41 -31 89 -69 106 -84 17 -15 38 -32 46
-38 95 -65 131 -85 150 -85 17 1 11 6 -24 24 -60 29 -140 94 -132 107 3 6 -2
20 -13 32 l-18 22 23 -19 c12 -11 20 -26 18 -33 -4 -8 2 -12 17 -10 15 1 22
-3 21 -15 -1 -10 4 -14 12 -11 12 4 75 -33 82 -49 2 -5 9 -8 15 -8 7 0 26 -7
42 -16 20 -12 57 -17 115 -18 74 -1 91 2 129 24 24 14 55 31 70 39 14 7 56 31
94 53 66 40 86 61 47 51 -11 -3 -20 -9 -20 -14 0 -4 -30 -22 -67 -40 -38 -18
-70 -35 -73 -39 -3 -4 -28 -17 -56 -30 -66 -27 -106 -24 -114 10 -4 18 -8 21
-14 11 -15 -24 -24 7 -31 106 -4 51 -12 93 -17 93 -6 0 -8 -21 -4 -52 20 -179
20 -188 -4 -188 -26 0 -120 39 -120 51 0 4 -8 10 -18 13 -10 4 -32 19 -48 34
-16 16 -60 55 -99 86 -38 32 -80 70 -93 83 -14 16 -27 22 -33 16 -5 -5 16 -30
56 -63 36 -30 65 -59 65 -64 0 -5 -8 -2 -18 7 -32 30 -37 18 -6 -15 36 -40 10
-23 -71 48 -16 14 -23 22 -15 18 8 -4 23 -14 33 -22 9 -8 19 -13 22 -10 3 3
-15 25 -40 49 -25 24 -45 51 -45 61 0 22 -58 66 -99 74 -17 4 -34 11 -37 15
-3 5 -43 9 -88 9 -75 0 -84 2 -89 20 -5 19 -14 20 -180 20 -186 0 -187 0 -187
-50 0 -13 -10 -19 -37 -24 -21 -3 -56 -9 -78 -13 l-40 -7 40 -6 c39 -6 38 -6
-18 -11 -49 -3 -55 -2 -40 9 15 11 3 12 -78 7 -94 -7 -96 -6 -112 18 -10 16
-19 59 -23 116 -4 50 -11 91 -17 91 -6 0 -8 -28 -4 -76 4 -53 2 -73 -5 -66 -5
5 -11 32 -13 59 -3 78 -4 83 -16 83 -7 0 -10 -31 -7 -97 l3 -98 -255 -6 c-140
-4 -276 -11 -303 -17 -67 -16 -139 -66 -242 -171 -131 -133 -172 -166 -190
-151 -13 11 -15 160 -15 1125 l0 1112 40 7 c23 4 49 2 61 -4 10 -6 23 -9 28
-6 14 9 182 -14 231 -31 37 -13 91 -15 304 -14 286 2 295 3 356 66 19 19 40
35 47 35 12 0 18 -163 17 -459 0 -88 1 -101 13 -85 9 12 13 55 13 143 0 68 2
122 5 119 3 -3 6 -70 6 -149 1 -104 4 -137 11 -119 5 14 8 81 6 150 -1 69 -3
197 -3 286 0 160 0 160 31 220 l31 59 94 5 94 5 3 74 c2 41 -1 78 -5 82 -4 4
-30 11 -58 14 -27 4 -51 8 -52 9 -2 1 30 43 70 94 39 50 85 108 101 128 17 21
32 32 34 26 3 -10 -22 -51 -85 -139 -8 -13 -11 -23 -5 -23 15 0 109 130 125
173 5 13 3 16 -5 11 -7 -5 -24 -7 -38 -6 -20 2 -31 -7 -53 -41 -15 -23 -60
-85 -101 -137 l-74 -95 -109 -5 -108 -5 0 -80 0 -80 30 -3 c55 -5 57 -8 36
-49 -20 -37 -108 -121 -163 -155 -43 -27 -427 -26 -550 1 -47 10 -91 22 -97
25 -6 4 -71 7 -146 8 l-135 2 0 733 0 733 754 0 755 0 32 -45z m-6791 -175 c0
-82 -3 -100 -15 -100 -12 0 -15 18 -15 100 0 82 3 100 15 100 12 0 15 -18 15
-100z m-770 80 c24 -13 44 -74 35 -108 -12 -49 -43 -72 -97 -72 l-48 0 0 95 0
95 46 0 c25 0 54 -4 64 -10z m350 0 c0 -5 -4 -10 -10 -10 -5 0 -10 5 -10 10 0
6 5 10 10 10 6 0 10 -4 10 -10z m1361 0 c21 -12 26 -49 8 -67 -8 -8 -7 -17 3
-32 7 -11 15 -21 18 -21 3 0 25 29 49 65 57 83 71 84 71 5 0 -47 3 -60 15 -60
8 0 15 -7 15 -15 0 -8 -7 -15 -15 -15 -8 0 -15 -9 -15 -20 0 -11 -7 -20 -15
-20 -8 0 -15 9 -15 20 0 17 -7 20 -49 20 -34 0 -51 -4 -55 -15 -13 -34 -116
-43 -116 -10 0 9 11 12 39 8 32 -4 41 -2 50 15 13 24 0 38 -39 44 -34 4 -31
22 5 28 21 4 31 12 33 26 4 26 -19 37 -53 24 -16 -6 -27 -6 -31 2 -15 24 58
38 97 18z m290 0 c33 -18 24 -65 -22 -115 l-42 -45 47 0 c25 0 46 -4 46 -10 0
-6 -28 -10 -65 -10 -36 0 -65 4 -65 9 0 5 20 31 45 59 25 27 45 59 45 70 0 25
-25 35 -51 22 -27 -15 -47 -1 -24 17 22 16 59 17 86 3z m154 -10 c15 -17 16
-24 6 -46 -8 -19 -9 -30 -1 -40 6 -7 10 -25 8 -41 -4 -37 -48 -59 -91 -46 -49
14 -43 29 10 29 45 -1 48 1 48 24 0 21 -5 26 -32 28 -39 4 -46 32 -9 32 33 0
53 25 35 46 -12 15 -24 15 -61 -1 -13 -5 -18 -2 -18 8 0 32 78 37 105 7z m145
5 c0 -10 -11 -15 -35 -15 -28 0 -35 -4 -35 -19 0 -14 10 -21 35 -25 67 -13 71
-92 8 -117 -30 -12 -74 -2 -80 18 -3 8 8 10 34 6 45 -6 69 13 58 47 -5 16 -15
20 -46 20 l-39 0 0 50 0 50 50 0 c38 0 50 -4 50 -15z m120 -80 c0 -78 -3 -95
-15 -95 -12 0 -15 15 -15 71 0 58 -3 70 -15 66 -26 -11 -26 11 1 32 15 12 31
21 35 21 5 0 9 -43 9 -95z m168 83 c25 -25 14 -71 -30 -115 l-42 -43 47 0 c26
0 47 -4 47 -10 0 -6 -28 -10 -65 -10 -36 0 -65 3 -65 6 0 4 21 29 46 56 35 37
45 55 42 76 -3 28 -22 33 -60 17 -13 -5 -18 -3 -18 8 0 8 6 18 13 20 23 10 73
7 85 -5z m151 -14 c51 -65 -4 -186 -77 -172 -30 6 -25 28 6 28 29 0 44 11 54
40 5 13 -1 15 -28 12 -43 -5 -64 12 -64 51 0 65 70 91 109 41z m121 -69 c0
-78 -3 -95 -15 -95 -12 0 -15 15 -15 77 0 60 -3 74 -12 65 -7 -7 -16 -12 -20
-12 -16 0 -8 22 15 41 42 35 47 26 47 -76z m-2696 23 c27 -38 20 -48 -34 -48
-27 0 -50 -4 -50 -9 0 -30 14 -41 51 -41 21 0 39 -4 39 -10 0 -16 -72 -11 -92
7 -23 20 -24 80 -1 105 23 25 68 23 87 -4z m136 12 c0 -5 -13 -10 -28 -10 -34
0 -52 -16 -52 -46 0 -42 11 -54 46 -54 19 0 34 -4 34 -10 0 -16 -67 -12 -84 6
-21 20 -20 83 1 106 17 19 83 26 83 8z m50 -60 c0 -40 -4 -70 -10 -70 -6 0
-10 30 -10 70 0 40 4 70 10 70 6 0 10 -30 10 -70z m126 60 c8 -8 14 -8 19 0
11 18 63 12 75 -9 13 -25 13 -121 0 -121 -5 0 -10 26 -12 58 -3 51 -5 57 -27
60 -31 5 -41 -12 -41 -70 0 -68 -18 -60 -22 10 -3 50 -6 57 -25 60 -27 4 -43
-28 -43 -84 0 -19 -4 -34 -10 -34 -6 0 -10 29 -10 68 l0 69 41 1 c23 1 48 -3
55 -8z m222 -2 c7 -7 12 -38 12 -69 l0 -57 -52 2 c-48 1 -53 3 -56 25 -5 30
21 51 61 51 22 0 28 4 25 18 -2 12 -14 18 -41 20 -20 2 -35 7 -32 13 9 13 69
11 83 -3z m130 1 c-2 -6 -8 -10 -13 -10 -5 0 -11 4 -13 10 -2 6 4 11 13 11 9
0 15 -5 13 -11z m2 -120 c0 -5 -7 -9 -15 -9 -15 0 -20 12 -9 23 8 8 24 -1 24
-14z m-920 -339 l0 -40 50 0 50 0 0 40 c0 22 5 40 10 40 6 0 10 -38 10 -95 0
-57 -4 -95 -10 -95 -5 0 -10 20 -10 45 l0 45 -50 0 -50 0 0 -45 c0 -25 -4 -45
-10 -45 -6 0 -10 38 -10 95 0 57 4 95 10 95 6 0 10 -18 10 -40z m1804 24 c27
-26 19 -61 -25 -109 l-42 -45 47 0 c25 0 46 -4 46 -10 0 -6 -28 -10 -65 -10
-42 0 -65 4 -65 11 0 7 20 34 45 60 25 26 45 57 45 68 0 24 -25 34 -51 21 -27
-15 -47 -1 -24 17 25 18 70 17 89 -3z m151 -8 c11 -17 15 -42 13 -82 -3 -49
-7 -60 -30 -77 -23 -17 -32 -19 -52 -9 -47 21 -59 129 -20 173 25 27 70 24 89
-5z m185 -71 c0 -78 -3 -95 -15 -95 -12 0 -15 15 -15 77 0 60 -3 74 -12 65 -7
-7 -16 -12 -20 -12 -16 0 -8 22 15 41 42 35 47 26 47 -76z m175 71 c11 -17 15
-42 13 -82 -3 -49 -7 -60 -30 -77 -23 -17 -32 -19 -52 -9 -47 21 -59 129 -20
173 25 27 70 24 89 -5z m136 14 c21 -12 26 -49 8 -67 -8 -8 -6 -18 6 -36 20
-31 7 -63 -32 -78 -32 -12 -83 -2 -83 16 0 9 11 12 39 8 32 -4 41 -2 50 15 13
24 0 38 -39 44 -34 4 -31 22 5 28 21 4 31 12 33 26 4 26 -19 37 -53 24 -16 -6
-27 -6 -31 2 -15 24 58 38 97 18z m210 0 c33 -18 24 -65 -22 -115 l-42 -45 47
0 c25 0 46 -4 46 -10 0 -6 -28 -10 -65 -10 -36 0 -65 4 -65 9 0 5 20 31 45 59
25 27 45 59 45 70 0 25 -25 35 -51 22 -27 -15 -47 -1 -24 17 22 16 59 17 86 3z
m153 -6 c27 -26 19 -61 -25 -109 l-42 -45 47 0 c25 0 46 -4 46 -10 0 -6 -28
-10 -65 -10 -42 0 -65 4 -65 11 0 7 20 34 45 60 25 26 45 57 45 68 0 24 -25
34 -51 21 -27 -15 -47 -1 -24 17 25 18 70 17 89 -3z m126 -79 c0 -78 -3 -95
-15 -95 -12 0 -15 15 -15 76 0 66 -2 75 -15 64 -8 -6 -20 -8 -26 -4 -9 5 -3
14 17 31 49 39 54 33 54 -72z m210 0 c0 -78 -3 -95 -15 -95 -12 0 -15 15 -15
77 0 60 -3 74 -12 65 -7 -7 -16 -12 -20 -12 -16 0 -8 22 15 41 42 35 47 26 47
-76z m168 83 c15 -15 15 -51 0 -66 -9 -9 -8 -16 5 -30 21 -23 22 -56 1 -73
-20 -17 -78 -17 -98 0 -20 17 -21 55 -1 71 13 10 13 16 0 40 -12 23 -12 30 1
49 17 24 72 29 92 9z m172 5 c0 -5 -17 -47 -37 -95 -26 -61 -43 -88 -55 -88
-14 0 -12 12 18 76 19 41 34 77 34 80 0 2 -20 4 -45 4 -33 0 -45 4 -45 15 0
12 14 15 65 15 36 0 65 -3 65 -7z m-3040 -28 c0 -8 10 -16 23 -16 l22 -2 -22
-4 c-21 -4 -23 -10 -23 -59 0 -47 2 -54 20 -54 11 0 20 -5 20 -11 0 -6 -12 -9
-27 -7 -27 3 -28 6 -31 63 -2 33 -9 63 -15 67 -9 6 -9 8 1 8 6 0 12 7 12 15 0
8 5 15 10 15 6 0 10 -7 10 -15z m-186 -37 c36 -51 8 -118 -49 -118 -24 0 -39
7 -49 22 -36 51 -8 118 49 118 24 0 39 -7 49 -22z m136 11 c0 -6 -10 -10 -22
-9 -70 6 -80 -18 -18 -43 32 -12 40 -21 40 -40 0 -14 -7 -28 -16 -31 -26 -10
-84 -7 -84 5 0 6 10 10 23 9 67 -6 80 20 22 44 -37 16 -51 36 -41 61 6 18 96
22 96 4z m216 0 c16 -13 20 -129 4 -129 -5 0 -10 26 -12 58 -3 52 -5 57 -27
60 -33 5 -51 -21 -51 -75 0 -24 -4 -43 -10 -43 -6 0 -10 29 -10 68 l0 69 46 2
c26 0 53 -4 60 -10z m142 -59 l3 -65 -42 -3 c-42 -3 -69 10 -69 34 0 22 30 44
61 44 22 0 29 5 29 20 0 20 -8 24 -47 20 -13 -1 -23 4 -23 10 0 7 16 10 43 8
l42 -3 3 -65z m220 58 c14 -12 17 -128 2 -128 -5 0 -10 26 -12 57 -2 48 -6 58
-22 61 -28 6 -46 -25 -46 -75 0 -24 -4 -43 -10 -43 -6 0 -10 27 -10 61 0 60 0
60 -27 57 -27 -3 -28 -6 -31 -60 -4 -81 -22 -72 -22 11 l0 68 83 1 c45 0 88
-4 95 -10z m140 0 c5 -7 13 -23 16 -35 7 -22 5 -23 -44 -23 -48 0 -51 -2 -48
-22 2 -19 10 -24 46 -26 52 -4 56 -22 5 -22 -46 0 -59 8 -72 43 -11 29 0 75
22 89 19 12 64 9 75 -4z m70 1 c-2 -6 -8 -10 -13 -10 -5 0 -11 4 -13 10 -2 6
4 11 13 11 9 0 15 -5 13 -11z m2 -120 c0 -5 -7 -9 -15 -9 -15 0 -20 12 -9 23
8 8 24 -1 24 -14z m840 8 c0 -8 -3 -17 -7 -20 -9 -9 -34 13 -27 24 8 14 34 11
34 -4z m505 -7 c0 -22 -29 -18 -33 3 -3 14 1 18 15 15 10 -2 18 -10 18 -18z
m505 6 c0 -20 -19 -31 -32 -18 -6 6 -7 15 -4 21 10 16 36 13 36 -3z m-2962
-393 c35 -95 37 -103 23 -103 -5 0 -15 16 -21 36 -11 33 -15 35 -48 32 -31 -3
-38 -7 -46 -35 -5 -18 -15 -33 -22 -33 -10 0 -6 18 13 68 14 37 30 79 35 95 6
15 15 27 22 27 6 0 26 -39 44 -87z m157 78 c3 -6 -16 -11 -42 -13 -40 -2 -48
-6 -48 -23 0 -14 14 -27 48 -42 40 -20 47 -27 47 -53 0 -36 -23 -50 -79 -50
-57 0 -51 18 7 22 38 2 48 7 50 23 2 15 -10 26 -45 45 -52 27 -65 56 -38 84
18 17 90 22 100 7z m105 -63 l45 -71 3 71 c4 107 22 88 22 -23 0 -52 -4 -95
-9 -95 -4 0 -31 35 -60 78 l-51 77 0 -77 c0 -45 -4 -78 -10 -78 -6 0 -10 38
-10 95 0 70 3 95 13 95 7 0 33 -32 57 -72z m1468 60 c15 -15 15 -51 0 -66 -9
-9 -7 -16 7 -32 42 -46 -22 -107 -82 -78 -32 15 -43 58 -19 77 13 11 12 16 -2
41 -16 27 -15 30 2 49 21 23 75 28 94 9z m147 -12 c11 -17 15 -42 13 -82 -3
-49 -7 -60 -30 -77 -23 -17 -32 -19 -52 -9 -47 21 -59 129 -20 173 25 27 70
24 89 -5z m165 13 c0 -5 -17 -48 -37 -95 -27 -62 -41 -84 -55 -84 -17 0 -16 5
11 58 15 31 32 67 35 80 7 21 4 22 -38 22 -34 0 -46 4 -46 15 0 12 14 15 65
15 39 0 65 -4 65 -11z m130 -4 c0 -11 -11 -15 -40 -15 -33 0 -40 -3 -40 -20 0
-14 7 -20 23 -20 39 0 67 -27 67 -65 0 -28 -6 -37 -31 -50 -34 -18 -89 -12
-89 9 0 8 15 12 43 12 40 -1 42 0 42 29 0 28 -3 30 -40 35 -30 4 -40 9 -39 23
4 83 -1 77 54 77 38 0 50 -4 50 -15z m-1772 -47 c-6 -18 -28 -21 -28 -4 0 9 7
16 16 16 9 0 14 -5 12 -12z m6787 -54 c25 -59 17 -92 -13 -62 -10 10 -17 10
-33 0 -11 -7 -24 -10 -28 -7 -8 4 11 73 25 97 12 19 35 5 49 -28z m75 -20 c0
-40 -4 -55 -12 -52 -7 3 -14 17 -16 31 -2 15 -8 27 -13 27 -13 0 -11 24 3 38
26 26 38 13 38 -44z m78 47 c19 -12 18 -69 -2 -89 -24 -25 -50 -4 -54 43 -4
47 21 68 56 46z m-6940 -89 c2 -7 -3 -12 -12 -12 -9 0 -16 7 -16 16 0 17 22
14 28 -4z m6768 -91 c-19 -27 -32 -51 -30 -54 9 -9 11 -327 2 -327 -4 0 -9 48
-10 108 -1 59 -3 128 -3 154 -1 26 -4 50 -7 53 -3 3 -36 -21 -74 -54 -52 -47
-77 -62 -109 -67 -23 -3 -152 -4 -286 -1 -193 3 -254 8 -294 21 -30 10 -106
20 -190 25 l-140 8 117 2 c93 1 137 -4 222 -24 97 -23 125 -25 335 -25 161 0
237 4 258 13 43 18 171 136 196 180 11 20 27 37 34 37 8 0 0 -19 -21 -49z
m-4506 -220 c0 -5 -10 -11 -22 -13 -13 -2 -24 -11 -26 -20 -5 -27 42 -23 61 5
l16 22 0 -22 c1 -16 7 -23 21 -23 11 0 20 -4 20 -10 0 -5 -9 -10 -20 -10 -17
0 -20 -7 -20 -46 0 -37 4 -47 20 -51 24 -6 26 -21 5 -30 -29 -11 -55 26 -55
79 0 45 -2 48 -25 48 -24 0 -25 -3 -25 -60 0 -47 -3 -60 -15 -60 -12 0 -15 13
-15 60 0 50 -3 60 -17 60 -17 1 -17 1 0 14 9 7 17 20 17 28 0 8 5 19 12 26 14
14 68 16 68 3z m-2740 -96 c0 -57 -4 -95 -10 -95 -6 0 -10 38 -10 95 0 57 4
95 10 95 6 0 10 -38 10 -95z m145 85 c4 -6 -11 -10 -38 -10 -72 0 -72 -38 -1
-69 37 -17 44 -24 44 -48 0 -41 -17 -53 -72 -53 -62 0 -63 18 0 22 40 3 47 6
50 25 3 18 -5 26 -38 39 -57 23 -75 58 -44 88 17 18 89 22 99 6z m136 0 c23
-13 26 -62 3 -84 -8 -9 -31 -16 -50 -16 -33 0 -34 -1 -34 -40 0 -22 -4 -40
-10 -40 -6 0 -10 38 -10 95 l0 95 41 0 c22 0 49 -5 60 -10z m1495 -60 c15 -38
28 -70 30 -70 1 0 15 32 30 70 20 51 32 70 46 70 16 0 18 -9 18 -95 0 -76 -3
-95 -15 -95 -10 0 -15 16 -17 63 l-3 62 -23 -62 c-13 -36 -29 -63 -37 -63 -8
0 -24 27 -37 63 l-23 62 -3 -62 c-2 -47 -7 -63 -17 -63 -12 0 -15 19 -15 95 0
87 2 95 19 95 15 0 26 -17 47 -70z m194 61 c0 -14 -18 -23 -30 -16 -6 4 -8 11
-5 16 8 12 35 12 35 0z m1068 -8 c2 -9 -9 -12 -38 -11 -53 2 -75 -19 -75 -73
0 -50 25 -72 73 -67 21 3 32 0 32 -8 0 -17 -35 -27 -69 -19 -46 10 -66 40 -66
97 0 42 4 53 29 74 22 20 37 24 69 22 22 -2 42 -9 45 -15z m952 2 c0 -8 -7
-15 -15 -15 -8 0 -15 7 -15 15 0 8 7 15 15 15 8 0 15 -7 15 -15z m-69 -35 c10
0 19 -4 19 -10 0 -5 -9 -10 -20 -10 -17 0 -20 -7 -20 -46 0 -37 4 -47 20 -51
24 -6 26 -21 5 -30 -29 -11 -55 26 -55 78 0 26 -5 49 -11 51 -7 2 -2 15 12 30
22 25 24 26 27 8 2 -12 11 -20 23 -20z m-1822 -6 c10 -8 -12 -21 -29 -17 -28
7 -50 -14 -50 -47 0 -34 22 -54 55 -48 34 7 34 -19 0 -28 -78 -19 -117 107
-45 143 21 11 55 9 69 -3z m109 -2 c2 -7 -5 -12 -17 -12 -26 0 -41 -28 -41
-79 0 -30 -4 -41 -15 -41 -12 0 -15 15 -15 71 0 65 2 71 19 66 10 -2 25 -1 32
4 17 11 31 7 37 -9z m105 7 c12 -7 25 -17 29 -23 12 -18 9 -81 -4 -99 -39 -50
-118 -15 -118 52 0 42 22 69 68 80 2 1 13 -4 25 -10z m135 5 c38 -11 27 -34
-13 -27 -27 4 -35 2 -35 -10 0 -8 11 -18 24 -21 29 -7 56 -32 56 -51 0 -25
-46 -47 -80 -40 -42 9 -38 30 7 30 48 0 53 20 9 35 -63 20 -60 76 4 89 3 0 15
-2 28 -5z m165 -26 c41 -48 -3 -138 -61 -123 -37 9 -50 21 -57 54 -17 80 66
129 118 69z m557 6 c8 -8 15 -32 15 -54 0 -44 -16 -65 -57 -75 -21 -5 -33 -1
-52 19 -71 70 22 178 94 110z m128 8 c2 -7 -5 -12 -17 -12 -26 0 -41 -28 -41
-79 0 -30 -4 -41 -15 -41 -12 0 -15 15 -15 71 0 65 2 71 19 66 10 -2 25 -1 32
4 17 11 31 7 37 -9z m127 -7 c33 -32 33 -78 -1 -111 -18 -19 -31 -24 -49 -20
-21 5 -24 2 -27 -26 -2 -17 -9 -33 -15 -36 -10 -3 -13 22 -13 103 0 82 3 106
13 102 6 -2 21 -1 32 4 30 12 34 11 60 -16z m158 -7 c41 -48 -3 -138 -61 -123
-37 9 -50 21 -57 54 -17 80 66 129 118 69z m127 19 c0 -7 -10 -17 -22 -22 -19
-8 -24 -19 -26 -62 -2 -38 -7 -53 -18 -53 -11 0 -14 16 -14 71 0 53 3 70 13
66 6 -2 21 -1 32 4 29 11 35 11 35 -4z m118 -10 c7 -6 12 -33 12 -69 0 -51 -3
-59 -17 -57 -10 2 -28 -1 -40 -5 -31 -10 -63 10 -63 38 0 29 17 44 59 52 39 8
35 29 -5 29 -35 0 -44 18 -12 26 25 6 45 2 66 -14z m285 12 c12 -7 25 -17 29
-23 12 -18 9 -81 -4 -99 -39 -50 -118 -15 -118 52 0 42 22 69 68 80 2 1 13 -4
25 -10z m161 1 c24 -9 26 -14 26 -75 0 -50 -3 -65 -15 -65 -10 0 -15 15 -17
58 -3 53 -5 57 -28 57 -23 0 -25 -4 -28 -57 -2 -43 -7 -58 -17 -58 -12 0 -15
16 -15 71 0 53 3 70 13 66 6 -2 21 -1 32 4 11 4 21 8 22 8 1 1 13 -3 27 -9z
m-3924 -15 c0 -8 -4 -15 -10 -15 -5 0 -10 7 -10 15 0 8 5 15 10 15 6 0 10 -7
10 -15z m1620 -55 c0 -56 -3 -70 -15 -70 -12 0 -15 14 -15 70 0 56 3 70 15 70
12 0 15 -14 15 -70z m2020 0 c0 -56 -3 -70 -15 -70 -12 0 -15 14 -15 70 0 56
3 70 15 70 12 0 15 -14 15 -70z m-3640 -55 c0 -8 -4 -15 -10 -15 -5 0 -10 7
-10 15 0 8 5 15 10 15 6 0 10 -7 10 -15z m-270 -314 c0 -6 -19 -11 -42 -13
-35 -2 -44 -7 -46 -24 -2 -16 5 -24 30 -34 66 -26 83 -57 51 -92 -18 -20 -97
-26 -108 -8 -4 6 13 10 43 10 37 0 52 4 56 16 8 20 -8 41 -37 50 -50 15 -74
63 -45 92 14 14 98 16 98 3z m410 -1 c0 -5 -4 -10 -10 -10 -5 0 -10 5 -10 10
0 6 5 10 10 10 6 0 10 -4 10 -10z m1352 -18 c16 -15 21 -33 21 -68 0 -64 -33
-94 -104 -94 l-49 0 0 96 0 96 56 -4 c38 -3 62 -11 76 -26z m239 -22 c10 0 19
-4 19 -10 0 -5 -9 -10 -20 -10 -16 0 -20 -7 -20 -34 0 -47 9 -66 31 -66 23 0
25 -16 3 -24 -19 -7 -50 8 -58 30 -3 8 -6 33 -6 55 0 24 -5 39 -12 39 -9 1 -8
5 3 13 8 7 19 21 24 32 8 19 9 19 12 -2 3 -15 12 -23 24 -23z m639 14 c0 -8 9
-14 20 -14 11 0 20 -4 20 -10 0 -5 -9 -10 -20 -10 -17 0 -20 -7 -20 -50 0 -43
3 -50 20 -50 11 0 20 -5 20 -10 0 -17 -27 -22 -49 -10 -17 9 -21 20 -21 65 0
33 -5 55 -12 58 -9 4 -10 8 -2 14 6 4 13 16 17 26 8 20 27 14 27 -9z m-728
-28 c14 -20 9 -127 -4 -124 -7 1 -23 -2 -36 -6 -46 -15 -95 43 -59 72 6 5 27
13 45 17 47 10 44 40 -3 32 -26 -4 -35 -2 -35 8 0 25 76 26 92 1z m212 14 c24
-9 26 -14 26 -74 0 -55 -3 -65 -17 -65 -10 1 -27 -2 -39 -6 -13 -4 -29 1 -44
13 -21 17 -23 23 -13 45 8 17 23 27 47 31 23 5 36 12 36 23 0 12 -7 14 -35 10
-26 -4 -35 -2 -35 8 0 7 10 16 23 18 12 2 23 5 24 6 1 0 13 -3 27 -9z m165 -6
c10 -8 -12 -21 -29 -17 -28 7 -50 -14 -50 -47 0 -34 22 -54 55 -48 34 7 33
-20 -1 -28 -39 -10 -78 23 -82 70 -3 40 10 63 43 76 17 7 53 4 64 -6z m116 -9
c14 -13 25 -33 25 -45 0 -17 -6 -20 -50 -20 -27 0 -50 -4 -50 -9 0 -18 31 -33
60 -29 37 6 41 -17 5 -26 -84 -21 -132 102 -55 141 34 17 37 17 65 -12z m163
-3 c18 -24 16 -122 -3 -122 -11 0 -15 12 -15 44 0 56 -8 76 -29 76 -29 0 -41
-22 -41 -72 0 -36 -4 -48 -15 -48 -12 0 -15 15 -15 71 0 65 2 71 19 66 10 -2
25 -1 32 4 18 11 50 2 67 -19z m227 3 c14 -13 25 -33 25 -45 0 -17 -6 -20 -50
-20 -27 0 -50 -4 -50 -9 0 -18 31 -33 60 -29 37 6 41 -17 5 -26 -84 -21 -132
102 -55 141 34 17 37 17 65 -12z m133 7 c2 -7 -5 -12 -17 -12 -26 0 -41 -28
-41 -79 0 -30 -4 -41 -15 -41 -12 0 -15 15 -15 71 0 65 2 71 19 66 10 -2 25
-1 32 4 17 11 31 7 37 -9z m-2794 -14 c27 -38 20 -48 -34 -48 -27 0 -50 -4
-50 -9 0 -30 14 -41 51 -41 21 0 39 -4 39 -10 0 -16 -72 -11 -92 7 -23 20 -24
80 -1 105 23 25 68 23 87 -4z m159 -37 l21 -54 20 57 c11 31 25 56 32 56 8 0
3 -24 -14 -70 -15 -38 -32 -70 -38 -70 -6 0 -22 27 -34 61 -21 54 -25 60 -49
57 -24 -3 -26 -7 -29 -60 -2 -43 -7 -58 -17 -58 -12 0 -15 15 -15 69 l0 69 51
-2 52 -1 20 -54z m117 -11 c0 -40 -4 -70 -10 -70 -6 0 -10 30 -10 70 0 40 4
70 10 70 6 0 10 -30 10 -70z m140 61 c0 -6 -17 -11 -37 -13 -31 -2 -39 -8 -47
-31 -14 -39 2 -61 48 -65 49 -4 46 -22 -3 -22 -45 0 -71 26 -71 70 0 44 26 70
71 70 21 0 39 -4 39 -9z m118 -3 c7 -7 12 -22 12 -35 0 -21 -4 -23 -50 -23
-54 0 -55 -1 -40 -31 8 -14 21 -19 51 -19 24 0 38 -4 34 -10 -3 -5 -24 -10
-45 -10 -29 0 -43 6 -54 22 -36 50 -8 118 48 118 17 0 37 -5 44 -12z m132 2
c0 -5 -16 -9 -35 -8 -60 2 -59 -22 1 -47 30 -12 35 -19 32 -42 -3 -26 -7 -28
-50 -31 -31 -2 -48 1 -48 8 0 6 10 11 23 10 67 -6 80 20 22 44 -40 17 -53 39
-35 61 14 17 90 21 90 5z m50 -5 c0 -8 -4 -15 -10 -15 -5 0 -10 7 -10 15 0 8
5 15 10 15 6 0 10 -7 10 -15z m0 -110 c0 -8 -4 -15 -10 -15 -5 0 -10 7 -10 15
0 8 5 15 10 15 6 0 10 -7 10 -15z m1230 -340 c0 -32 2 -35 19 -25 24 12 66 -1
75 -25 3 -9 6 -39 6 -66 0 -37 -4 -49 -15 -49 -11 0 -15 12 -15 44 0 56 -8 76
-29 76 -29 0 -41 -22 -41 -72 0 -36 -4 -48 -15 -48 -12 0 -15 18 -15 100 0 82
3 100 15 100 11 0 15 -11 15 -35z m410 -65 c0 -82 -3 -100 -15 -100 -12 0 -15
18 -15 100 0 82 3 100 15 100 12 0 15 -18 15 -100z m450 0 c0 -89 -2 -100 -17
-100 -10 0 -28 -3 -40 -6 -31 -8 -73 35 -73 76 0 43 40 83 75 74 23 -6 25 -3
25 25 0 21 5 31 15 31 12 0 15 -18 15 -100z m940 -1 c0 -90 -2 -100 -17 -98
-10 2 -28 -1 -41 -5 -38 -13 -72 17 -72 63 0 22 3 47 6 56 9 24 51 37 75 25
17 -10 19 -7 19 25 0 24 4 35 15 35 12 0 15 -18 15 -101z m720 91 c0 -5 -9
-10 -20 -10 -11 0 -20 -2 -20 -4 0 -2 -3 -11 -6 -20 -4 -12 0 -16 15 -16 12 0
21 -4 21 -10 0 -5 -9 -10 -20 -10 -18 0 -20 -7 -20 -60 0 -47 -3 -60 -15 -60
-12 0 -15 13 -15 59 0 38 -4 61 -12 64 -10 4 -10 7 -1 14 6 5 16 21 22 36 8
21 17 27 41 27 16 0 30 -4 30 -10z m190 -25 c0 -32 2 -35 19 -25 24 12 66 -1
75 -25 3 -9 6 -39 6 -66 0 -37 -4 -49 -15 -49 -11 0 -15 12 -15 44 0 56 -8 76
-29 76 -29 0 -41 -22 -41 -72 0 -36 -4 -48 -15 -48 -12 0 -15 18 -15 100 0 82
3 100 15 100 11 0 15 -11 15 -35z m-4760 15 c0 -5 -20 -10 -44 -10 -52 0 -76
-24 -76 -75 0 -51 24 -75 76 -75 24 0 44 -4 44 -10 0 -5 -22 -10 -49 -10 -63
0 -91 30 -91 97 0 61 32 93 95 93 25 0 45 -4 45 -10z m1675 -57 l45 -68 0 68
c0 53 3 67 15 67 12 0 15 -17 15 -95 0 -118 -13 -123 -73 -29 l-42 66 -3 -66
c-2 -50 -6 -66 -17 -66 -12 0 -15 19 -15 95 0 118 11 122 75 28z m1494 30
c-23 -46 -24 -100 -3 -153 9 -23 13 -44 10 -48 -11 -10 -45 39 -52 76 -13 68
16 162 50 162 11 0 10 -8 -5 -37z m71 -5 l0 -42 43 42 c57 56 80 54 34 -2
l-36 -43 34 -49 c44 -62 25 -73 -24 -15 -40 46 -51 45 -51 -6 0 -23 -5 -33
-15 -33 -12 0 -15 17 -15 95 0 78 3 95 15 95 11 0 15 -11 15 -42z m150 26 c0
-17 -22 -14 -28 4 -2 7 3 12 12 12 9 0 16 -7 16 -16z m1676 -19 c21 -50 18
-133 -6 -172 -30 -51 -54 -44 -25 7 19 33 19 128 0 164 -19 35 -19 36 1 36 8
0 22 -16 30 -35z m-3085 -15 c10 0 19 -4 19 -10 0 -5 -9 -10 -20 -10 -17 0
-20 -7 -20 -46 0 -37 4 -47 20 -51 24 -6 26 -21 5 -30 -29 -11 -55 26 -55 78
0 26 -5 49 -11 51 -7 2 -2 15 12 30 22 25 24 26 27 8 2 -12 11 -20 23 -20z
m2710 0 c10 0 19 -4 19 -10 0 -5 -9 -10 -20 -10 -17 0 -20 -7 -20 -46 0 -37 4
-47 20 -51 24 -6 26 -21 5 -30 -29 -11 -55 26 -55 78 0 26 -5 49 -11 51 -7 2
-2 15 12 30 22 25 24 26 27 8 2 -12 11 -20 23 -20z m-4191 15 c0 -8 10 -16 23
-16 l22 -2 -22 -4 c-21 -4 -23 -10 -23 -59 0 -47 2 -54 20 -54 11 0 20 -4 20
-10 0 -5 -11 -10 -25 -10 -31 0 -45 26 -45 84 0 26 -5 46 -12 49 -8 3 -6 6 5
6 9 1 17 8 17 16 0 8 5 15 10 15 6 0 10 -7 10 -15z m1385 -30 c14 -13 25 -33
25 -45 0 -17 -6 -20 -50 -20 -27 0 -50 -4 -50 -9 0 -18 31 -33 60 -29 37 6 41
-17 5 -26 -84 -21 -132 102 -55 141 34 17 37 17 65 -12z m390 0 c14 -13 25
-33 25 -45 0 -17 -6 -20 -50 -20 -27 0 -50 -4 -50 -9 0 -18 31 -33 60 -29 37
6 41 -17 5 -26 -84 -21 -132 102 -55 141 34 17 37 17 65 -12z m133 7 c2 -7 -5
-12 -17 -12 -26 0 -41 -28 -41 -79 0 -30 -4 -41 -15 -41 -12 0 -15 15 -15 71
0 65 2 71 19 66 10 -2 25 -1 32 4 17 11 31 7 37 -9z m184 -6 c14 -20 9 -127
-4 -124 -7 1 -23 -2 -36 -6 -46 -15 -95 43 -59 72 6 5 27 13 45 17 47 10 44
40 -3 32 -26 -4 -35 -2 -35 8 0 25 76 26 92 1z m156 -4 c18 -24 16 -122 -3
-122 -11 0 -15 12 -15 44 0 56 -8 76 -29 76 -29 0 -41 -22 -41 -72 0 -36 -4
-48 -15 -48 -12 0 -15 15 -15 71 0 65 2 71 19 66 10 -2 25 -1 32 4 18 11 50 2
67 -19z m279 18 c8 0 13 -6 10 -12 -2 -8 -16 -12 -34 -10 -47 5 -49 -15 -3
-38 31 -16 40 -26 40 -45 0 -31 -42 -51 -79 -38 -43 14 -37 32 8 26 32 -4 41
-2 41 9 0 9 -14 21 -30 28 -38 16 -54 42 -37 62 15 19 37 28 55 22 8 -2 20 -4
29 -4z m497 0 c24 -9 26 -14 26 -75 0 -50 -3 -65 -15 -65 -10 0 -15 15 -17 58
-3 53 -5 57 -28 57 -23 0 -25 -4 -28 -57 -2 -43 -7 -58 -17 -58 -12 0 -15 16
-15 71 0 53 3 70 13 66 6 -2 21 -1 32 4 11 4 21 8 22 8 1 1 13 -3 27 -9z m164
0 c12 0 22 -4 22 -10 0 -5 -6 -10 -14 -10 -9 0 -12 -7 -9 -20 7 -26 -13 -50
-43 -50 -12 0 -26 -4 -29 -10 -4 -6 5 -10 20 -10 39 0 65 -18 65 -44 0 -33
-26 -51 -72 -51 -50 0 -74 26 -56 59 7 11 11 26 10 33 -1 6 2 14 8 18 6 4 6
12 -2 24 -6 10 -8 30 -4 44 6 27 28 38 61 31 11 -2 30 -4 43 -4z m302 -16 c8
-8 15 -32 15 -54 0 -44 -16 -65 -57 -75 -21 -5 -33 -1 -52 19 -71 70 22 178
94 110z m150 13 c8 0 25 3 37 7 37 12 63 -24 63 -89 0 -41 -4 -55 -15 -55 -10
0 -15 15 -17 58 -3 53 -5 57 -28 57 -23 0 -25 -4 -28 -57 -2 -42 -7 -58 -17
-58 -10 0 -15 16 -17 57 -2 47 -6 58 -22 61 -26 5 -36 -15 -36 -70 0 -36 -4
-48 -15 -48 -12 0 -15 15 -15 71 0 65 2 71 19 66 10 -2 25 -1 32 4 8 5 21 6
29 2 8 -3 22 -6 30 -6z m294 -8 c57 -45 15 -150 -54 -134 -34 8 -50 32 -50 75
0 38 14 64 40 73 27 10 37 7 64 -14z m544 5 c14 -10 22 -25 22 -45 0 -28 -2
-29 -45 -29 -25 0 -45 -4 -45 -9 0 -18 31 -33 60 -29 41 6 40 -18 -1 -27 -73
-16 -119 76 -65 130 29 29 43 31 74 9z m-4854 -10 c9 -9 16 -32 16 -54 0 -45
-21 -70 -58 -70 -35 0 -49 10 -61 43 -11 29 0 75 22 89 20 13 65 9 81 -8z m68
-41 c3 -53 5 -58 27 -61 33 -5 51 21 51 75 0 24 5 43 10 43 6 0 10 -29 10 -68
l0 -69 -46 -2 c-63 -2 -74 10 -74 80 0 76 18 77 22 2z m234 46 c16 -13 20
-129 4 -129 -5 0 -10 26 -12 58 -3 52 -5 57 -27 60 -33 5 -51 -21 -51 -75 0
-24 -4 -43 -10 -43 -6 0 -10 29 -10 68 l0 69 46 2 c26 0 53 -4 60 -10z m250
-38 c10 -28 21 -48 25 -45 4 2 13 21 19 42 13 40 26 59 35 50 9 -9 -66 -189
-81 -195 -7 -2 -21 -3 -31 0 -15 3 -14 6 8 15 36 15 40 40 15 103 -17 41 -28
55 -45 57 -31 5 -41 -12 -41 -70 0 -27 -4 -48 -10 -48 -6 0 -10 29 -10 68 l0
69 49 2 49 1 18 -49z m122 38 c-2 -6 -8 -10 -13 -10 -5 0 -11 4 -13 10 -2 6 4
11 13 11 9 0 15 -5 13 -11z m2592 -59 c0 -56 -3 -70 -15 -70 -12 0 -15 14 -15
70 0 56 3 70 15 70 12 0 15 -14 15 -70z m-2590 -61 c0 -5 -7 -9 -15 -9 -15 0
-20 12 -9 23 8 8 24 -1 24 -14z m1520 -389 c0 -89 -2 -100 -17 -100 -10 0 -28
-3 -40 -6 -31 -8 -73 35 -73 76 0 43 40 83 75 74 23 -6 25 -3 25 25 0 21 5 31
15 31 12 0 15 -18 15 -100z m490 0 c0 -82 -3 -100 -15 -100 -12 0 -15 18 -15
100 0 82 3 100 15 100 12 0 15 -18 15 -100z m60 0 c0 -82 -3 -100 -15 -100
-12 0 -15 18 -15 100 0 82 3 100 15 100 12 0 15 -18 15 -100z m460 0 l0 -100
-27 -2 c-81 -5 -103 10 -103 73 0 46 38 82 76 73 21 -6 24 -3 24 25 0 21 5 31
15 31 12 0 15 -18 15 -100z m-3360 81 c0 -6 -19 -11 -42 -13 -35 -2 -44 -7
-46 -24 -2 -16 5 -24 30 -34 66 -26 83 -57 51 -92 -18 -20 -97 -26 -108 -8 -4
6 13 10 43 10 37 0 52 4 56 16 8 20 -8 41 -37 50 -50 15 -74 63 -45 92 14 14
98 16 98 3z m518 -78 c-17 -49 -35 -92 -39 -97 -19 -21 -17 3 6 64 40 111 44
120 55 120 5 0 -4 -39 -22 -87z m160 75 c17 -17 15 -58 -5 -80 -15 -17 -15
-21 6 -58 16 -28 18 -40 9 -40 -7 0 -23 18 -36 40 -31 55 -62 55 -62 0 0 -22
-4 -40 -10 -40 -6 0 -10 38 -10 95 l0 95 48 0 c26 0 53 -5 60 -12z m332 2 c0
-5 -4 -10 -10 -10 -5 0 -10 5 -10 10 0 6 5 10 10 10 6 0 10 -4 10 -10z m695
-57 l45 -68 0 68 c0 53 3 67 15 67 12 0 15 -17 15 -95 0 -118 -13 -123 -73
-29 l-42 66 -3 -66 c-2 -50 -6 -66 -17 -66 -12 0 -15 19 -15 95 0 118 11 122
75 28z m795 27 l0 -40 45 0 45 0 0 40 c0 29 4 40 15 40 12 0 15 -17 15 -95 0
-78 -3 -95 -15 -95 -11 0 -15 11 -15 40 l0 40 -45 0 -45 0 0 -40 c0 -29 -4
-40 -15 -40 -12 0 -15 17 -15 95 0 78 3 95 15 95 11 0 15 -11 15 -40z m-2440
5 c0 -8 10 -16 23 -16 l22 -2 -22 -4 c-21 -4 -23 -10 -23 -59 0 -47 2 -54 20
-54 11 0 20 -4 20 -10 0 -5 -11 -10 -25 -10 -31 0 -45 26 -45 84 0 26 -5 46
-12 49 -8 3 -6 6 5 6 9 1 17 8 17 16 0 8 5 15 10 15 6 0 10 -7 10 -15z m220 0
c0 -8 10 -16 23 -16 l22 -2 -22 -4 c-21 -4 -23 -10 -23 -59 0 -47 2 -54 20
-54 11 0 20 -4 20 -10 0 -5 -11 -10 -25 -10 -31 0 -45 26 -45 84 0 26 -5 46
-12 49 -8 3 -6 6 5 6 9 1 17 8 17 16 0 8 5 15 10 15 6 0 10 -7 10 -15z m1650
-31 c8 -8 15 -32 15 -54 0 -44 -16 -65 -57 -75 -21 -5 -33 -1 -52 19 -71 70
22 178 94 110z m153 -6 c41 -48 -3 -138 -61 -123 -37 9 -50 21 -57 54 -17 80
66 129 118 69z m127 19 c0 -7 -10 -17 -22 -22 -19 -8 -24 -19 -26 -62 -2 -38
-7 -53 -18 -53 -11 0 -14 16 -14 71 0 53 3 70 13 66 6 -2 21 -1 32 4 29 11 35
11 35 -4z m533 2 c12 -7 25 -17 29 -23 12 -18 9 -81 -4 -99 -39 -50 -118 -15
-118 52 0 42 22 69 68 80 2 1 13 -4 25 -10z m295 -17 c6 -9 12 -40 12 -70 0
-45 -3 -53 -17 -51 -10 2 -28 -1 -40 -5 -31 -10 -63 10 -63 38 0 29 17 44 59
52 41 9 34 29 -10 30 -36 0 -43 14 -12 25 24 10 55 1 71 -19z m136 18 c24 -9
26 -14 26 -75 0 -50 -3 -65 -15 -65 -10 0 -15 15 -17 58 -3 53 -5 57 -28 57
-23 0 -25 -4 -28 -57 -2 -43 -7 -58 -17 -58 -12 0 -15 16 -15 71 0 53 3 70 13
66 6 -2 21 -1 32 4 11 4 21 8 22 8 1 1 13 -3 27 -9z m-2966 -12 c7 -7 12 -38
12 -69 l0 -57 -52 2 c-48 1 -53 3 -56 25 -5 30 21 51 61 51 22 0 28 4 25 18
-2 12 -14 18 -41 20 -20 2 -35 7 -32 13 9 13 69 11 83 -3z m230 0 c7 -7 12
-22 12 -35 0 -21 -4 -23 -50 -23 -54 0 -55 -1 -40 -31 8 -14 21 -19 51 -19 24
0 38 -4 34 -10 -3 -5 -24 -10 -45 -10 -29 0 -43 6 -54 22 -36 50 -8 118 48
118 17 0 37 -5 44 -12z m382 -7 c21 -41 13 -51 -40 -51 -34 0 -50 -4 -50 -13
0 -22 23 -37 57 -37 18 0 33 -4 33 -10 0 -5 -18 -10 -39 -10 -30 0 -44 6 -55
22 -36 51 -8 118 49 118 24 0 38 -6 45 -19z m150 9 c0 -5 -5 -10 -11 -10 -6 0
-8 -7 -5 -16 9 -24 -11 -52 -39 -56 -39 -5 -31 -22 12 -28 32 -4 38 -9 41 -32
4 -33 -24 -50 -75 -46 -44 4 -62 27 -46 60 19 39 23 57 13 63 -14 9 -12 49 2
63 14 14 108 16 108 2z m40 -60 c0 -40 -4 -70 -10 -70 -6 0 -10 30 -10 70 0
40 4 70 10 70 6 0 10 -30 10 -70z m144 48 c36 -51 8 -118 -49 -118 -24 0 -39
7 -49 22 -36 51 -8 118 49 118 24 0 39 -7 49 -22z m154 -50 c2 -43 -1 -68 -8
-68 -6 0 -10 25 -10 61 l0 60 -32 -3 c-33 -3 -33 -4 -36 -60 -4 -82 -22 -72
-22 11 l0 69 53 -2 52 -1 3 -67z m62 57 c0 -8 -4 -15 -10 -15 -5 0 -10 7 -10
15 0 8 5 15 10 15 6 0 10 -7 10 -15z m1080 -55 c0 -5 -18 -10 -40 -10 -22 0
-40 5 -40 10 0 6 18 10 40 10 22 0 40 -4 40 -10z m-1080 -55 c0 -8 -4 -15 -10
-15 -5 0 -10 7 -10 15 0 8 5 15 10 15 6 0 10 -7 10 -15z m5711 -208 c-8 -8
-11 -7 -11 4 0 20 13 34 18 19 3 -7 -1 -17 -7 -23z m526 21 c13 -18 32 -86 26
-92 -3 -3 -14 -1 -24 5 -10 5 -30 7 -44 3 -30 -7 -31 1 -9 56 16 41 34 50 51
28z m83 -43 c0 -44 -3 -53 -15 -49 -8 4 -15 18 -15 34 0 16 -6 31 -12 34 -9 3
-7 9 6 20 31 25 36 20 36 -39z m91 31 c21 -46 -7 -95 -45 -80 -20 8 -30 58
-16 83 15 29 48 27 61 -3z m252 -14 c9 -4 -24 -6 -74 -5 -51 2 -94 5 -97 8 -8
8 150 5 171 -3z m-1063 -31 l-95 -6 78 -13 c43 -8 77 -16 74 -18 -2 -3 -33 0
-68 6 -35 5 -82 10 -104 10 -23 0 -46 5 -51 10 -11 11 -44 4 -44 -9 0 -4 -27
-4 -60 -1 -97 9 -226 -6 -276 -32 -24 -13 -105 -84 -181 -158 -140 -138 -213
-194 -213 -164 0 8 8 18 17 21 25 10 71 51 188 169 118 119 155 147 215 168
67 22 83 23 360 23 147 -1 215 -3 160 -6z m497 3 c-3 -3 -12 -4 -19 -1 -8 3
-5 6 6 6 11 1 17 -2 13 -5z m650 -15 c19 -12 32 -23 30 -26 -3 -2 -22 7 -42
22 -46 30 -36 34 12 4z m-992 1 c3 -5 36 -11 73 -12 l67 -1 -55 -7 c-47 -6
-51 -8 -30 -15 l25 -9 -25 -6 c-14 -4 -45 -4 -70 0 -26 4 -34 8 -19 9 40 2 43
14 7 33 l-33 17 27 1 c15 0 30 -4 33 -10z m853 3 c-21 -2 -57 -2 -80 0 -24 2
-7 4 37 4 44 0 63 -2 43 -4z m102 -23 c18 -12 2 -12 -25 0 -13 6 -15 9 -5 9 8
0 22 -4 30 -9z m55 -40 c10 -11 15 -20 11 -20 -4 0 -16 9 -28 20 -12 11 -17
20 -11 20 5 0 18 -9 28 -20z m-5525 -91 c0 -90 -2 -100 -17 -98 -10 2 -28 -1
-41 -5 -38 -13 -72 17 -72 63 0 22 3 47 6 56 9 24 51 37 75 25 17 -10 19 -7
19 25 0 24 4 35 15 35 12 0 15 -18 15 -101z m-2580 81 c0 -5 -20 -10 -44 -10
-52 0 -76 -24 -76 -75 0 -51 24 -75 76 -75 24 0 44 -4 44 -10 0 -5 -22 -10
-49 -10 -63 0 -91 30 -91 97 0 61 32 93 95 93 25 0 45 -4 45 -10z m50 0 c0 -5
-7 -10 -15 -10 -8 0 -15 5 -15 10 0 6 7 10 15 10 8 0 15 -4 15 -10z m1661 -85
c32 -84 34 -95 19 -95 -11 0 -20 10 -24 25 -5 21 -12 25 -46 25 -34 0 -41 -4
-46 -25 -6 -23 -34 -37 -34 -17 0 8 33 95 60 160 17 41 35 23 71 -73z m439 59
c0 -8 9 -14 20 -14 11 0 20 -4 20 -10 0 -5 -9 -10 -20 -10 -17 0 -20 -7 -20
-50 0 -43 3 -50 20 -50 11 0 20 -5 20 -10 0 -17 -27 -22 -49 -10 -17 9 -21 20
-21 65 0 33 -5 55 -12 58 -9 4 -10 8 -2 14 6 4 13 16 17 26 8 20 27 14 27 -9z
m-2050 1 c0 -10 10 -15 33 -15 31 0 34 -3 52 -56 l19 -57 21 57 c11 31 25 56
32 56 8 0 4 -21 -13 -66 -49 -130 -51 -134 -78 -134 -15 0 -26 5 -26 10 0 6 9
10 20 10 32 0 35 41 9 110 -20 49 -28 60 -46 60 -21 0 -23 -5 -23 -55 0 -48 2
-55 20 -55 11 0 20 -5 20 -11 0 -6 -12 -9 -27 -7 -27 3 -28 6 -31 63 -2 33 -9
63 -15 67 -9 6 -9 8 1 8 6 0 12 7 12 15 0 8 5 15 10 15 6 0 10 -7 10 -15z
m1790 -15 c12 7 28 7 44 0 24 -9 26 -14 26 -75 0 -51 -3 -65 -15 -65 -12 0
-15 13 -15 60 0 53 -2 60 -20 60 -25 0 -40 -29 -40 -79 0 -30 -4 -41 -15 -41
-12 0 -15 13 -15 61 0 57 -1 60 -22 57 -20 -3 -23 -10 -26 -60 -2 -43 -7 -58
-17 -58 -12 0 -15 16 -15 71 0 53 3 70 13 66 6 -2 21 -1 32 3 11 4 30 3 43 -1
14 -6 31 -5 42 1z m187 0 c8 0 13 -6 10 -12 -2 -8 -16 -12 -34 -10 -47 5 -49
-15 -3 -38 31 -16 40 -26 40 -45 0 -31 -42 -51 -79 -38 -43 14 -37 32 8 26 32
-4 41 -2 41 9 0 9 -14 21 -30 28 -38 16 -54 42 -37 62 15 19 37 28 55 22 8 -2
20 -4 29 -4z m221 -6 c14 -10 22 -25 22 -45 0 -28 -2 -29 -45 -29 -25 0 -45
-4 -45 -9 0 -18 31 -33 60 -29 41 6 40 -18 -1 -27 -73 -16 -119 76 -65 130 29
29 43 31 74 9z m137 7 c3 -6 -7 -16 -22 -23 -25 -12 -28 -20 -31 -66 -2 -37
-7 -52 -18 -52 -11 0 -14 16 -14 71 0 62 2 70 18 65 9 -3 24 -1 32 4 19 12 27
12 35 1z m273 -14 c7 -6 12 -33 12 -69 0 -51 -3 -59 -17 -57 -10 2 -28 -1 -40
-5 -31 -10 -63 10 -63 38 0 29 17 44 59 52 39 8 35 29 -5 29 -35 0 -44 18 -12
26 25 6 45 2 66 -14z m152 10 c8 0 25 3 37 7 37 12 63 -24 63 -89 0 -41 -4
-55 -15 -55 -10 0 -15 15 -17 58 -3 53 -5 57 -28 57 -23 0 -25 -4 -28 -57 -2
-42 -7 -58 -17 -58 -10 0 -15 16 -17 57 -2 47 -6 58 -22 61 -26 5 -36 -15 -36
-70 0 -36 -4 -48 -15 -48 -12 0 -15 15 -15 71 0 65 2 71 19 66 10 -2 25 -1 32
4 8 5 21 6 29 2 8 -3 22 -6 30 -6z m-2820 -67 c0 -40 -4 -70 -10 -70 -6 0 -10
30 -10 70 0 40 4 70 10 70 6 0 10 -30 10 -70z m268 59 c-2 -6 -8 -10 -13 -10
-5 0 -11 4 -13 10 -2 6 4 11 13 11 9 0 15 -5 13 -11z m2 -120 c0 -5 -7 -9 -15
-9 -15 0 -20 12 -9 23 8 8 24 -1 24 -14z m5841 -203 c81 -79 135 -146 117
-146 -7 0 -26 19 -43 41 -16 23 -61 70 -100 105 -38 35 -63 64 -55 64 8 0 45
-29 81 -64z m-54 2 c53 -47 133 -133 133 -144 0 -2 -52 -4 -115 -4 l-115 0 0
94 c0 89 4 101 31 105 3 1 33 -23 66 -51z m-5857 -108 c0 -5 -7 -10 -15 -10
-8 0 -15 5 -15 10 0 6 7 10 15 10 8 0 15 -4 15 -10z m2798 1 c8 -5 12 -21 10
-37 -2 -24 -8 -29 -35 -32 -24 -2 -34 2 -43 17 -22 42 26 79 68 52z m431 -31
c-34 -60 -55 -51 -24 10 9 17 22 30 31 30 13 0 11 -7 -7 -40z m791 34 c0 -16
-43 -74 -51 -69 -12 8 22 75 38 75 7 0 13 -3 13 -6z m36 -22 c-18 -34 -46 -60
-46 -43 0 23 31 71 46 71 13 0 13 -3 0 -28z m-3468 -33 c-5 -14 -21 -14 -26 0
-2 6 4 11 13 11 9 0 15 -5 13 -11z"/>
<path d="M1280 5250 c0 -28 3 -31 28 -28 21 2 27 8 27 28 0 20 -6 26 -27 28
-25 3 -28 0 -28 -28z"/>
<path d="M1500 5210 c0 -68 1 -70 25 -70 36 0 65 33 65 74 0 42 -22 66 -61 66
l-29 0 0 -70z"/>
<path d="M3052 5281 c-18 -11 -26 -80 -13 -113 12 -31 45 -38 55 -12 10 27 6
110 -6 122 -14 14 -19 15 -36 3z"/>
<path d="M3400 5271 c-16 -31 -12 -107 6 -122 26 -22 49 1 52 54 5 73 -32 116
-58 68z"/>
<path d="M4411 5276 c-9 -11 -8 -17 5 -30 21 -22 39 -15 39 15 0 28 -26 37
-44 15z"/>
<path d="M4404 5185 c-10 -25 4 -45 31 -45 30 0 43 24 25 45 -16 19 -49 19
-56 0z"/>
<path d="M1680 5225 c-11 -13 -7 -15 23 -15 28 0 35 3 31 15 -4 8 -14 15 -24
15 -10 0 -23 -7 -30 -15z"/>
<path d="M1904 5169 c-3 -6 -2 -15 4 -21 15 -15 46 -5 50 15 3 12 -3 17 -22
17 -14 0 -28 -5 -32 -11z"/>
<path d="M2504 5226 c-3 -8 -4 -29 -2 -48 2 -28 7 -34 30 -36 22 -3 29 2 34
22 11 44 -3 76 -32 76 -13 0 -27 -6 -30 -14z"/>
<path d="M9903 3990 c0 -36 2 -50 4 -32 2 17 2 47 0 65 -2 17 -4 3 -4 -33z"/>
<path d="M9562 3988 c-2 -57 -2 -58 26 -57 22 1 23 2 5 6 -19 4 -23 12 -26 56
l-3 52 -2 -57z"/>
<path d="M9689 3973 c-2 -24 -2 -43 2 -43 12 0 16 24 9 55 -6 28 -7 28 -11
-12z"/>
<path d="M9852 3998 c-17 -17 -15 -43 5 -59 15 -13 15 -12 2 9 -11 18 -11 26
-1 42 14 23 12 26 -6 8z"/>
<path d="M10081 3972 c1 -21 3 -29 6 -17 3 11 9 25 14 31 6 8 4 14 -6 18 -12
4 -15 -2 -14 -32z"/>
<path d="M9740 3970 c0 -16 2 -30 4 -30 2 0 6 14 8 30 3 17 1 30 -4 30 -4 0
-8 -13 -8 -30z"/>
<path d="M9803 3965 c0 -22 2 -30 4 -17 2 12 2 30 0 40 -3 9 -5 -1 -4 -23z"/>
<path d="M10030 3989 c0 -5 5 -7 10 -4 6 3 10 8 10 11 0 2 -4 4 -10 4 -5 0
-10 -5 -10 -11z"/>
<path d="M10143 3965 c0 -22 2 -30 4 -17 2 12 2 30 0 40 -3 9 -5 -1 -4 -23z"/>
<path d="M10194 3971 c0 -21 7 -36 16 -38 10 -3 11 -2 3 4 -6 4 -13 22 -16 38
-4 27 -5 27 -3 -4z"/>
<path d="M10280 3981 c0 -27 10 -51 22 -51 7 0 7 4 1 13 -6 6 -9 22 -8 35 1
12 -2 22 -7 22 -4 0 -8 -9 -8 -19z"/>
<path d="M10330 3990 c0 -5 5 -10 10 -10 6 0 10 5 10 10 0 6 -4 10 -10 10 -5
0 -10 -4 -10 -10z"/>
<path d="M10380 3965 c0 -19 2 -35 4 -35 2 0 6 16 8 35 2 19 0 35 -4 35 -4 0
-8 -16 -8 -35z"/>
<path d="M9652 3950 c0 -14 2 -19 5 -12 2 6 2 18 0 25 -3 6 -5 1 -5 -13z"/>
<path d="M9979 3961 c8 -5 10 -14 6 -22 -6 -11 -5 -11 5 -2 14 12 6 33 -13 33
-8 0 -7 -3 2 -9z"/>
<path d="M7447 3890 c-3 -11 -1 -20 4 -20 5 0 9 9 9 20 0 11 -2 20 -4 20 -2 0
-6 -9 -9 -20z"/>
<path d="M7850 3848 c0 -19 2 -20 10 -8 13 19 13 30 0 30 -5 0 -10 -10 -10
-22z"/>
<path d="M9310 3801 c-8 -4 -36 -11 -61 -14 -26 -4 -62 -13 -80 -21 -50 -21
-73 -29 -81 -28 -5 1 -8 -2 -8 -7 0 -5 -8 -11 -17 -15 -50 -16 -90 -58 -149
-152 -27 -44 -42 -78 -38 -88 4 -11 1 -16 -12 -17 -17 0 -16 -1 2 -9 12 -5 25
-14 29 -20 5 -8 25 17 52 64 40 67 105 136 129 136 5 0 28 17 51 38 64 58 134
77 284 77 78 0 135 -5 150 -12 13 -7 46 -22 73 -34 28 -11 74 -39 103 -62 30
-22 56 -37 60 -33 3 3 4 7 2 9 -2 2 -22 17 -44 34 -107 82 -225 123 -356 123
-80 0 -112 -5 -186 -28 -19 -6 -33 -7 -33 -1 0 5 12 11 28 14 15 4 36 11 46
17 11 6 65 13 120 15 83 5 112 2 166 -15 107 -33 150 -56 268 -144 62 -47 136
-97 164 -112 58 -31 227 -156 303 -224 52 -46 105 -83 165 -114 40 -21 40 -21
40 -9 0 5 -19 19 -43 31 -24 12 -64 38 -89 58 -220 175 -394 302 -414 302 -2
0 -30 19 -60 43 -150 114 -235 163 -324 188 -55 15 -220 22 -240 10z m-167
-88 c-7 -2 -19 -2 -25 0 -7 3 -2 5 12 5 14 0 19 -2 13 -5z m-113 -59 c0 -11 6
-14 18 -10 13 5 13 3 -3 -9 -46 -34 -63 -53 -99 -112 -20 -35 -41 -63 -46 -63
-21 0 33 114 83 175 31 38 47 44 47 19z m70 12 c0 -2 -7 -7 -16 -10 -8 -3 -12
-2 -9 4 6 10 25 14 25 6z"/>
<path d="M7449 3793 c-3 -18 2 -108 7 -112 2 -2 4 23 4 57 0 34 -2 62 -5 62
-3 0 -6 -3 -6 -7z"/>
<path d="M7853 3625 c0 -22 2 -30 4 -17 2 12 2 30 0 40 -3 9 -5 -1 -4 -23z"/>
<path d="M7452 3625 c0 -16 2 -22 5 -12 2 9 2 23 0 30 -3 6 -5 -1 -5 -18z"/>
<path d="M7452 3555 c0 -16 2 -22 5 -12 2 9 2 23 0 30 -3 6 -5 -1 -5 -18z"/>
<path d="M9860 3551 c0 -10 94 -71 109 -71 12 0 211 -150 261 -196 21 -20 53
-46 72 -59 18 -14 38 -28 44 -33 12 -11 103 -62 109 -62 16 0 0 22 -22 32 -41
18 -119 74 -188 133 -89 77 -210 166 -298 218 -83 50 -87 52 -87 38z"/>
<path d="M7600 3410 c0 -6 27 -10 60 -10 33 0 60 4 60 10 0 6 -27 10 -60 10
-33 0 -60 -4 -60 -10z"/>
<path d="M8855 3359 c-11 -16 -1 -19 13 -3 7 8 8 14 3 14 -5 0 -13 -5 -16 -11z"/>
<path d="M7523 3204 c7 -7 239 -6 246 1 2 3 -53 5 -124 5 -71 0 -126 -3 -122
-6z"/>
<path d="M10510 3154 c0 -5 24 -20 53 -33 61 -28 160 -91 153 -98 -3 -3 -31
11 -63 30 -72 43 -139 77 -153 77 -26 0 -5 -20 38 -36 26 -10 53 -24 60 -31 7
-7 18 -13 23 -13 26 0 34 -29 34 -115 l0 -90 110 -3 c118 -3 114 -1 163 -69
12 -18 22 -36 22 -42 0 -5 4 -11 8 -13 5 -1 28 -42 52 -91 41 -84 60 -112 60
-86 0 15 -95 195 -124 234 -33 44 -38 55 -27 55 13 0 87 -117 131 -207 19 -40
41 -72 47 -73 18 0 -96 218 -134 258 -21 21 -15 31 20 34 l32 3 0 80 0 80
-120 3 -119 3 -53 39 c-29 22 -55 40 -59 40 -4 0 -29 13 -55 30 -52 32 -99 48
-99 34z m276 -219 c14 -34 19 -75 9 -75 -3 0 -14 6 -25 12 -15 10 -22 10 -32
0 -22 -22 -30 -13 -23 24 14 78 47 96 71 39z m74 -21 c0 -40 -4 -55 -12 -52
-7 3 -15 15 -16 29 -2 13 -9 30 -14 37 -12 14 6 42 28 42 10 0 14 -15 14 -56z
m90 26 c11 -42 -3 -75 -30 -75 -32 0 -49 43 -32 80 16 34 53 31 62 -5z"/>
<path d="M10910 2919 c0 -11 4 -18 10 -14 5 3 7 12 3 20 -7 21 -13 19 -13 -6z"/>
<path d="M8670 3090 c0 -5 5 -10 10 -10 6 0 10 5 10 10 0 6 -4 10 -10 10 -5 0
-10 -4 -10 -10z"/>
<path d="M10307 2960 c-9 -11 -13 -20 -7 -20 5 0 14 9 20 20 6 11 9 20 8 20
-2 0 -11 -9 -21 -20z"/>
<path d="M10350 2941 c-12 -17 -18 -31 -13 -31 11 1 46 50 40 56 -3 3 -15 -9
-27 -25z"/>
<path d="M10225 2779 c-4 -6 -5 -12 -2 -15 2 -3 7 2 10 11 7 17 1 20 -8 4z"/>
<path d="M11110 2515 c0 -3 18 -40 39 -83 22 -42 48 -104 59 -137 24 -72 46
-175 39 -182 -6 -5 -10 9 -28 95 -7 35 -20 68 -27 75 -12 10 -13 6 -7 -23 4
-19 11 -39 15 -45 4 -5 11 -43 15 -83 6 -61 9 -71 21 -61 11 9 18 8 31 -2 15
-13 16 -11 9 11 -4 14 -11 54 -17 90 -5 36 -14 81 -20 100 -19 59 -78 190 -90
200 -4 3 -9 15 -13 28 -6 19 -26 32 -26 17z"/>
<path d="M9573 2289 c-16 -16 -17 -115 -3 -124 6 -4 20 -26 31 -51 12 -24 27
-44 34 -44 21 0 75 120 75 167 0 23 -5 45 -10 48 -23 14 -115 17 -127 4z m87
-54 c10 -12 10 -18 0 -30 -7 -8 -18 -15 -25 -15 -7 0 -18 7 -25 15 -10 12 -10
18 0 30 7 8 18 15 25 15 7 0 18 -7 25 -15z"/>
<path d="M8376 2072 c-3 -5 -10 -33 -15 -63 -5 -30 -12 -64 -16 -76 -4 -13 -3
-23 3 -23 9 0 27 54 42 133 7 34 -1 50 -14 29z"/>
<path d="M8396 2012 c-18 -64 -21 -102 -7 -102 4 0 13 26 19 58 5 31 13 67 17
80 4 12 3 22 -3 22 -5 0 -17 -26 -26 -58z"/>
<path d="M11222 1990 c0 -14 2 -19 5 -12 2 6 2 18 0 25 -3 6 -5 1 -5 -13z"/>
<path d="M11272 1990 c0 -14 2 -19 5 -12 2 6 2 18 0 25 -3 6 -5 1 -5 -13z"/>
<path d="M10881 1914 c0 -11 3 -14 6 -6 3 7 2 16 -1 19 -3 4 -6 -2 -5 -13z"/>
<path d="M9863 1891 c-3 -12 -15 -21 -32 -23 -22 -3 -26 -8 -29 -40 -2 -29 1
-39 17 -48 25 -13 26 -7 6 24 -13 19 -13 25 -1 41 20 27 39 9 33 -31 -4 -25
-2 -34 9 -34 11 0 14 15 14 65 0 64 -7 83 -17 46z"/>
<path d="M11266 1903 c-4 -4 -15 -8 -24 -8 -13 0 -19 -13 -26 -50 -4 -27 -15
-64 -22 -82 -8 -17 -14 -40 -14 -50 0 -11 -3 -22 -6 -26 -7 -6 -74 -199 -120
-342 -14 -44 -36 -103 -50 -130 -13 -28 -24 -56 -24 -63 0 -6 -4 -12 -9 -12
-5 0 -12 -13 -16 -28 -3 -16 -21 -52 -40 -81 -19 -29 -35 -55 -35 -57 0 -2
-11 -22 -25 -44 -14 -22 -21 -40 -16 -40 5 0 29 31 52 70 24 38 47 70 51 70
12 0 11 -4 -33 -75 -22 -37 -38 -70 -35 -73 8 -7 6 -10 56 78 24 41 51 84 61
95 9 11 20 31 24 45 4 13 14 30 21 38 8 7 14 22 14 32 0 10 7 31 15 46 8 16
15 36 15 45 0 8 4 19 9 25 9 9 77 200 113 314 11 36 26 83 33 105 8 22 17 63
20 90 4 28 11 63 17 78 11 28 8 43 -6 30z m-31 -121 c-9 -37 -26 -96 -39 -132
-13 -36 -28 -81 -35 -100 -7 -19 -32 -94 -56 -165 -51 -155 -104 -285 -116
-285 -12 0 -12 0 16 58 14 29 25 57 25 63 0 6 6 25 14 42 29 70 39 97 100 281
35 105 67 207 71 226 11 57 28 106 32 92 3 -6 -3 -42 -12 -80z m-265 -723 c-7
-11 -14 -19 -16 -16 -7 7 7 37 17 37 6 0 5 -9 -1 -21z"/>
<path d="M9090 1844 c-20 -54 -19 -88 1 -51 13 22 48 22 65 0 22 -32 24 -8 2
50 -11 31 -27 57 -34 57 -7 0 -22 -25 -34 -56z m50 0 c0 -8 -7 -14 -15 -14
-17 0 -18 2 -9 24 7 18 24 12 24 -10z"/>
<path d="M9508 1877 c-9 -26 4 -96 19 -102 19 -7 32 3 17 13 -18 12 -23 51 -9
65 11 11 10 15 -5 25 -14 8 -19 8 -22 -1z"/>
<path d="M8342 1638 c3 -249 0 -235 48 -229 6 1 10 85 10 231 0 147 -4 230
-10 230 -6 0 -10 -84 -10 -232 0 -214 -4 -272 -14 -187 -2 19 -4 121 -5 227
-1 128 -5 192 -12 192 -7 0 -9 -73 -7 -232z"/>
<path d="M9210 1831 c0 -53 16 -60 24 -11 8 51 34 54 38 5 2 -20 8 -35 13 -35
6 0 11 15 13 35 5 59 42 40 42 -21 0 -14 4 -22 10 -19 14 9 12 61 -2 73 -7 5
-41 10 -75 11 l-63 1 0 -39z"/>
<path d="M9403 1854 c-4 -11 2 -23 17 -34 21 -16 21 -48 -1 -35 -5 4 -9 1 -9
-4 0 -12 11 -14 34 -5 22 9 20 41 -4 54 -26 14 -25 28 3 33 19 4 18 4 -6 6
-17 0 -30 -5 -34 -15z"/>
<path d="M9597 1863 c-4 -3 -7 -21 -7 -39 0 -32 20 -54 49 -54 19 0 12 17 -9
23 -28 7 -25 27 3 27 31 0 38 9 26 31 -9 18 -49 26 -62 12z m43 -18 c0 -8 -7
-15 -15 -15 -8 0 -15 7 -15 15 0 8 7 15 15 15 8 0 15 -7 15 -15z"/>
<path d="M9710 1822 c0 -26 4 -41 10 -37 6 3 10 16 10 27 0 12 7 30 17 40 15
17 15 18 -10 16 -25 -2 -27 -6 -27 -46z"/>
<path d="M9958 1863 c30 -6 29 -33 -2 -33 -30 0 -42 -28 -22 -49 19 -18 34 -7
18 12 -13 15 -6 27 15 27 8 0 13 -7 11 -16 -2 -10 3 -19 10 -22 10 -3 12 7 10
39 -3 41 -5 44 -33 46 -20 1 -23 0 -7 -4z"/>
<path d="M10050 1822 c0 -50 16 -48 22 3 5 49 32 38 39 -15 4 -38 6 -41 12
-20 3 14 8 34 9 45 6 36 33 23 36 -17 4 -46 22 -51 22 -5 0 48 -9 54 -77 54
l-63 0 0 -45z"/>
<path d="M8361 1345 c-2 -5 -5 -46 -5 -90 -1 -44 -6 -98 -10 -120 -16 -81 -25
-121 -31 -142 -5 -15 -3 -23 4 -23 13 0 18 11 25 60 3 19 10 55 16 81 9 39 10
260 1 234z"/>
<path d="M8383 1243 c1 -78 -4 -128 -17 -179 -12 -44 -16 -78 -11 -90 6 -14
11 -4 18 41 5 33 15 63 21 67 10 7 18 230 9 256 -14 35 -21 1 -20 -95z"/>
<path d="M11130 1052 c0 -13 35 -42 50 -42 9 0 8 6 -5 20 -19 21 -7 28 13 8 9
-9 12 -8 12 5 0 13 -9 17 -35 17 -19 0 -35 -4 -35 -8z"/>
<path d="M10237 989 c7 -7 15 -10 18 -7 3 3 -2 9 -12 12 -14 6 -15 5 -6 -5z"/>
<path d="M11320 953 c1 -11 50 -46 50 -36 0 9 -36 43 -45 43 -3 0 -5 -3 -5 -7z"/>
<path d="M10672 813 c3 -54 5 -58 28 -60 25 -3 25 -3 3 7 -18 7 -23 17 -23 48
0 30 5 41 23 50 21 10 21 11 -6 11 -28 1 -28 1 -25 -56z"/>
<path d="M10738 810 c-6 -55 -3 -61 13 -26 9 18 9 32 2 48 -9 21 -11 18 -15
-22z"/>
<path d="M10843 825 c-7 -8 -13 -21 -13 -29 0 -20 20 -31 21 -12 1 9 2 21 3
27 0 7 10 15 21 20 l20 8 -20 0 c-11 0 -26 -6 -32 -14z"/>
<path d="M10938 828 c-2 -7 -1 -26 3 -43 7 -29 7 -29 8 8 1 38 25 53 37 22 4
-8 10 -12 16 -9 15 9 -12 34 -37 34 -13 0 -25 -6 -27 -12z"/>
<path d="M11022 833 c11 -3 18 -17 21 -41 l4 -37 1 43 c2 38 0 42 -20 41 -17
-1 -18 -3 -6 -6z"/>
<path d="M11108 833 c6 -2 18 -2 25 0 6 3 1 5 -13 5 -14 0 -19 -2 -12 -5z"/>
<path d="M11220 833 c8 -3 18 -11 22 -17 5 -7 8 -4 8 7 0 11 -7 17 -22 16 -16
0 -18 -2 -8 -6z"/>
<path d="M10793 795 c0 -22 2 -30 4 -17 2 12 2 30 0 40 -3 9 -5 -1 -4 -23z"/>
<path d="M11192 800 c0 -19 2 -27 5 -17 2 9 2 25 0 35 -3 9 -5 1 -5 -18z"/>
<path d="M10885 810 c-3 -5 -1 -10 4 -10 6 0 11 5 11 10 0 6 -2 10 -4 10 -3 0
-8 -4 -11 -10z"/>
<path d="M11090 796 c0 -31 6 -34 13 -6 3 11 1 23 -4 26 -5 3 -9 -6 -9 -20z"/>
<path d="M11135 810 c-3 -5 1 -10 9 -10 9 0 16 5 16 10 0 6 -4 10 -9 10 -6 0
-13 -4 -16 -10z"/>
<path d="M11490 771 c0 -10 19 -25 25 -20 1 2 -3 10 -11 17 -8 7 -14 8 -14 3z"/>
<path d="M10868 753 c7 -3 16 -2 19 1 4 3 -2 6 -13 5 -11 0 -14 -3 -6 -6z"/>
<path d="M11118 753 c7 -3 16 -2 19 1 4 3 -2 6 -13 5 -11 0 -14 -3 -6 -6z"/>
<path d="M10670 710 c-40 -24 -86 -40 -111 -40 -15 0 -31 -5 -35 -11 -3 -6
-15 -9 -25 -6 -11 3 -17 2 -15 -2 8 -12 -19 -37 -80 -74 -34 -20 -65 -37 -69
-37 -11 0 -35 -27 -29 -33 6 -6 89 37 115 59 8 8 19 14 22 14 4 0 26 12 49 26
23 15 81 43 130 63 49 21 85 40 82 44 -9 9 -15 8 -34 -3z"/>
<path d="M10715 695 c-22 -14 -56 -30 -75 -36 -40 -13 -57 -26 -47 -35 8 -8
152 63 168 82 17 21 -1 16 -46 -11z"/>
<path d="M11560 681 c0 -9 30 -24 36 -18 2 1 -6 8 -16 15 -11 7 -20 8 -20 3z"/>
<path d="M10494 592 c-22 -16 -67 -44 -99 -62 -57 -31 -79 -50 -70 -58 2 -3
27 10 55 27 28 17 53 31 56 31 8 0 69 44 72 53 2 4 17 7 34 7 26 0 29 2 18 15
-17 20 -21 19 -66 -13z"/>
<path d="M10657 549 c7 -7 15 -10 18 -7 3 3 -2 9 -12 12 -14 6 -15 5 -6 -5z"/>
<path d="M10625 520 c3 -5 11 -10 16 -10 6 0 7 5 4 10 -3 6 -11 10 -16 10 -6
0 -7 -4 -4 -10z"/>
<path d="M10725 470 c3 -5 8 -10 11 -10 2 0 4 5 4 10 0 6 -5 10 -11 10 -5 0
-7 -4 -4 -10z"/>
<path d="M10215 428 c-38 -22 -95 -53 -125 -69 -41 -21 -49 -29 -32 -29 22 0
80 26 92 41 3 4 16 10 30 14 13 4 30 13 37 19 35 31 44 36 63 36 11 0 20 7 20
15 0 20 -5 19 -85 -27z"/>
<path d="M9555 270 c-3 -6 1 -7 9 -4 18 7 21 14 7 14 -6 0 -13 -4 -16 -10z"/>
<path d="M9603 215 c0 -38 2 -53 4 -32 2 20 2 52 0 70 -2 17 -4 1 -4 -38z"/>
<path d="M9979 253 c-13 -17 -13 -17 6 -3 11 8 22 16 24 17 2 2 0 3 -6 3 -6 0
-17 -8 -24 -17z"/>
<path d="M10031 267 c2 -1 15 -11 29 -22 l25 -20 -19 23 c-11 12 -24 22 -29
22 -6 0 -8 -1 -6 -3z"/>
<path d="M10156 248 c-9 -12 -16 -29 -16 -38 0 -27 30 -60 54 -60 48 0 75 70
40 104 -22 23 -60 20 -78 -6z m72 0 c7 -7 12 -24 12 -38 0 -52 -61 -71 -82
-25 -23 51 32 101 70 63z"/>
<path d="M10577 263 c-16 -16 -5 -44 24 -58 36 -19 33 -38 -7 -46 -29 -7 -29
-7 -3 -8 52 -2 62 53 13 65 -34 9 -32 42 4 47 l27 4 -26 2 c-14 0 -29 -2 -32
-6z"/>
<path d="M11032 208 l1 -63 6 55 6 55 20 -53 c17 -47 21 -51 32 -36 7 10 13
23 12 28 0 6 -3 5 -6 -1 -9 -23 -20 -14 -37 32 -10 25 -22 45 -27 45 -5 0 -8
-28 -7 -62z"/>
<path d="M11121 244 c-6 -15 -10 -29 -7 -31 2 -2 8 6 12 19 7 19 10 13 15 -32
l6 -55 1 63 c2 66 -7 79 -27 36z"/>
<path d="M11417 263 c19 -4 23 -12 26 -61 l3 -57 2 57 c2 50 5 57 25 61 12 2
0 4 -28 4 -27 0 -40 -2 -28 -4z"/>
<path d="M10658 250 c-2 -7 -1 -31 2 -54 4 -31 10 -41 25 -43 16 -1 16 -1 3 3
-13 4 -18 16 -18 40 0 25 4 34 18 35 13 0 14 2 2 6 -8 3 -18 10 -21 16 -4 5
-8 4 -11 -3z"/>
<path d="M10002 238 c-14 -14 -16 -44 -3 -52 4 -3 6 6 3 19 -3 19 1 27 19 34
14 6 18 10 9 10 -9 1 -21 -4 -28 -11z"/>
<path d="M10967 244 c-2 -2 -1 -23 2 -46 5 -33 11 -43 26 -46 18 -2 18 -2 3 8
-11 6 -18 23 -18 40 0 19 6 30 18 32 14 3 13 5 -5 10 -12 3 -24 4 -26 2z"/>
<path d="M9366 232 c-3 -5 6 -7 19 -4 19 3 25 0 25 -13 0 -14 -7 -16 -30 -13
-18 3 -30 0 -30 -7 0 -7 13 -9 36 -7 29 4 35 8 32 26 -3 22 -41 35 -52 18z"/>
<path d="M9477 234 c17 -4 23 -14 26 -42 l4 -37 -1 40 c-1 35 -4 40 -26 42
-21 1 -21 0 -3 -3z"/>
<path d="M9543 233 c9 -2 23 -2 30 0 6 3 -1 5 -18 5 -16 0 -22 -2 -12 -5z"/>
<path d="M9647 233 c-4 -3 -7 -15 -7 -25 0 -13 8 -18 29 -18 17 0 32 4 35 8 3
5 -8 6 -25 4 -22 -3 -29 0 -29 13 0 13 6 16 25 13 13 -3 22 -1 19 3 -6 11 -38
12 -47 2z"/>
<path d="M9729 203 l6 -38 3 32 c2 19 10 33 20 36 11 3 7 5 -8 6 -24 1 -26 -1
-21 -36z"/>
<path d="M10318 230 c15 -6 22 -18 22 -35 0 -17 -8 -29 -22 -35 -18 -8 -19 -9
-4 -7 45 5 48 88 3 86 l-22 0 23 -9z"/>
<path d="M10382 228 c-6 -6 -12 -19 -12 -28 0 -12 8 -15 36 -12 29 4 35 8 32
26 -3 24 -37 33 -56 14z m48 -13 c0 -9 -9 -15 -25 -15 -24 0 -32 10 -18 23 12
13 43 7 43 -8z"/>
<path d="M10471 191 l2 -46 6 40 c5 31 11 41 28 43 19 3 22 -2 26 -40 l4 -43
-1 45 c-1 44 -2 45 -33 46 -33 1 -33 1 -32 -45z"/>
<path d="M10721 190 l2 -45 6 39 c4 26 13 42 26 47 17 6 15 7 -7 6 -26 -1 -28
-4 -27 -47z"/>
<path d="M10792 228 c-6 -6 -12 -19 -12 -28 0 -12 8 -15 36 -12 29 4 35 8 32
26 -3 24 -37 33 -56 14z m48 -13 c0 -9 -9 -15 -25 -15 -24 0 -32 10 -18 23 12
13 43 7 43 -8z"/>
<path d="M10884 226 c-3 -8 -4 -27 -2 -43 2 -23 8 -28 33 -30 27 -2 28 -1 6 5
-37 11 -38 32 -2 32 19 0 31 5 31 13 0 32 -55 51 -66 23z m54 -13 c2 -8 -6
-13 -22 -13 -17 0 -26 5 -26 16 0 19 41 16 48 -3z"/>
<path d="M11208 233 c17 -3 22 -11 22 -34 0 -31 -20 -47 -41 -33 -9 5 -7 11 6
21 16 11 16 13 3 13 -19 0 -29 -22 -18 -40 5 -8 17 -10 35 -6 23 6 26 11 23
44 -3 31 -7 37 -28 39 -22 1 -22 1 -2 -4z"/>
<path d="M11271 171 c1 -40 4 -56 8 -41 4 18 13 25 30 25 13 0 26 7 28 15 4
12 3 12 -5 2 -17 -25 -47 -10 -47 23 0 33 30 48 47 23 8 -10 9 -10 5 2 -2 9
-16 15 -35 16 l-32 1 1 -66z"/>
<path d="M11512 228 c-7 -7 -12 -19 -12 -28 0 -12 8 -15 35 -12 25 3 35 9 34
21 0 10 -2 11 -6 4 -6 -17 -56 -17 -51 -1 3 7 15 15 29 19 21 6 21 7 4 8 -12
1 -26 -4 -33 -11z"/>
<path d="M11703 233 c12 -3 17 -15 18 -46 l2 -42 6 40 c5 31 11 41 28 43 19 3
22 -2 26 -35 l4 -38 -1 40 -1 40 -50 1 c-27 0 -42 -1 -32 -3z"/>
<path d="M11814 229 c-3 -6 -1 -16 5 -22 9 -9 11 -8 6 5 -5 13 0 18 22 21 l28
4 -27 2 c-15 0 -30 -4 -34 -10z"/>
<path d="M11860 177 c0 -9 -11 -17 -27 -20 l-28 -4 28 -2 c26 -1 48 22 33 36
-3 4 -6 -1 -6 -10z"/>
<path d="M10055 171 c-6 -5 -21 -11 -35 -14 l-25 -4 26 -2 c15 0 32 6 39 14
14 16 10 21 -5 6z"/>
<path d="M9369 157 c5 -5 19 -7 32 -5 20 3 19 5 -9 9 -20 3 -29 2 -23 -4z"/>
<path d="M10389 157 c5 -5 19 -7 32 -5 20 3 19 5 -9 9 -20 3 -29 2 -23 -4z"/>
<path d="M10799 157 c5 -5 19 -7 32 -5 20 3 19 5 -9 9 -20 3 -29 2 -23 -4z"/>
<path d="M11518 158 c6 -6 18 -8 28 -6 14 3 12 5 -9 10 -19 3 -25 2 -19 -4z"/>
<path d="M9293 153 c9 -2 25 -2 35 0 9 3 1 5 -18 5 -19 0 -27 -2 -17 -5z"/>
<path d="M9458 153 c6 -2 18 -2 25 0 6 3 1 5 -13 5 -14 0 -19 -2 -12 -5z"/>
<path d="M9668 153 c6 -2 18 -2 25 0 6 3 1 5 -13 5 -14 0 -19 -2 -12 -5z"/>
<path d="M9748 153 c7 -3 16 -2 19 1 4 3 -2 6 -13 5 -11 0 -14 -3 -6 -6z"/>
<path d="M1200 3915 l0 -75 34 0 c47 0 66 22 66 75 0 53 -19 75 -66 75 l-34 0
0 -75z"/>
<path d="M3092 3920 l-23 -30 26 0 c21 0 25 5 25 30 0 17 -1 30 -3 30 -2 0
-13 -13 -25 -30z"/>
<path d="M3962 3978 c-32 -32 0 -84 37 -61 22 14 25 38 6 57 -20 19 -27 20
-43 4z"/>
<path d="M1376 3924 c-9 -24 -9 -24 33 -24 34 0 38 3 34 20 -7 25 -58 28 -67
4z"/>
<path d="M1940 3881 c-27 -8 -39 -36 -18 -43 23 -9 58 10 58 32 0 21 -1 22
-40 11z"/>
<path d="M3092 3501 c-18 -11 -26 -80 -13 -113 12 -31 45 -38 55 -12 10 27 6
110 -6 122 -14 14 -19 15 -36 3z"/>
<path d="M3452 3501 c-18 -11 -26 -80 -13 -113 12 -31 45 -38 55 -12 10 27 6
110 -6 122 -14 14 -19 15 -36 3z"/>
<path d="M4451 3496 c-9 -11 -8 -17 4 -30 20 -20 47 -9 43 18 -4 25 -30 32
-47 12z"/>
<path d="M4444 3405 c-10 -25 4 -45 31 -45 30 0 43 24 25 45 -16 19 -49 19
-56 0z"/>
<path d="M1382 3448 c-7 -7 -12 -24 -12 -38 0 -31 17 -50 45 -50 28 0 45 19
45 50 0 31 -17 50 -45 50 -12 0 -26 -5 -33 -12z"/>
<path d="M1910 3401 c-26 -3 -42 -19 -34 -33 9 -14 54 -9 60 7 9 22 1 30 -26
26z"/>
<path d="M2247 3454 c-18 -19 -5 -34 29 -34 28 0 35 3 32 18 -3 17 -48 29 -61
16z"/>
<path d="M1221 2990 c-14 -42 -15 -40 14 -40 29 0 29 -1 11 40 l-13 32 -12
-32z"/>
<path d="M2940 3015 c-11 -13 -11 -18 2 -31 20 -20 50 -7 46 20 -4 26 -30 32
-48 11z"/>
<path d="M2934 2925 c-10 -25 4 -45 31 -45 30 0 43 24 25 45 -16 19 -49 19
-56 0z"/>
<path d="M3092 3021 c-18 -11 -26 -80 -13 -113 12 -31 45 -38 55 -12 10 27 6
110 -6 122 -14 14 -19 15 -36 3z"/>
<path d="M8590 2914 c0 -8 5 -12 10 -9 6 4 8 11 5 16 -9 14 -15 11 -15 -7z"/>
<path d="M1400 2505 c0 -33 2 -35 35 -35 28 0 36 4 41 24 8 35 -2 46 -42 46
-32 0 -34 -2 -34 -35z"/>
<path d="M3462 2478 c-30 -30 -4 -94 35 -86 14 3 18 13 18 48 0 37 -3 45 -20
48 -11 1 -26 -3 -33 -10z"/>
<path d="M3730 2465 c-12 -32 3 -75 28 -75 25 0 42 20 42 50 0 51 -53 70 -70
25z"/>
<path d="M4292 2478 c-7 -7 -12 -24 -12 -38 0 -51 52 -69 72 -25 22 49 -25 98
-60 63z"/>
<path d="M4554 2476 c-3 -8 -4 -29 -2 -48 2 -25 8 -34 25 -36 31 -5 51 37 35
73 -13 27 -49 34 -58 11z"/>
<path d="M4700 2465 c-12 -32 3 -75 28 -75 25 0 42 20 42 50 0 51 -53 70 -70
25z"/>
<path d="M4957 2423 c-14 -13 -7 -33 11 -33 19 0 42 18 42 32 0 10 -44 11 -53
1z"/>
<path d="M5262 2478 c-30 -30 -4 -94 35 -86 14 3 18 13 18 48 0 37 -3 45 -20
48 -11 1 -26 -3 -33 -10z"/>
<path d="M2940 1980 c0 -66 1 -70 23 -70 42 0 67 27 67 74 0 51 -13 66 -57 66
l-33 0 0 -70z"/>
<path d="M3114 1939 c-3 -6 -2 -15 4 -21 15 -15 46 -5 50 15 3 12 -3 17 -22
17 -14 0 -28 -5 -32 -11z"/>
<path d="M3344 1939 c-3 -6 -2 -15 4 -21 15 -15 46 -5 50 15 3 12 -3 17 -22
17 -14 0 -28 -5 -32 -11z"/>
<path d="M3620 1995 c-11 -13 -8 -15 20 -15 21 0 30 4 28 13 -7 18 -33 20 -48
2z"/>
<path d="M4010 1995 c-11 -13 -8 -15 20 -15 21 0 30 4 28 13 -7 18 -33 20 -48
2z"/>
<path d="M1336 1994 c-9 -24 -9 -24 33 -24 34 0 38 3 34 20 -7 25 -58 28 -67
4z"/>
<path d="M1892 2013 c-7 -3 -17 -13 -22 -24 -10 -17 -7 -19 30 -19 28 0 40 4
40 15 0 17 -29 34 -48 28z"/>
<path d="M4132 1508 c-30 -30 -4 -94 35 -86 14 3 18 13 18 48 0 37 -3 45 -20
48 -11 1 -26 -3 -33 -10z"/>
<path d="M5064 1506 c-3 -8 -4 -29 -2 -48 2 -25 8 -34 25 -36 31 -5 51 37 35
73 -13 27 -49 34 -58 11z"/>
<path d="M3130 1505 c-11 -13 -8 -15 20 -15 21 0 30 4 28 13 -7 18 -33 20 -48
2z"/>
<path d="M3520 1505 c-11 -13 -8 -15 20 -15 21 0 30 4 28 13 -7 18 -33 20 -48
2z"/>
<path d="M3824 1449 c-3 -6 -2 -15 4 -21 15 -15 46 -5 50 15 3 12 -3 17 -22
17 -14 0 -28 -5 -32 -11z"/>
<path d="M4920 1495 c0 -22 4 -26 23 -23 14 2 22 10 22 23 0 13 -8 21 -22 23
-19 3 -23 -1 -23 -23z"/>
<path d="M4906 1385 c-3 -9 1 -18 8 -21 26 -10 61 1 64 19 3 13 -4 17 -31 17
-22 0 -37 -6 -41 -15z"/>
<path d="M5222 1508 c-7 -7 -12 -24 -12 -38 0 -51 52 -69 72 -25 22 49 -25 98
-60 63z"/>
<path d="M5674 1506 c-3 -8 -4 -29 -2 -48 2 -26 8 -34 27 -36 13 -2 28 2 32
10 13 19 11 62 -3 76 -16 16 -47 15 -54 -2z"/>
<path d="M6227 1506 c-5 -12 1 -16 24 -16 20 0 29 4 27 13 -7 18 -45 20 -51 3z"/>
<path d="M1354 1507 c-3 -8 -4 -30 -2 -49 3 -31 6 -33 38 -33 35 0 35 0 35 45
0 43 -1 45 -33 48 -21 2 -34 -2 -38 -11z"/>
<path d="M3542 1028 c-30 -30 -4 -94 35 -86 14 3 18 13 18 48 0 37 -3 45 -20
48 -11 1 -26 -3 -33 -10z"/>
<path d="M4552 1028 c-13 -13 -16 -47 -6 -72 10 -26 53 -20 60 9 14 57 -20 97
-54 63z"/>
<path d="M1870 1055 c0 -33 2 -35 35 -35 28 0 36 4 41 24 8 35 -2 46 -42 46
-32 0 -34 -2 -34 -35z"/>
<path d="M3132 1028 c-7 -7 -12 -24 -12 -38 0 -51 52 -69 72 -25 22 49 -25 98
-60 63z"/>
<path d="M3280 1015 c-12 -32 3 -75 28 -75 25 0 42 20 42 50 0 51 -53 70 -70
25z"/>
<path d="M3972 1028 c-30 -30 -4 -94 35 -86 14 3 18 13 18 48 0 37 -3 45 -20
48 -11 1 -26 -3 -33 -10z"/>
<path d="M4240 960 c0 -23 29 -27 48 -8 19 19 14 28 -18 28 -23 0 -30 -4 -30
-20z"/>
<path d="M1440 981 c-27 -8 -39 -36 -18 -43 23 -9 58 10 58 32 0 21 -1 22 -40
11z"/>
<path d="M1662 1043 c-7 -3 -17 -13 -22 -24 -10 -17 -7 -19 30 -19 28 0 40 4
40 15 0 17 -29 34 -48 28z"/>
<path d="M2032 1034 c-33 -23 -27 -34 18 -34 43 0 49 9 24 34 -19 19 -15 19
-42 0z"/>
<path d="M2162 1038 c-25 -25 0 -64 32 -52 21 8 21 50 0 58 -20 8 -18 8 -32
-6z"/>
<path d="M2147 913 c-23 -22 20 -47 57 -33 41 15 33 40 -12 40 -21 0 -42 -3
-45 -7z"/>
<path d="M2352 1028 c-7 -7 -12 -24 -12 -38 0 -31 17 -50 45 -50 28 0 45 19
45 50 0 31 -17 50 -45 50 -12 0 -26 -5 -33 -12z"/>
<path d="M9020 705 c0 -8 5 -15 10 -15 6 0 10 7 10 15 0 8 -4 15 -10 15 -5 0
-10 -7 -10 -15z"/>
<path d="M3794 536 c-3 -8 -4 -29 -2 -48 2 -25 8 -34 25 -36 31 -5 51 37 35
73 -13 27 -49 34 -58 11z"/>
<path d="M2961 547 c-14 -37 -14 -37 9 -37 21 0 24 12 10 45 -7 19 -9 18 -19
-8z"/>
<path d="M3547 536 c-5 -12 1 -16 24 -16 20 0 29 4 27 13 -7 18 -45 20 -51 3z"/>
<path d="M3947 483 c-14 -13 -7 -33 11 -33 19 0 42 18 42 32 0 10 -44 11 -53
1z"/>
<path d="M4300 101 c0 -15 6 -21 21 -21 25 0 22 33 -4 38 -12 2 -17 -3 -17
-17z"/>
<path d="M3590 105 c-11 -13 -11 -18 2 -31 20 -20 50 -7 46 20 -4 26 -30 32
-48 11z"/>
<path d="M4921 61 c-27 -37 -26 -41 4 -41 22 0 25 4 25 35 0 19 -2 35 -4 35
-3 0 -14 -13 -25 -29z"/>
<path d="M5720 47 c0 -46 1 -47 31 -47 l31 0 -17 28 c-47 71 -45 71 -45 19z"/>
<path d="M1846 58 c-30 -42 -21 -58 30 -58 l47 0 -7 32 c-10 51 -44 63 -70 26z"/>
<path d="M2008 69 c-33 -19 -21 -39 22 -39 33 0 38 3 33 18 -6 16 -22 32 -33
32 -3 -1 -13 -5 -22 -11z"/>
<path d="M5280 42 c-40 -13 -32 -42 11 -42 22 0 29 5 29 19 0 21 -17 31 -40
23z"/>
<path d="M3587 23 c-15 -15 -5 -23 29 -23 31 0 35 2 24 15 -13 16 -42 20 -53
8z"/>
<path d="M1335 10 c-16 -7 -13 -9 18 -9 20 -1 37 4 37 9 0 12 -27 12 -55 0z"/>
</g>
</svg>
