<?xml version="1.0" standalone="no"?>
<!DOCTYPE svg PUBLIC "-//W3C//DTD SVG 20010904//EN"
 "http://www.w3.org/TR/2001/REC-SVG-20010904/DTD/svg10.dtd">
<svg version="1.0" xmlns="http://www.w3.org/2000/svg"
 width="1805.000000pt" height="706.000000pt" viewBox="0 0 1805.000000 706.000000"
 preserveAspectRatio="xMidYMid meet">

<g transform="translate(0.000000,706.000000) scale(0.100000,-0.100000)"
fill="#000000" stroke="none">
<path d="M300 7050 c0 -6 15 -44 34 -84 73 -159 256 -276 431 -276 105 0 235
49 315 120 43 37 44 39 15 31 -16 -5 -50 -22 -75 -39 -238 -160 -564 -62 -676
202 -21 47 -44 72 -44 46z"/>
<path d="M397 7044 c4 -12 3 -15 -5 -10 -18 11 -14 -9 10 -51 27 -48 58 -88
58 -77 0 5 -14 33 -30 62 -16 29 -27 59 -24 67 3 7 1 16 -5 20 -7 4 -8 0 -4
-11z"/>
<path d="M420 7046 c0 -39 65 -136 92 -136 4 0 19 -12 34 -27 26 -26 28 -26
35 -8 4 11 8 30 8 42 1 12 5 24 10 27 5 4 5 -10 0 -32 -13 -55 -11 -61 15 -73
22 -10 31 -7 74 27 64 50 79 72 55 80 -21 7 -80 33 -106 46 -13 7 -20 4 -27
-14 -10 -22 -10 -22 -7 4 3 22 -3 32 -34 53 -21 14 -47 25 -58 25 -16 0 -19
-6 -15 -42 l3 -43 -11 43 c-10 37 -14 42 -39 42 -19 0 -29 -5 -29 -14z m100
-119 c0 -5 -4 -5 -10 -2 -5 3 -10 14 -10 23 0 15 2 15 10 2 5 -8 10 -19 10
-23z"/>
<path d="M560 7056 c0 -2 11 -11 24 -19 22 -15 24 -15 29 3 4 17 0 20 -24 20
-16 0 -29 -2 -29 -4z"/>
<path d="M630 7051 c0 -5 -2 -16 -5 -23 -5 -13 75 -57 132 -73 28 -8 42 18 36
68 l-5 37 -79 0 c-43 0 -79 -4 -79 -9z"/>
<path d="M1194 7015 c-11 -31 -14 -49 -7 -56 7 -7 16 3 27 31 9 22 16 47 16
55 0 30 -19 14 -36 -30z"/>
<path d="M1432 7008 c2 -39 7 -53 18 -53 11 0 16 14 18 53 3 47 1 52 -18 52
-19 0 -21 -5 -18 -52z"/>
<path d="M1506 7023 c17 -94 55 -97 70 -5 5 35 4 42 -10 42 -9 0 -16 -7 -16
-15 0 -8 -4 -15 -10 -15 -5 0 -10 7 -10 15 0 8 -7 15 -15 15 -13 0 -15 -7 -9
-37z"/>
<path d="M1622 7008 c4 -67 22 -65 26 2 2 40 0 50 -13 50 -13 0 -15 -10 -13
-52z"/>
<path d="M1705 7039 c4 -13 13 -38 20 -56 15 -36 4 -59 -29 -65 -36 -6 -30
-28 8 -28 42 0 56 17 85 103 17 47 17 57 5 57 -7 0 -14 -4 -14 -8 0 -5 -6 -17
-14 -27 -13 -17 -14 -17 -27 10 -18 37 -44 47 -34 14z"/>
<path d="M3054 7052 c4 -6 25 -16 46 -22 28 -8 40 -16 40 -29 0 -35 -51 -36
-77 -2 -8 11 -15 13 -22 5 -8 -7 -7 -15 3 -29 19 -26 103 -26 122 0 20 27 17
42 -8 59 -30 19 -114 34 -104 18z"/>
<path d="M3215 7052 c6 -6 28 -17 49 -24 47 -15 55 -32 25 -48 -18 -10 -26 -8
-50 9 -29 22 -51 12 -29 -13 17 -21 59 -28 96 -16 28 10 34 16 34 40 0 35 -20
48 -87 56 -34 5 -45 3 -38 -4z"/>
<path d="M9970 7001 c0 -44 4 -60 16 -65 20 -8 1938 -8 1958 0 12 5 16 21 16
65 l0 59 -995 0 -995 0 0 -59z"/>
<path d="M1865 7020 c-8 -36 2 -73 18 -67 7 2 13 25 15 50 2 36 0 47 -12 47
-8 0 -17 -13 -21 -30z"/>
<path d="M2850 7035 c0 -36 29 -73 63 -79 36 -7 80 5 92 24 11 18 -4 25 -25
12 -38 -24 -90 -9 -90 25 0 9 16 13 54 13 30 0 58 5 61 10 4 6 -23 10 -74 10
-67 0 -81 -3 -81 -15z"/>
<path d="M1952 6998 c2 -30 8 -43 18 -43 10 0 16 13 18 43 3 37 1 42 -18 42
-19 0 -21 -5 -18 -42z"/>
<path d="M2124 7004 c-12 -27 -12 -39 -4 -48 8 -8 15 -6 26 8 8 11 14 26 14
33 0 9 16 13 55 13 44 0 57 -4 62 -17 12 -34 25 -44 39 -32 11 9 10 17 -3 45
l-17 34 -78 0 -79 0 -15 -36z"/>
<path d="M2340 7031 c0 -55 53 -91 100 -68 24 12 28 12 38 -2 10 -14 12 -14
21 -1 6 8 9 21 6 28 -3 8 -5 22 -5 33 0 30 -24 22 -37 -11 -8 -22 -18 -30 -35
-30 -29 0 -48 17 -48 42 0 11 -7 18 -20 18 -11 0 -20 -4 -20 -9z"/>
<path d="M2540 7010 c12 -42 16 -47 46 -54 17 -5 35 -1 50 8 21 14 24 14 32 0
15 -26 32 -6 32 37 0 47 -22 53 -42 12 -9 -19 -22 -29 -41 -31 -24 -3 -30 2
-40 27 -7 18 -19 31 -28 31 -15 0 -16 -5 -9 -30z"/>
<path d="M2742 6998 c2 -24 8 -43 13 -43 6 0 11 19 13 43 3 33 0 42 -13 42
-13 0 -16 -9 -13 -42z"/>
<path d="M1093 7007 c-42 -10 -43 -11 -43 -53 0 -66 6 -74 55 -74 24 0 47 4
50 10 7 12 -5 130 -14 129 -3 -1 -25 -6 -48 -12z"/>
<path d="M796 6962 c-12 -11 -5 -21 22 -31 27 -11 27 -11 -6 -6 -29 4 -41 -2
-98 -50 -35 -30 -70 -55 -77 -55 -6 0 -27 9 -46 21 -18 11 -35 18 -38 16 -2
-3 -26 19 -53 47 l-50 51 13 -35 c12 -35 19 -43 69 -81 24 -17 27 -18 21 -3
-4 12 -3 15 5 10 7 -4 12 -14 12 -23 0 -11 6 -14 25 -9 18 5 23 3 19 -7 -7
-18 80 -38 159 -35 57 1 58 2 15 5 -27 2 -48 9 -48 15 0 6 9 8 21 5 22 -6 49
12 49 32 0 6 -7 8 -15 5 -7 -3 1 10 19 29 47 50 51 73 16 91 -16 7 -31 11 -34
8z m-41 -142 c-27 -12 -43 -12 -25 0 8 5 22 9 30 9 10 0 8 -3 -5 -9z m-45 -11
c0 -5 -21 -9 -47 -8 -33 1 -41 3 -25 7 36 11 72 11 72 1z"/>
<path d="M3233 6875 c0 -22 2 -30 4 -17 2 12 2 30 0 40 -3 9 -5 -1 -4 -23z"/>
<path d="M979 6896 c-1 -3 -2 -10 -3 -15 -2 -16 -51 -49 -102 -70 l-49 -20 39
0 c54 -1 136 44 136 75 0 20 -18 45 -21 30z"/>
<path d="M3140 6871 c0 -11 4 -22 9 -25 4 -3 6 6 3 19 -5 30 -12 33 -12 6z"/>
<path d="M1070 6155 c0 -43 4 -75 10 -75 6 0 10 26 11 58 l1 57 20 -57 c11
-32 25 -58 32 -58 7 0 21 26 32 58 l19 57 3 -57 c4 -85 22 -71 22 17 0 66 -2
75 -18 75 -13 0 -23 -15 -36 -56 -20 -63 -27 -61 -46 9 -9 35 -17 47 -31 47
-17 0 -19 -8 -19 -75z"/>
<path d="M1250 6226 c0 -2 11 -24 25 -47 14 -24 25 -56 25 -71 0 -16 5 -28 10
-28 6 0 10 11 10 25 0 14 11 48 25 75 19 37 22 50 11 50 -7 0 -19 -13 -26 -30
-7 -16 -16 -30 -20 -30 -4 0 -13 14 -20 30 -7 17 -19 30 -26 30 -8 0 -14 -2
-14 -4z"/>
<path d="M1450 6155 c0 -60 3 -75 15 -75 12 0 15 15 15 75 0 60 -3 75 -15 75
-12 0 -15 -15 -15 -75z"/>
<path d="M1520 6155 c0 -60 3 -75 15 -75 9 0 15 9 15 25 0 18 5 25 19 25 25 0
51 26 51 50 0 29 -28 50 -66 50 l-34 0 0 -75z m54 49 c29 -11 14 -54 -20 -54
-2 0 -4 14 -4 30 0 32 1 33 24 24z"/>
<path d="M3720 6155 c0 -60 3 -75 15 -75 12 0 15 15 15 75 0 60 -3 75 -15 75
-12 0 -15 -15 -15 -75z"/>
<path d="M3790 6155 c0 -60 3 -75 15 -75 9 0 15 9 15 25 0 18 5 25 19 25 25 0
51 26 51 50 0 29 -28 50 -66 50 l-34 0 0 -75z m54 49 c29 -11 14 -54 -20 -54
-2 0 -4 14 -4 30 0 32 1 33 24 24z"/>
<path d="M3980 6155 l0 -75 40 0 c45 0 55 17 13 22 -27 3 -28 6 -31 66 -4 88
-22 78 -22 -13z"/>
<path d="M4110 6210 c-43 -43 -13 -130 45 -130 33 0 75 42 75 75 0 33 -42 75
-75 75 -14 0 -34 -9 -45 -20z m74 -16 c9 -8 16 -26 16 -39 0 -13 -7 -31 -16
-39 -18 -19 -20 -19 -45 -6 -25 14 -26 75 -1 89 23 14 28 14 46 -5z"/>
<path d="M4280 6212 c-48 -39 -17 -132 44 -132 42 0 66 27 66 75 0 34 -5 47
-22 59 -30 21 -61 20 -88 -2z m80 -57 c0 -46 -31 -64 -60 -35 -11 11 -20 27
-20 35 0 8 9 24 20 35 29 29 60 11 60 -35z"/>
<path d="M4430 6155 c0 -60 3 -75 15 -75 10 0 15 10 15 30 0 17 4 30 9 30 6 0
18 -13 28 -30 9 -16 23 -30 30 -30 18 0 17 6 -12 47 l-24 36 26 31 c17 21 21
32 13 34 -8 3 -26 -10 -41 -29 l-28 -34 -1 33 c0 22 -5 32 -15 32 -12 0 -15
-15 -15 -75z"/>
<path d="M4570 6172 c0 -64 18 -92 58 -92 40 0 62 34 62 95 0 42 -3 55 -15 55
-12 0 -15 -13 -15 -55 0 -42 -4 -56 -17 -63 -33 -17 -43 -3 -43 59 0 46 -3 59
-15 59 -12 0 -15 -13 -15 -58z"/>
<path d="M4730 6155 c0 -60 3 -75 15 -75 9 0 15 9 15 25 0 18 5 25 19 25 25 0
51 26 51 50 0 29 -28 50 -66 50 l-34 0 0 -75z m54 49 c29 -11 14 -54 -20 -54
-2 0 -4 14 -4 30 0 32 1 33 24 24z"/>
<path d="M6930 6155 c0 -60 3 -75 15 -75 10 0 15 10 15 30 0 27 3 30 30 30 27
0 30 -3 30 -30 0 -20 5 -30 15 -30 12 0 15 15 15 75 0 60 -3 75 -15 75 -10 0
-15 -11 -15 -35 0 -32 -2 -35 -30 -35 -28 0 -30 3 -30 35 0 24 -5 35 -15 35
-12 0 -15 -15 -15 -75z"/>
<path d="M7090 6155 c0 -60 3 -75 15 -75 12 0 15 15 15 75 0 60 -3 75 -15 75
-12 0 -15 -15 -15 -75z"/>
<path d="M7160 6155 l0 -75 35 0 c46 0 85 37 85 79 0 38 -40 71 -86 71 l-34 0
0 -75z m71 45 c12 -7 19 -21 19 -38 0 -34 -9 -47 -37 -56 -22 -7 -23 -5 -23
48 0 58 6 64 41 46z"/>
<path d="M7310 6155 l0 -75 45 0 c49 0 62 17 18 22 -20 2 -29 9 -31 26 -3 18
1 22 22 22 32 0 34 17 4 22 -33 4 -29 32 5 36 44 5 31 22 -18 22 l-45 0 0 -75z"/>
<path d="M7490 6155 c0 -43 4 -75 10 -75 6 0 10 26 11 58 l1 57 20 -57 c11
-32 25 -58 32 -58 7 0 21 26 32 58 l19 57 3 -57 c4 -85 22 -71 22 17 0 66 -2
75 -18 75 -13 0 -23 -15 -36 -56 -20 -63 -27 -61 -46 9 -9 35 -17 47 -31 47
-17 0 -19 -8 -19 -75z"/>
<path d="M7670 6226 c0 -2 11 -24 25 -47 14 -24 25 -56 25 -71 0 -16 5 -28 10
-28 6 0 10 11 10 25 0 14 11 48 25 75 19 37 22 50 11 50 -7 0 -19 -13 -26 -30
-7 -16 -16 -30 -20 -30 -4 0 -13 14 -20 30 -7 17 -19 30 -26 30 -8 0 -14 -2
-14 -4z"/>
<path d="M7870 6155 c0 -60 3 -75 15 -75 12 0 15 15 15 75 0 60 -3 75 -15 75
-12 0 -15 -15 -15 -75z"/>
<path d="M7940 6155 c0 -60 3 -75 15 -75 9 0 15 9 15 25 0 18 5 25 19 25 25 0
51 26 51 50 0 29 -28 50 -66 50 l-34 0 0 -75z m54 49 c29 -11 14 -54 -20 -54
-2 0 -4 14 -4 30 0 32 1 33 24 24z"/>
<path d="M10149 6155 c34 -97 50 -98 80 -4 12 39 20 73 18 76 -11 11 -25 -8
-37 -52 -7 -25 -16 -47 -20 -50 -4 -2 -14 20 -24 50 -9 30 -23 55 -30 55 -9 0
-6 -21 13 -75z"/>
<path d="M10280 6155 c0 -60 3 -75 15 -75 9 0 15 9 15 25 0 18 5 25 19 25 25
0 51 26 51 50 0 29 -28 50 -66 50 l-34 0 0 -75z m54 49 c29 -11 14 -54 -20
-54 -2 0 -4 14 -4 30 0 32 1 33 24 24z"/>
<path d="M10410 6155 c0 -88 18 -102 22 -17 l3 57 33 -57 c23 -39 40 -58 53
-58 17 0 19 8 19 75 0 62 -3 75 -16 75 -13 0 -15 -10 -12 -54 1 -30 0 -52 -4
-50 -4 3 -19 27 -34 54 -17 32 -34 50 -46 50 -16 0 -18 -9 -18 -75z"/>
<path d="M10586 6215 c-9 -9 -16 -21 -16 -26 0 -10 28 -38 56 -56 25 -15 4
-32 -32 -25 -33 6 -31 -16 3 -24 34 -9 57 6 61 39 3 20 -3 29 -27 42 -46 23
-40 41 13 35 11 -1 17 3 14 12 -7 19 -53 21 -72 3z"/>
<path d="M13020 6220 c0 -5 9 -10 20 -10 18 0 20 -7 20 -65 0 -51 3 -65 15
-65 12 0 15 14 15 65 0 58 2 65 20 65 11 0 20 5 20 10 0 6 -25 10 -55 10 -30
0 -55 -4 -55 -10z"/>
<path d="M13170 6210 c-43 -43 -13 -130 45 -130 33 0 75 42 75 75 0 33 -42 75
-75 75 -14 0 -34 -9 -45 -20z m74 -16 c9 -8 16 -26 16 -39 0 -13 -7 -31 -16
-39 -18 -19 -20 -19 -45 -6 -25 14 -26 75 -1 89 23 14 28 14 46 -5z"/>
<path d="M13340 6210 c-43 -43 -13 -130 44 -130 40 0 70 32 70 75 0 65 -70 99
-114 55z m88 -53 c4 -33 -32 -61 -60 -46 -24 13 -25 74 0 88 23 14 56 -9 60
-42z"/>
<path d="M13490 6155 l0 -75 45 0 c25 0 45 5 45 10 0 6 -13 10 -30 10 l-30 0
0 65 c0 51 -3 65 -15 65 -12 0 -15 -15 -15 -75z"/>
<path d="M13616 6215 c-9 -9 -16 -21 -16 -26 0 -10 28 -38 56 -56 25 -15 4
-32 -32 -25 -33 6 -31 -16 3 -24 34 -9 57 6 61 39 3 20 -3 29 -27 42 -46 23
-40 41 13 35 11 -1 17 3 14 12 -7 19 -53 21 -72 3z"/>
<path d="M16070 6155 l0 -75 40 0 c45 0 55 17 13 22 -27 3 -28 6 -31 66 -4 88
-22 78 -22 -13z"/>
<path d="M16180 6155 l0 -75 45 0 c49 0 62 17 18 22 -20 2 -29 9 -31 26 -3 18
1 22 22 22 32 0 34 17 4 22 -33 4 -29 32 5 36 44 5 31 22 -18 22 l-45 0 0 -75z"/>
<path d="M16309 6155 c-20 -60 -23 -75 -11 -75 7 0 16 9 19 20 4 14 14 20 35
20 21 0 31 -6 35 -20 3 -11 12 -20 20 -20 15 0 15 0 -17 95 -11 34 -23 51 -36
53 -15 2 -24 -11 -45 -73z m61 3 c0 -10 -6 -18 -14 -18 -21 0 -25 11 -14 40 7
20 11 22 18 10 5 -8 10 -23 10 -32z"/>
<path d="M16450 6155 c0 -43 4 -75 10 -75 6 0 10 14 10 30 0 18 5 30 13 30 7
0 21 -13 30 -30 10 -16 25 -30 33 -30 13 0 12 6 -6 34 -13 22 -17 37 -10 41 5
3 10 19 10 35 0 30 -14 40 -61 40 l-29 0 0 -75z m54 49 c21 -8 20 -30 -1 -38
-21 -8 -38 8 -30 28 7 18 9 18 31 10z"/>
<path d="M16590 6156 c0 -44 4 -76 10 -76 6 0 10 26 10 58 l1 57 35 -57 c50
-81 64 -77 64 17 0 43 -4 75 -10 75 -6 0 -10 -26 -10 -57 l0 -58 -33 55 c-18
30 -41 56 -50 58 -15 3 -17 -7 -17 -72z"/>
<path d="M10770 6195 c0 -11 34 -75 40 -75 6 0 40 64 40 75 0 3 -18 5 -40 5
-22 0 -40 -2 -40 -5z"/>
<path d="M13800 6195 c0 -11 34 -75 40 -75 6 0 40 64 40 75 0 3 -18 5 -40 5
-22 0 -40 -2 -40 -5z"/>
<path d="M16830 6195 c0 -11 34 -75 40 -75 6 0 40 64 40 75 0 3 -18 5 -40 5
-22 0 -40 -2 -40 -5z"/>
<path d="M30 2885 l0 -2885 610 0 610 0 0 95 0 95 44 0 c71 0 96 -41 57 -91
-18 -24 -18 -25 5 -61 15 -24 32 -38 45 -38 19 0 19 1 5 22 -20 29 -20 67 0
96 20 29 79 31 94 3 21 -41 13 -51 -40 -51 -34 0 -50 -4 -50 -13 0 -22 23 -37
57 -37 18 0 33 -5 33 -11 0 -6 8 -9 17 -7 18 3 36 55 22 64 -13 8 -11 48 3 62
14 14 108 16 108 2 0 -5 -5 -10 -11 -10 -6 0 -8 -7 -5 -16 9 -24 -11 -52 -39
-56 -38 -5 -35 -23 5 -26 19 -2 39 -8 44 -13 21 -19 26 -7 26 61 0 40 4 70 10
70 6 0 10 -30 10 -70 l0 -70 31 0 c29 0 30 1 15 22 -36 51 -8 118 49 118 57 0
85 -67 49 -118 -15 -21 -14 -22 15 -22 l31 0 0 69 0 69 53 -2 52 -1 3 -67 c3
-60 5 -68 22 -68 11 0 20 7 20 15 0 8 5 15 10 15 6 0 10 -7 10 -15 0 -13 42
-15 320 -15 l320 0 0 95 c0 78 3 95 15 95 12 0 15 -16 15 -85 l0 -85 40 0 c22
0 40 -4 40 -10 0 -5 5 -10 10 -10 6 0 10 30 10 70 0 56 3 70 15 70 12 0 15
-14 15 -70 0 -55 3 -70 15 -70 8 0 12 6 9 14 -4 11 3 13 35 9 32 -4 41 -2 41
9 0 9 -14 21 -30 28 -39 16 -53 42 -37 63 18 25 102 28 94 5 -2 -8 -16 -12
-34 -10 -47 5 -48 -15 -2 -38 36 -19 41 -25 37 -51 -4 -23 -1 -29 14 -29 16 0
18 10 18 100 0 82 3 100 15 100 10 0 15 -10 15 -31 0 -28 2 -31 25 -25 55 14
96 -70 59 -122 -15 -21 -14 -22 20 -22 l34 0 -15 30 c-16 34 -10 81 13 101 8
7 29 12 46 12 57 0 88 -70 52 -121 -15 -21 -14 -22 17 -22 27 0 30 2 19 15
-21 26 2 61 44 69 23 5 36 12 36 23 0 12 -7 14 -35 10 -25 -4 -35 -2 -35 7 0
17 47 27 77 15 21 -8 23 -15 23 -74 l0 -65 4979 0 4980 0 3 28 c2 15 8 27 13
27 6 0 11 -12 13 -27 3 -26 7 -28 47 -28 40 0 44 2 47 28 4 34 22 35 26 1 l3
-25 144 0 145 1 0 33 c0 17 5 32 10 32 6 0 10 -15 10 -34 l0 -34 86 2 c68 2
89 6 99 19 15 21 25 22 25 2 0 -8 6 -15 13 -16 6 0 67 -3 134 -5 l122 -4 3 27
c4 40 33 42 46 4 10 -27 16 -31 49 -31 34 0 40 4 50 30 15 39 43 40 43 2 l0
-28 120 -2 120 -2 0 30 c0 17 5 30 10 30 6 0 10 -13 10 -30 0 -25 4 -30 25
-30 21 0 25 5 25 30 0 27 3 30 29 30 44 0 82 -18 88 -40 4 -17 14 -20 54 -20
48 0 49 1 49 30 0 17 5 30 10 30 6 0 10 -13 10 -29 l0 -30 260 3 c242 3 262 4
275 22 12 16 14 17 15 3 0 -10 11 -19 28 -22 15 -2 404 -5 865 -6 836 -2 839
-2 844 19 8 28 78 29 86 1 4 -19 18 -19 311 -21 l306 -1 0 71 c0 40 -4 70 -10
70 -7 0 -10 945 -10 2815 l0 2815 -9000 0 -9000 0 0 -2885z m2210 2226 c0 -89
-2 -100 -17 -99 -10 1 -28 -2 -40 -6 -17 -5 -29 -1 -48 18 -48 48 -21 130 43
128 29 -1 32 2 32 29 0 19 5 29 15 29 12 0 15 -18 15 -99z m160 0 l0 -99 -37
-5 c-64 -7 -93 15 -93 75 0 45 38 81 76 72 21 -6 24 -3 24 25 0 21 5 31 15 31
12 0 15 -18 15 -99z m-1090 27 c12 -35 26 -67 30 -71 4 -4 18 23 32 60 19 52
30 69 46 71 21 3 22 0 22 -92 0 -79 -3 -96 -15 -96 -12 0 -15 14 -16 68 l0 67
-27 -68 c-17 -42 -32 -66 -41 -65 -7 2 -26 35 -42 73 l-28 70 0 -72 c-1 -42
-5 -73 -11 -73 -6 0 -10 38 -10 95 0 86 2 95 19 95 13 0 24 -16 41 -62z m390
-33 c0 -78 -3 -95 -15 -95 -12 0 -15 17 -15 95 0 78 3 95 15 95 12 0 15 -17
15 -95z m150 75 c11 -11 20 -29 20 -40 0 -29 -36 -60 -70 -60 -28 0 -30 -3
-30 -35 0 -24 -5 -35 -15 -35 -12 0 -15 17 -15 95 l0 95 45 0 c32 0 51 -6 65
-20z m203 -22 c8 -24 24 -67 36 -95 17 -45 18 -53 6 -53 -9 0 -21 11 -27 25
-9 20 -18 25 -49 25 -31 0 -38 -4 -43 -25 -4 -14 -13 -25 -21 -25 -19 0 -20
-3 13 82 16 40 32 81 35 91 11 30 35 18 50 -25z m967 27 c0 -8 -7 -15 -15 -15
-8 0 -15 7 -15 15 0 8 7 15 15 15 8 0 15 -7 15 -15z m-502 -43 c2 -7 -5 -12
-17 -12 -26 0 -41 -28 -41 -79 0 -30 -4 -41 -15 -41 -12 0 -15 15 -15 71 0 65
2 71 19 66 10 -2 25 -1 32 4 17 11 31 7 37 -9z m120 -5 c6 -5 12 -22 12 -38 0
-28 -2 -29 -45 -29 -25 0 -45 -4 -45 -9 0 -18 31 -33 60 -29 37 6 41 -17 5
-26 -58 -15 -110 44 -89 101 16 46 63 60 102 30z m123 13 c5 0 9 -6 9 -14 0
-11 -9 -13 -35 -9 -48 8 -48 -21 0 -37 34 -11 53 -40 40 -61 -11 -17 -54 -30
-81 -23 -37 9 -29 29 13 29 49 0 51 16 5 40 -23 13 -37 27 -37 40 0 21 42 48
63 40 8 -3 18 -5 23 -5z m125 0 c7 0 11 -6 8 -13 -3 -8 -16 -12 -33 -9 -45 6
-46 -15 -1 -38 47 -24 52 -51 15 -76 -28 -18 -85 -11 -85 11 0 10 11 12 40 8
53 -7 54 15 2 42 -23 13 -37 27 -37 40 0 21 42 48 63 40 8 -3 20 -5 28 -5z
m250 0 c7 0 11 -6 8 -13 -3 -8 -16 -12 -33 -9 -45 6 -46 -15 -1 -38 47 -24 52
-51 15 -76 -28 -18 -85 -11 -85 11 0 10 11 12 40 8 53 -7 54 15 2 42 -23 13
-37 27 -37 40 0 21 42 48 63 40 8 -3 20 -5 28 -5z m-1642 -32 c7 -18 16 -42
21 -53 6 -17 10 -11 25 30 10 29 24 51 33 53 15 3 13 -9 -13 -78 -16 -45 -34
-90 -40 -100 -11 -21 -44 -35 -60 -25 -17 10 -11 25 10 25 39 0 42 33 10 109
-23 57 -26 71 -14 71 8 0 21 -15 28 -32z m1526 -38 c0 -56 -3 -70 -15 -70 -12
0 -15 14 -15 70 0 56 3 70 15 70 12 0 15 -14 15 -70z m190 55 c0 -8 -9 -15
-20 -15 -11 0 -20 7 -20 15 0 8 9 15 20 15 11 0 20 -7 20 -15z m-2 -112 c-2
-10 -10 -18 -18 -18 -8 0 -16 8 -18 18 -2 12 3 17 18 17 15 0 20 -5 18 -17z
m12999 -110 c32 -40 57 -109 54 -150 -2 -23 3 -67 10 -98 9 -42 10 -58 1 -67
-15 -15 -16 -63 -2 -88 7 -13 5 -29 -6 -55 -15 -38 -12 -68 12 -96 12 -13 11
-19 -11 -39 -14 -13 -25 -29 -25 -37 0 -7 -7 -14 -15 -14 -40 -4 -81 -28 -94
-55 -12 -28 3 -84 24 -84 16 0 61 -52 70 -79 3 -10 -1 -38 -10 -62 -8 -24 -15
-54 -15 -66 0 -12 -10 -29 -21 -37 -13 -9 -25 -32 -30 -62 -5 -27 -13 -52 -19
-58 -5 -5 -85 -11 -177 -12 -101 -2 -169 -8 -171 -14 -12 -34 63 -138 130
-182 23 -15 25 -22 20 -68 -4 -42 -1 -55 16 -73 11 -12 22 -38 24 -57 2 -26
11 -40 38 -58 21 -14 35 -31 35 -45 0 -19 6 -22 43 -23 48 -1 82 -26 82 -60 0
-12 -16 -45 -35 -74 -19 -29 -34 -59 -33 -68 2 -8 -9 -22 -23 -31 -58 -35
-109 -77 -115 -94 -3 -10 -6 -39 -6 -65 0 -26 -3 -51 -8 -57 -4 -5 -16 -36
-25 -68 l-16 -57 30 -31 c39 -38 89 -110 116 -164 18 -36 24 -40 55 -39 19 0
43 4 53 8 21 10 23 -17 3 -55 -7 -14 -16 -37 -20 -52 -7 -29 -17 -33 -46 -17
-16 9 -24 6 -42 -15 -14 -16 -32 -25 -50 -25 -16 0 -30 -6 -32 -12 -33 -110
-41 -127 -87 -175 -33 -35 -49 -60 -49 -78 0 -14 -11 -43 -25 -63 -31 -45 -31
-49 -1 -93 23 -34 34 -91 40 -207 3 -49 20 -75 29 -43 3 12 2 23 -2 25 -4 3
-8 29 -10 58 -3 73 -18 133 -43 177 l-22 38 22 30 c12 16 26 50 31 74 7 32 20
52 49 76 31 26 45 48 62 102 21 62 26 70 53 75 17 3 37 12 45 19 9 6 31 12 50
12 34 0 34 0 63 85 16 47 29 86 29 86 0 3 -65 -5 -96 -11 -29 -6 -33 -4 -43
27 -6 18 -38 69 -71 112 -66 87 -71 110 -41 169 13 26 19 57 18 93 -1 53 1 57
38 90 22 19 54 41 71 49 31 14 74 65 54 65 -5 0 5 27 23 60 l32 59 -20 38
c-18 35 -24 38 -67 41 -43 3 -48 5 -48 27 0 19 -9 28 -35 39 -32 14 -35 19
-33 50 1 26 -5 42 -21 60 -21 22 -23 32 -18 76 6 47 4 51 -21 67 -62 40 -132
125 -132 161 0 4 75 8 166 9 104 2 171 6 180 13 7 7 16 33 20 58 4 30 15 55
30 69 13 12 24 33 24 46 0 13 7 44 16 70 16 46 15 48 -11 93 -14 25 -37 50
-50 56 -13 6 -25 18 -28 28 -8 30 24 70 59 76 31 5 54 16 54 27 0 6 12 24 27
39 23 24 25 31 15 46 -33 46 -36 61 -19 98 11 22 14 41 9 52 -5 9 -8 84 -7
165 1 81 -2 150 -7 153 -5 3 -16 23 -25 45 -8 21 -19 39 -24 39 -5 0 -9 5 -9
10 0 7 158 10 455 10 l455 0 0 -2025 0 -2025 -2430 0 -2430 0 0 2025 0 2025
1961 0 c1856 0 1963 -1 1976 -17z m-14917 -553 c0 -113 -1 -120 -20 -120 -19
0 -20 7 -20 120 0 113 1 120 20 120 19 0 20 -7 20 -120z m194 101 c16 -14 22
-77 8 -97 -12 -19 -49 -34 -81 -34 -30 0 -31 -1 -31 -45 0 -33 -4 -45 -15 -45
-13 0 -15 20 -15 121 l0 121 59 -4 c33 -2 66 -10 75 -17z m346 -61 c0 -73 2
-80 20 -80 11 0 20 -7 20 -15 0 -8 -9 -15 -20 -15 -15 0 -20 -7 -20 -25 0 -16
-6 -25 -15 -25 -9 0 -15 9 -15 25 0 24 -3 25 -60 25 -36 0 -60 4 -60 11 0 23
115 178 133 179 15 0 17 -10 17 -80z m800 -40 l0 -120 -30 0 -30 0 0 85 c0 82
-1 85 -19 75 -26 -13 -28 -13 -35 7 -9 23 49 72 87 73 l27 0 0 -120z m197 98
c28 -31 36 -75 24 -129 -13 -60 -49 -89 -107 -89 -40 0 -44 2 -44 24 0 19 4
22 25 18 25 -4 75 20 75 37 0 4 -11 6 -25 3 -57 -11 -95 23 -95 84 0 64 102
100 147 52z m193 2 c25 -25 26 -54 1 -79 -18 -18 -18 -18 0 -30 28 -17 25 -75
-3 -95 -22 -16 -102 -22 -132 -10 -9 3 -16 17 -16 30 0 28 0 27 36 13 38 -14
74 -4 74 21 0 14 -9 21 -35 26 -25 4 -35 11 -35 25 0 12 7 19 19 19 32 0 51
11 51 30 0 23 -24 32 -54 20 -25 -9 -46 3 -46 26 0 17 17 22 73 23 34 1 52 -4
67 -19z m270 -100 l0 -120 -30 0 -30 0 0 85 c0 82 -1 85 -19 75 -26 -13 -28
-13 -35 7 -9 23 49 72 87 73 l27 0 0 -120z m202 103 c22 -20 24 -66 3 -83 -14
-12 -13 -16 6 -36 15 -17 20 -30 15 -48 -10 -40 -46 -58 -108 -54 -49 3 -53 5
-56 30 -3 26 -2 26 32 17 36 -10 76 1 76 21 0 13 -34 30 -59 30 -14 0 -21 6
-21 20 0 13 7 20 19 20 33 0 51 11 51 31 0 26 -23 34 -51 19 -19 -11 -25 -10
-36 6 -12 16 -11 21 4 31 25 19 103 16 125 -4z m218 3 c0 -8 -20 -61 -44 -118
-42 -96 -46 -103 -75 -106 -17 -2 -31 -1 -31 1 0 3 18 44 40 92 22 48 40 89
40 91 0 2 -25 4 -55 4 -52 0 -55 1 -55 25 0 25 1 25 90 25 71 0 90 -3 90 -14z
m280 -4 c0 -11 -19 -63 -43 -118 -41 -93 -45 -99 -75 -102 l-32 -3 34 75 c55
120 55 114 -6 118 -46 3 -53 6 -56 26 -3 21 -1 22 87 22 82 0 91 -2 91 -18z
m170 -6 c0 -22 -5 -25 -42 -28 -31 -2 -44 -8 -46 -20 -3 -14 4 -18 32 -18 70
0 99 -88 44 -133 -16 -14 -35 -17 -77 -15 -53 3 -56 5 -59 31 -2 15 -2 27 0
27 2 0 18 -4 37 -10 22 -6 40 -6 52 1 41 22 9 60 -47 56 l-29 -2 -3 68 -3 67
71 0 c68 0 70 -1 70 -24z m260 -96 l0 -120 -30 0 -30 0 0 86 c0 77 -2 85 -16
74 -12 -11 -18 -10 -32 3 -15 16 -14 19 18 47 20 16 47 29 63 30 l27 0 0 -120z
m202 103 c22 -20 24 -66 3 -83 -14 -12 -13 -15 5 -35 46 -49 10 -105 -67 -105
-29 0 -53 6 -65 17 -25 22 -24 79 1 95 19 12 19 12 0 36 -24 31 -24 47 1 72
25 25 95 27 122 3z m198 -58 c0 -60 3 -75 15 -75 8 0 15 -9 15 -20 0 -11 -7
-20 -15 -20 -9 0 -15 -9 -15 -25 0 -21 -5 -25 -30 -25 -25 0 -30 4 -30 25 0
23 -3 25 -50 25 -65 0 -65 11 1 112 45 67 55 78 80 78 l29 0 0 -75z m-2569 15
c26 -14 24 -49 -6 -82 -40 -46 -63 -33 -25 15 28 35 25 47 -10 47 -46 0 -36
22 13 29 5 0 17 -4 28 -9z m-680 -65 c12 -36 26 -62 29 -58 4 5 16 32 26 62
18 50 37 72 51 57 3 -3 -9 -44 -27 -91 -24 -63 -38 -85 -51 -85 -22 0 -22 0
-58 99 -28 75 -29 81 -12 81 14 0 25 -16 42 -65z m364 55 c9 -15 -14 -40 -31
-33 -22 8 -18 43 5 43 11 0 23 -5 26 -10z m295 -131 c0 -24 -23 -21 -28 4 -2
10 3 17 12 17 10 0 16 -9 16 -21z m898 -11 c3 -24 0 -28 -23 -28 -27 0 -41 20
-31 46 10 27 51 13 54 -18z m660 0 c3 -24 0 -28 -23 -28 -27 0 -41 20 -31 46
10 27 51 13 54 -18z m470 -1 c3 -26 1 -28 -25 -25 -31 3 -44 35 -21 49 23 15
43 5 46 -24z m-2320 -10 c4 -20 -25 -34 -40 -19 -15 15 -1 44 19 40 10 -2 19
-11 21 -21z m2912 -52 c0 -13 -138 -15 -1180 -15 -1042 0 -1180 2 -1180 15 0
13 138 15 1180 15 1042 0 1180 -2 1180 -15z m-1470 -710 l0 -125 -25 0 c-14 0
-25 5 -25 12 0 9 -3 9 -12 0 -7 -7 -27 -12 -44 -12 -66 0 -99 96 -53 155 18
22 28 26 60 23 l39 -4 0 38 c0 36 2 38 30 38 l30 0 0 -125z m1250 0 l0 -125
-25 0 c-14 0 -25 5 -25 12 0 9 -3 9 -12 0 -7 -7 -27 -12 -44 -12 -66 0 -99 96
-53 155 18 22 28 26 60 23 l39 -4 0 38 c0 36 2 38 30 38 l30 0 0 -125z m-3340
-5 c0 -113 -1 -120 -20 -120 -19 0 -20 7 -20 120 0 113 1 120 20 120 19 0 20
-7 20 -120z m194 101 c16 -14 22 -77 8 -97 -12 -19 -49 -34 -81 -34 -30 0 -31
-1 -31 -45 0 -33 -4 -45 -15 -45 -13 0 -15 20 -15 121 l0 121 59 -4 c33 -2 66
-10 75 -17z m356 4 c0 -10 -10 -15 -33 -15 -37 0 -60 -20 -72 -60 -6 -20 -5
-23 6 -12 23 22 75 15 98 -14 24 -30 26 -52 10 -88 -26 -55 -110 -55 -140 0
-28 54 -6 167 38 193 29 17 93 14 93 -4z m793 -67 l47 -83 0 83 c0 81 0 82 25
82 l25 0 0 -120 0 -120 -35 0 c-32 0 -37 4 -79 78 l-46 77 0 -77 0 -78 -30 0
-30 0 0 120 0 120 38 0 c37 0 39 -2 85 -82z m407 42 c0 -15 7 -20 25 -20 18 0
25 -5 25 -20 0 -15 -7 -20 -25 -20 -22 0 -25 -4 -25 -37 0 -50 12 -67 40 -58
19 6 21 4 18 -17 -2 -19 -10 -24 -41 -26 -55 -5 -67 10 -67 79 0 46 -3 59 -15
59 -22 0 -18 23 5 38 11 7 20 19 20 27 0 8 9 15 20 15 13 0 20 -7 20 -20z
m640 0 c0 -15 7 -20 25 -20 18 0 25 -5 25 -20 0 -15 -7 -20 -26 -20 -24 0 -25
-2 -22 -47 3 -43 5 -48 26 -46 17 2 22 -2 22 -22 0 -23 -4 -25 -45 -25 -54 0
-65 16 -65 89 0 28 -4 51 -10 51 -15 0 -12 28 3 37 8 4 16 16 20 26 9 24 47
22 47 -3z m500 0 c0 -15 7 -20 25 -20 18 0 25 -5 25 -20 0 -15 -7 -20 -25 -20
-22 0 -25 -4 -25 -37 0 -50 12 -67 40 -58 19 6 21 4 18 -17 -2 -19 -10 -24
-41 -26 -55 -5 -67 10 -67 79 0 46 -3 59 -15 59 -22 0 -18 23 5 38 11 7 20 19
20 27 0 8 9 15 20 15 13 0 20 -7 20 -20z m-1929 -20 c26 -14 24 -49 -6 -82
-40 -46 -63 -33 -25 15 28 35 25 47 -10 47 -46 0 -36 22 13 29 5 0 17 -4 28
-9z m-680 -65 c12 -36 26 -62 29 -58 4 5 16 32 26 62 18 50 37 72 51 57 3 -3
-9 -44 -27 -91 -24 -63 -38 -85 -51 -85 -22 0 -22 0 -58 99 -28 75 -29 81 -12
81 14 0 25 -16 42 -65z m364 55 c9 -15 -14 -40 -31 -33 -22 8 -18 43 5 43 11
0 23 -5 26 -10z m986 -9 c20 -16 24 -29 24 -71 0 -42 -4 -55 -24 -71 -33 -27
-98 -25 -128 3 -32 30 -32 102 -1 135 28 30 95 32 129 4z m639 -1 c11 -11 20
-33 20 -50 0 -30 -1 -30 -55 -30 -56 0 -67 -8 -40 -30 9 -8 28 -10 51 -6 33 7
35 6 32 -16 -3 -20 -9 -23 -55 -26 -45 -3 -56 1 -78 22 -35 35 -35 97 0 131
31 32 96 34 125 5z m337 -2 c13 -13 23 -33 23 -50 0 -28 -1 -28 -60 -28 -59 0
-60 -1 -49 -21 10 -19 17 -21 56 -15 42 5 44 4 41 -17 -3 -19 -10 -22 -54 -25
-72 -4 -104 22 -104 86 0 61 28 92 84 92 27 0 47 -7 63 -22z m188 -3 c0 -16
-6 -20 -29 -18 -38 3 -56 -12 -56 -47 0 -40 22 -55 60 -41 30 10 31 10 28 -17
-3 -25 -7 -27 -54 -30 -46 -3 -54 0 -74 25 -29 37 -23 108 11 136 32 26 114
21 114 -8z m322 3 c13 -13 23 -33 23 -50 0 -28 -1 -28 -60 -28 -59 0 -60 -1
-49 -21 10 -19 17 -21 56 -15 42 5 44 4 41 -17 -3 -19 -10 -22 -54 -25 -72 -4
-104 22 -104 86 0 61 28 92 84 92 27 0 47 -7 63 -22z m-2177 -119 c0 -24 -23
-21 -28 4 -2 10 3 17 12 17 10 0 16 -9 16 -21z m-292 -22 c4 -20 -25 -34 -40
-19 -15 15 -1 44 19 40 10 -2 19 -11 21 -21z m332 -1026 c0 -5 -10 -11 -22
-13 -30 -4 -37 -38 -9 -38 12 0 21 -4 21 -10 0 -5 -9 -10 -20 -10 -18 0 -20
-7 -20 -60 0 -47 -3 -60 -15 -60 -12 0 -15 13 -15 59 0 38 -4 61 -12 64 -9 4
-10 8 -3 14 6 4 16 20 22 36 10 21 19 27 43 27 16 0 30 -4 30 -9z m5560 -91
c0 -82 -3 -100 -15 -100 -12 0 -15 18 -15 100 0 82 3 100 15 100 12 0 15 -18
15 -100z m1580 65 c0 -32 2 -34 23 -26 16 6 32 5 48 -3 20 -9 25 -20 27 -62 3
-58 -10 -76 -55 -75 -16 0 -38 0 -50 1 -22 0 -23 3 -23 100 0 82 3 100 15 100
10 0 15 -11 15 -35z m1310 -64 c0 -89 -2 -100 -17 -99 -10 1 -28 -2 -40 -6
-17 -5 -29 -1 -48 18 -48 48 -21 130 43 128 29 -1 32 2 32 29 0 19 5 29 15 29
12 0 15 -18 15 -99z m-9410 27 c12 -35 26 -67 30 -71 4 -4 18 23 32 60 19 52
30 69 46 71 21 3 22 0 22 -92 0 -79 -3 -96 -15 -96 -12 0 -15 14 -16 68 l0 67
-27 -68 c-17 -42 -32 -66 -41 -65 -7 2 -26 35 -42 73 l-28 70 0 -72 c-1 -42
-5 -73 -11 -73 -6 0 -10 38 -10 95 0 86 2 95 19 95 13 0 24 -16 41 -62z m390
-33 c0 -78 -3 -95 -15 -95 -12 0 -15 17 -15 95 0 78 3 95 15 95 12 0 15 -17
15 -95z m150 75 c11 -11 20 -29 20 -40 0 -29 -36 -60 -70 -60 -28 0 -30 -3
-30 -35 0 -24 -5 -35 -15 -35 -12 0 -15 17 -15 95 l0 95 45 0 c32 0 51 -6 65
-20z m140 -75 c0 -78 -3 -95 -15 -95 -12 0 -15 17 -15 95 0 78 3 95 15 95 12
0 15 -17 15 -95z m1040 80 c0 -8 -7 -15 -15 -15 -8 0 -15 7 -15 15 0 8 7 15
15 15 8 0 15 -7 15 -15z m4175 -25 c10 -22 21 -40 25 -40 3 0 16 18 29 40 12
22 29 40 37 40 12 0 8 -13 -15 -57 -19 -35 -31 -71 -31 -95 0 -27 -4 -38 -15
-38 -10 0 -15 10 -15 30 0 17 -13 57 -30 90 -34 68 -35 70 -17 70 8 0 22 -18
32 -40z m1195 25 c0 -8 -7 -15 -15 -15 -8 0 -15 7 -15 15 0 8 7 15 15 15 8 0
15 -7 15 -15z m2383 -52 c-5 -66 -9 -81 -17 -72 -2 2 -7 34 -11 72 -6 62 -5
67 13 67 18 0 19 -5 15 -67z m-7843 31 c0 -8 9 -14 20 -14 11 0 20 -4 20 -10
0 -5 -9 -10 -20 -10 -17 0 -20 -7 -20 -50 0 -43 3 -50 20 -50 11 0 20 -4 20
-9 0 -15 -30 -21 -51 -11 -15 9 -19 22 -19 65 0 33 -5 55 -12 57 -9 3 -8 9 5
22 9 10 17 22 17 27 0 6 5 7 10 4 6 -3 10 -13 10 -21z m5370 1 c0 -8 9 -15 20
-15 11 0 20 -4 20 -10 0 -5 -9 -10 -20 -10 -17 0 -20 -7 -20 -50 0 -44 3 -50
21 -50 24 0 21 -23 -3 -28 -28 -5 -48 27 -48 78 0 28 -5 50 -12 52 -7 3 -5 12
8 26 22 26 34 28 34 7z m-6186 -15 c24 -9 26 -14 26 -75 0 -51 -3 -65 -15 -65
-12 0 -15 13 -15 61 0 60 0 60 -27 57 -27 -3 -28 -6 -31 -60 -2 -43 -7 -58
-17 -58 -12 0 -15 16 -15 71 0 53 3 70 13 66 6 -2 21 -1 32 4 11 4 21 8 22 8
1 1 13 -3 27 -9z m261 -23 c29 -41 13 -101 -31 -117 -34 -13 -69 3 -84 40 -33
79 67 145 115 77z m125 12 c0 -5 -9 -9 -20 -9 -25 0 -40 -29 -40 -79 0 -30 -4
-41 -15 -41 -12 0 -15 14 -15 69 l0 70 30 -1 c17 -1 33 2 37 5 7 8 23 -1 23
-14z m153 10 c12 5 32 5 45 0 20 -7 22 -15 22 -74 0 -51 -3 -65 -15 -65 -12 0
-15 13 -15 61 0 57 -1 60 -22 57 -20 -3 -23 -10 -26 -60 -2 -43 -7 -58 -17
-58 -11 0 -15 13 -15 48 0 55 -10 75 -36 70 -16 -3 -20 -14 -22 -61 -2 -42 -7
-57 -17 -57 -12 0 -15 16 -15 71 0 53 3 70 13 66 6 -2 21 -1 32 3 11 4 30 4
43 -1 12 -5 32 -5 45 0z m205 -17 c6 -9 12 -40 12 -70 0 -45 -3 -53 -17 -51
-10 2 -28 -1 -40 -5 -31 -10 -63 10 -63 38 0 29 17 44 59 52 40 8 35 29 -7 30
-37 0 -43 16 -10 25 28 7 49 1 66 -19z m307 -5 c29 -41 13 -101 -31 -117 -34
-13 -69 3 -84 40 -33 79 67 145 115 77z m143 17 c19 -13 22 -24 22 -75 0 -45
-3 -59 -15 -59 -10 0 -15 15 -17 58 -3 53 -5 57 -28 57 -23 0 -25 -4 -28 -57
-2 -43 -7 -58 -17 -58 -12 0 -15 16 -15 71 0 53 3 70 13 66 6 -2 21 -1 32 4
28 11 28 11 53 -7z m92 -10 c0 -8 -9 -14 -20 -14 -19 0 -27 19 -14 33 10 9 34
-4 34 -19z m4020 0 c20 -20 19 -89 -2 -111 -25 -24 -77 -21 -100 6 -59 74 34
169 102 105z m286 8 c-3 -3 -16 -10 -28 -16 -19 -9 -24 -21 -26 -64 -2 -37 -7
-52 -18 -52 -11 0 -14 16 -14 71 0 62 2 70 18 65 9 -3 23 -2 31 3 14 9 46 3
37 -7z m259 -15 c29 -41 13 -101 -31 -117 -34 -13 -69 3 -84 40 -33 79 67 145
115 77z m144 17 c10 -8 -12 -21 -29 -17 -27 7 -50 -14 -50 -46 0 -35 17 -51
52 -51 36 0 36 -16 1 -25 -79 -19 -116 115 -40 145 19 7 54 4 66 -6z m119 -7
c7 -6 12 -33 12 -69 0 -54 -2 -60 -19 -55 -10 2 -25 0 -34 -4 -26 -15 -67 7
-67 35 0 29 14 41 58 51 41 9 36 30 -6 30 -37 0 -44 22 -9 27 25 4 46 -1 65
-15z m307 -7 c11 -12 15 -31 13 -56 -8 -96 -128 -92 -128 4 0 45 8 58 40 70
30 11 54 5 75 -18z m139 20 c24 -9 26 -14 26 -75 0 -51 -3 -65 -15 -65 -12 0
-15 13 -15 61 0 60 0 60 -27 57 -27 -3 -28 -6 -31 -60 -2 -43 -7 -58 -17 -58
-12 0 -15 16 -15 71 0 53 3 70 13 66 6 -2 21 -1 32 4 11 4 21 8 22 8 1 1 13
-3 27 -9z m239 -2 c9 1 29 2 44 3 37 2 53 -25 53 -88 0 -40 -4 -53 -15 -53
-10 0 -15 15 -17 58 -3 53 -5 57 -28 57 -23 0 -25 -4 -28 -57 -2 -42 -7 -58
-17 -58 -10 0 -15 16 -17 57 -2 47 -6 58 -22 61 -26 5 -36 -15 -36 -70 0 -36
-4 -48 -15 -48 -12 0 -15 15 -15 71 0 65 2 71 19 66 10 -2 25 -1 32 4 8 5 21
6 29 2 8 -3 23 -5 33 -5z m225 -16 c6 -9 12 -40 12 -70 0 -45 -3 -53 -17 -51
-10 2 -28 -1 -40 -5 -31 -10 -63 10 -63 38 0 29 17 44 59 52 40 8 35 29 -7 30
-37 0 -43 16 -10 25 28 7 49 1 66 -19z m499 -8 c24 -37 11 -54 -42 -54 -25 0
-45 -4 -45 -9 0 -18 31 -33 60 -29 37 6 41 -17 5 -26 -35 -9 -78 13 -89 47
-28 78 66 139 111 71z m210 0 c24 -37 11 -54 -42 -54 -25 0 -45 -4 -45 -9 0
-18 31 -33 60 -29 37 6 41 -17 5 -26 -35 -9 -78 13 -89 47 -28 78 66 139 111
71z m283 11 c6 -8 10 -35 8 -62 -3 -41 -7 -50 -30 -61 -21 -10 -33 -10 -48 -2
-19 10 -20 8 -20 -30 0 -29 -4 -40 -12 -38 -9 3 -14 36 -16 106 l-3 101 31 -1
c17 -1 33 1 36 4 8 9 42 -2 54 -17z m155 -8 c29 -41 13 -101 -31 -117 -34 -13
-69 3 -84 40 -33 79 67 145 115 77z m122 23 c8 0 13 -6 10 -12 -2 -8 -16 -12
-34 -10 -47 5 -49 -15 -3 -38 31 -16 40 -26 40 -45 0 -30 -40 -50 -77 -38 -37
13 -32 28 10 25 29 -3 37 0 37 13 0 9 -13 21 -30 27 -38 13 -54 39 -37 60 15
19 37 28 55 22 8 -2 20 -4 29 -4z m141 -13 c6 -5 12 -22 12 -38 0 -28 -2 -29
-45 -29 -25 0 -45 -4 -45 -9 0 -18 31 -33 60 -29 37 6 41 -17 5 -26 -58 -15
-110 44 -89 101 16 46 63 60 102 30z m-9064 -19 c7 -18 16 -42 21 -53 6 -17
10 -11 25 30 10 29 24 51 33 53 15 3 13 -9 -13 -78 -16 -45 -34 -90 -40 -100
-11 -21 -44 -35 -60 -25 -17 10 -11 25 10 25 39 0 42 33 10 109 -23 57 -26 71
-14 71 8 0 21 -15 28 -32z m1536 -38 c0 -56 -3 -70 -15 -70 -12 0 -15 14 -15
70 0 56 3 70 15 70 12 0 15 -14 15 -70z m4472 13 c3 -51 6 -58 25 -61 27 -4
43 28 43 84 0 19 5 34 10 34 6 0 10 -30 10 -70 0 -51 -3 -70 -12 -68 -7 1 -23
-2 -36 -6 -15 -5 -31 -2 -47 8 -22 14 -25 24 -25 76 0 46 3 60 15 60 10 0 15
-15 17 -57z m898 -13 c0 -56 -3 -70 -15 -70 -12 0 -15 14 -15 70 0 56 3 70 15
70 12 0 15 -14 15 -70z m817 18 l20 -52 18 52 c11 29 25 52 32 52 18 0 17 -3
-19 -98 -30 -82 -64 -122 -88 -107 -17 10 -11 25 10 25 31 0 33 38 5 107 -29
73 -29 73 -11 73 7 0 22 -23 33 -52z m708 30 l16 -23 16 23 c8 12 22 22 29 22
19 0 18 -7 -7 -41 l-20 -29 27 -35 c24 -32 24 -35 8 -35 -11 0 -27 12 -35 27
l-17 26 -17 -26 c-9 -15 -24 -27 -32 -27 -12 0 -10 7 7 35 l22 35 -22 35 c-18
29 -19 35 -6 35 8 0 22 -10 31 -22z m-6520 -108 c0 -22 -29 -18 -33 3 -3 14 1
18 15 15 10 -2 18 -10 18 -18z m7383 3 c-2 -10 -10 -18 -18 -18 -8 0 -16 8
-18 18 -2 12 3 17 18 17 15 0 20 -5 18 -17z m-7538 -873 c0 -75 -3 -100 -12
-98 -7 1 -23 -2 -36 -6 -51 -17 -95 49 -73 107 12 32 54 51 80 38 15 -8 16 -5
13 25 -3 26 -1 34 12 34 14 0 16 -15 16 -100z m-1980 -5 c0 -57 -4 -95 -10
-95 -6 0 -10 38 -10 95 0 57 4 95 10 95 6 0 10 -38 10 -95z m145 85 c4 -6 -11
-10 -38 -10 -72 0 -72 -38 -1 -69 37 -17 44 -24 44 -48 0 -41 -17 -53 -72 -53
-62 0 -63 18 0 22 40 3 47 6 50 25 3 18 -5 26 -38 39 -57 23 -75 58 -44 88 17
18 89 22 99 6z m136 0 c23 -13 26 -62 3 -84 -8 -9 -31 -16 -50 -16 -33 0 -34
-1 -34 -40 0 -22 -4 -40 -10 -40 -6 0 -10 38 -10 95 l0 95 41 0 c22 0 49 -5
60 -10z m1249 -5 c0 -11 -11 -15 -40 -15 -38 0 -40 -2 -40 -30 0 -28 2 -30 40
-30 22 0 40 -4 40 -10 0 -5 -18 -10 -40 -10 l-40 0 0 -40 c0 -29 -4 -40 -15
-40 -12 0 -15 17 -15 95 l0 95 55 0 c42 0 55 -3 55 -15z m1218 -1 c49 -34 15
-104 -50 -104 -25 0 -28 -3 -28 -35 0 -24 -5 -35 -15 -35 -12 0 -15 17 -15 95
l0 95 43 0 c23 0 53 -7 65 -16z m3150 -36 l54 -20 -4 -88 c-4 -102 -18 -130
-86 -168 -37 -21 -43 -22 -74 -9 -45 20 -84 64 -97 112 -15 55 -14 142 2 152
30 19 123 51 137 46 8 -2 39 -14 68 -25z m-4088 -8 c25 -25 30 -130 5 -130
-10 0 -15 15 -17 57 -2 48 -6 58 -22 61 -28 6 -46 -25 -46 -75 0 -32 -4 -43
-15 -43 -12 0 -15 15 -15 71 0 65 2 71 19 66 10 -2 25 -1 32 4 22 14 37 11 59
-11z m308 -8 c6 -9 12 -40 12 -70 0 -45 -3 -53 -17 -51 -10 2 -28 -1 -40 -5
-31 -10 -63 10 -63 38 0 29 17 44 59 52 41 9 34 29 -10 30 -36 0 -43 14 -12
25 24 10 55 1 71 -19z m141 12 c10 -8 -12 -21 -29 -17 -28 7 -50 -14 -50 -47
0 -34 22 -54 55 -48 34 7 34 -19 0 -28 -78 -19 -117 107 -45 143 21 11 55 9
69 -3z m123 -8 c14 -20 9 -127 -4 -124 -7 1 -23 -2 -36 -6 -46 -15 -95 43 -59
72 6 5 27 13 45 17 47 10 44 40 -3 32 -26 -4 -35 -2 -35 8 0 25 76 26 92 1z
m151 -8 c41 -48 -3 -138 -61 -123 -37 9 -50 21 -57 54 -17 80 66 129 118 69z
m365 4 c6 -9 12 -40 12 -70 0 -45 -3 -53 -17 -51 -10 2 -28 -1 -40 -5 -31 -10
-63 10 -63 38 0 29 17 44 59 52 41 9 34 29 -10 30 -36 0 -43 14 -12 25 24 10
55 1 71 -19z m122 15 c0 -7 -10 -17 -22 -22 -19 -8 -24 -19 -26 -62 -2 -38 -7
-53 -18 -53 -11 0 -14 16 -14 71 0 53 3 70 13 66 6 -2 21 -1 32 4 29 11 35 11
35 -4z m122 -11 c14 -20 9 -127 -4 -124 -7 1 -23 -2 -36 -6 -46 -15 -95 43
-59 72 6 5 27 13 45 17 47 10 44 40 -3 32 -26 -4 -35 -2 -35 8 0 25 76 26 92
1z m206 1 c7 -6 12 -33 12 -69 0 -51 -3 -59 -17 -57 -10 2 -28 -1 -40 -5 -31
-10 -63 10 -63 38 0 29 17 44 59 52 39 8 35 29 -5 29 -35 0 -44 18 -12 26 25
6 45 2 66 -14z m-2998 -2 c0 -8 -4 -15 -10 -15 -5 0 -10 7 -10 15 0 8 5 15 10
15 6 0 10 -7 10 -15z m1230 -46 c0 -60 0 -60 28 -57 26 3 27 6 30 61 2 42 7
57 17 57 12 0 15 -15 15 -69 l0 -68 -36 -6 c-19 -3 -46 -2 -60 3 -22 9 -24 15
-24 75 0 51 3 65 15 65 12 0 15 -13 15 -61z m4560 -29 c0 -39 1 -40 35 -40 34
0 35 1 35 40 0 36 3 40 25 40 l25 0 0 -105 0 -105 -25 0 c-23 0 -25 4 -25 45
0 45 0 45 -35 45 -35 0 -35 0 -35 -45 0 -41 -2 -45 -25 -45 l-25 0 0 105 0
105 25 0 c23 0 25 -4 25 -40z m220 -65 l0 -105 -25 0 -25 0 0 105 0 105 25 0
25 0 0 -105z m177 90 c33 -23 48 -83 33 -129 -15 -45 -52 -66 -120 -66 l-50 0
0 105 0 105 58 0 c36 0 66 -6 79 -15z m203 -5 c0 -17 -7 -20 -40 -20 -33 0
-40 -3 -40 -20 0 -16 7 -20 35 -20 28 0 35 -4 35 -20 0 -16 -7 -20 -35 -20
-31 0 -35 -3 -35 -25 0 -22 4 -25 40 -25 33 0 40 -3 40 -20 0 -18 -7 -20 -65
-20 l-65 0 0 105 0 105 65 0 c58 0 65 -2 65 -20z m195 -59 l21 -73 23 76 c22
75 23 76 57 76 l34 0 0 -105 0 -105 -25 0 c-24 0 -25 3 -26 58 l-1 57 -20 -58
c-18 -52 -23 -58 -45 -55 -21 2 -29 12 -43 58 l-18 55 -1 -57 c-1 -55 -2 -58
-26 -58 l-25 0 0 106 0 105 36 -3 c37 -3 37 -4 59 -77z m229 42 l18 -38 19 38
c15 28 26 37 44 37 31 0 31 -3 -5 -69 -20 -37 -30 -68 -30 -98 0 -41 -1 -43
-30 -43 -29 0 -30 2 -30 45 0 32 -9 61 -30 98 -16 30 -30 57 -30 60 0 4 13 7
28 7 23 0 32 -7 46 -37z m246 -68 l0 -105 -25 0 -25 0 0 105 0 105 25 0 25 0
0 -105z m181 84 c17 -17 20 -29 15 -58 -6 -42 -28 -61 -68 -61 -25 0 -28 -3
-28 -35 0 -31 -3 -35 -25 -35 l-25 0 0 105 0 105 55 0 c43 0 60 -5 76 -21z
m260 -67 c16 -46 31 -92 34 -103 5 -16 1 -19 -24 -19 -23 0 -30 5 -33 23 -2
17 -10 23 -39 25 -32 3 -37 0 -43 -22 -5 -19 -13 -26 -31 -26 -14 0 -25 3 -25
7 0 4 15 51 32 105 l33 99 34 -3 c34 -3 35 -5 62 -86z m196 73 c33 -23 48 -83
33 -129 -15 -45 -52 -66 -120 -66 l-50 0 0 105 0 105 58 0 c36 0 66 -6 79 -15z
m210 0 c33 -23 48 -83 33 -129 -15 -45 -52 -66 -120 -66 l-50 0 0 105 0 105
58 0 c36 0 66 -6 79 -15z m205 -2 c22 -20 23 -66 2 -88 -15 -14 -14 -19 10
-55 14 -22 26 -42 26 -45 0 -3 -13 -5 -28 -5 -23 0 -33 8 -51 40 -12 22 -26
40 -32 40 -5 0 -9 -18 -9 -40 0 -36 -2 -40 -25 -40 l-25 0 0 105 0 105 57 0
c38 0 62 -5 75 -17z m178 -3 c0 -16 -7 -20 -35 -20 -28 0 -35 -4 -35 -20 0
-16 7 -20 35 -20 28 0 35 -4 35 -20 0 -16 -7 -20 -35 -20 -31 0 -35 -3 -35
-25 0 -22 4 -25 35 -25 28 0 35 -4 35 -20 0 -18 -7 -20 -60 -20 l-60 0 0 105
0 105 60 0 c53 0 60 -2 60 -20z m154 14 c12 -5 13 -11 6 -24 -8 -15 -18 -18
-45 -13 -49 8 -47 -20 4 -46 55 -29 66 -66 31 -101 -13 -13 -33 -20 -59 -20
-53 0 -71 8 -71 32 0 17 5 19 44 13 60 -9 65 7 14 42 -35 23 -44 35 -46 63 -3
24 2 38 14 47 18 13 81 17 108 7z m161 -19 c0 -17 -6 -20 -37 -17 -51 4 -51
-21 1 -47 42 -22 55 -50 41 -87 -11 -27 -40 -37 -96 -32 -32 2 -40 7 -42 26
-3 22 -2 23 42 17 38 -6 46 -5 46 9 0 8 -13 22 -28 30 -39 20 -54 41 -54 73 0
37 28 54 82 51 37 -3 45 -6 45 -23z m212 -41 l38 -66 3 66 c3 63 4 66 27 66
25 0 25 0 25 -105 l0 -105 -34 0 c-32 0 -37 5 -75 73 l-41 72 0 -72 c0 -66 -2
-73 -20 -73 -19 0 -20 7 -20 105 l0 105 30 0 c26 0 34 -8 67 -66z m298 41 c21
-20 25 -34 25 -80 0 -74 -28 -105 -94 -105 -59 0 -74 7 -91 41 -19 36 -19 92
0 129 18 34 27 38 88 39 38 1 53 -4 72 -24z m97 -35 c6 -33 15 -60 19 -60 3 0
12 27 19 60 12 55 15 60 40 60 24 0 28 -5 39 -55 7 -30 16 -57 20 -60 5 -2 14
22 20 55 11 54 15 60 37 60 29 0 29 -2 1 -115 -23 -88 -24 -90 -54 -93 -30 -3
-32 -2 -44 52 -7 31 -15 56 -19 56 -4 0 -12 -25 -19 -56 -12 -54 -14 -55 -44
-52 -30 3 -31 5 -54 93 -28 113 -28 115 2 115 22 0 26 -6 37 -60z m-9212 -15
c0 -8 -4 -15 -10 -15 -5 0 -10 7 -10 15 0 8 5 15 10 15 6 0 10 -7 10 -15z
m1710 -285 c0 -82 -3 -100 -15 -100 -12 0 -15 18 -15 100 0 82 3 100 15 100
12 0 15 -18 15 -100z m-1953 73 c3 -8 -9 -11 -37 -10 -50 2 -70 -19 -70 -73 0
-50 28 -75 75 -67 44 7 50 -18 7 -28 -63 -13 -112 31 -112 103 0 61 34 94 92
90 23 -2 43 -8 45 -15z m53 1 c0 -17 -22 -14 -28 4 -2 7 3 12 12 12 9 0 16 -7
16 -16z m490 1 c0 -8 -7 -15 -15 -15 -8 0 -15 7 -15 15 0 8 7 15 15 15 8 0 15
-7 15 -15z m790 0 c0 -10 -10 -15 -30 -15 l-30 0 0 -80 c0 -64 -3 -80 -15 -80
-12 0 -15 16 -15 80 l0 80 -30 0 c-20 0 -30 5 -30 15 0 12 15 15 75 15 60 0
75 -3 75 -15z m970 0 c0 -8 -7 -15 -15 -15 -8 0 -15 7 -15 15 0 8 7 15 15 15
8 0 15 -7 15 -15z m280 -80 c0 -78 -3 -95 -15 -95 -12 0 -15 17 -15 95 0 78 3
95 15 95 12 0 15 -17 15 -95z m208 79 c49 -34 15 -104 -50 -104 -25 0 -28 -3
-28 -35 0 -24 -5 -35 -15 -35 -12 0 -15 17 -15 95 l0 95 43 0 c23 0 53 -7 65
-16z m-2603 -49 c14 -13 25 -33 25 -45 0 -17 -6 -20 -50 -20 -27 0 -50 -4 -50
-9 0 -18 31 -33 60 -29 37 6 41 -17 5 -26 -84 -21 -132 102 -55 141 34 17 37
17 65 -12z m163 -3 c18 -24 16 -122 -3 -122 -11 0 -15 12 -15 44 0 56 -8 76
-29 76 -29 0 -41 -22 -41 -72 0 -36 -4 -48 -15 -48 -12 0 -15 15 -15 71 0 65
2 71 19 66 10 -2 25 -1 32 4 18 11 50 2 67 -19z m141 12 c10 -8 -12 -21 -29
-17 -28 7 -50 -14 -50 -47 0 -34 22 -54 55 -48 34 7 34 -19 0 -28 -78 -19
-117 107 -45 143 21 11 55 9 69 -3z m165 6 c24 -9 26 -14 26 -74 0 -55 -3 -65
-17 -65 -10 1 -27 -2 -39 -6 -13 -4 -29 1 -44 13 -21 17 -23 23 -13 45 8 17
23 27 47 31 23 5 36 12 36 23 0 12 -7 14 -35 10 -26 -4 -35 -2 -35 8 0 7 10
16 23 18 12 2 23 5 24 6 1 0 13 -3 27 -9z m234 -18 c6 -9 12 -26 12 -39 0 -21
-5 -23 -46 -23 -38 0 -45 -3 -42 -17 3 -14 13 -18 46 -17 47 1 59 -20 17 -30
-59 -15 -95 14 -95 76 0 69 68 100 108 50z m204 4 c14 -20 9 -127 -4 -124 -7
1 -23 -2 -36 -6 -46 -15 -95 43 -59 72 6 5 27 13 45 17 47 10 44 40 -3 32 -26
-4 -35 -2 -35 8 0 25 76 26 92 1z m356 -4 c6 -9 12 -26 12 -39 0 -21 -5 -23
-46 -23 -38 0 -45 -3 -42 -17 3 -13 13 -18 41 -18 42 0 51 -21 13 -31 -34 -8
-78 16 -89 49 -24 75 64 138 111 79z m124 20 c25 -10 8 -27 -27 -27 -29 0 -30
-2 -30 -45 0 -44 1 -45 33 -45 33 0 44 -18 16 -29 -24 -9 -63 4 -74 24 -12 22
-13 80 -2 96 9 13 44 34 57 33 6 0 18 -3 27 -7z m136 -8 c19 -13 22 -24 22
-75 0 -45 -3 -59 -15 -59 -10 0 -15 15 -17 58 -3 53 -5 57 -28 57 -23 0 -25
-4 -28 -57 -2 -43 -7 -58 -17 -58 -12 0 -15 16 -15 71 0 53 3 70 13 66 6 -2
21 -1 32 4 28 11 28 11 53 -7z m165 -16 c41 -48 -3 -138 -61 -123 -37 9 -50
21 -57 54 -17 80 66 129 118 69z m220 0 c41 -48 -3 -138 -61 -123 -37 9 -50
21 -57 54 -17 80 66 129 118 69z m145 22 c12 0 22 -4 22 -10 0 -5 -6 -10 -14
-10 -9 0 -12 -7 -9 -20 7 -26 -13 -50 -43 -50 -12 0 -26 -4 -29 -10 -4 -6 5
-10 20 -10 39 0 65 -18 65 -44 0 -33 -26 -51 -72 -51 -50 0 -74 26 -56 59 7
11 11 26 10 33 -1 6 2 14 8 18 6 4 6 12 -2 24 -6 10 -8 30 -4 44 6 27 28 38
61 31 11 -2 30 -4 43 -4z m200 -18 c6 -9 12 -40 12 -70 0 -45 -3 -53 -17 -51
-10 2 -28 -1 -40 -5 -31 -10 -63 10 -63 38 0 29 17 44 59 52 41 9 34 29 -10
30 -36 0 -43 14 -12 25 24 10 55 1 71 -19z m-2388 -52 c0 -56 -3 -70 -15 -70
-12 0 -15 14 -15 70 0 56 3 70 15 70 12 0 15 -14 15 -70z m490 0 c0 -56 -3
-70 -15 -70 -12 0 -15 14 -15 70 0 56 3 70 15 70 12 0 15 -14 15 -70z m1760 0
c0 -56 -3 -70 -15 -70 -12 0 -15 14 -15 70 0 56 3 70 15 70 12 0 15 -14 15
-70z m350 -54 c0 -8 -5 -18 -11 -22 -14 -8 -33 11 -25 25 10 16 36 13 36 -3z
m220 0 c0 -8 -5 -18 -11 -22 -14 -8 -33 11 -25 25 10 16 36 13 36 -3z m-1210
-267 c0 -28 2 -31 25 -25 35 9 75 -31 75 -74 0 -41 -42 -85 -73 -75 -12 4 -30
7 -39 6 -16 0 -18 12 -18 100 0 81 3 99 15 99 10 0 15 -10 15 -31z m-1660 11
c0 -5 -20 -10 -44 -10 -52 0 -76 -24 -76 -75 0 -51 24 -75 76 -75 24 0 44 -4
44 -10 0 -5 -22 -10 -49 -10 -63 0 -91 30 -91 97 0 61 32 93 95 93 25 0 45 -4
45 -10z m50 0 c0 -5 -7 -10 -15 -10 -8 0 -15 5 -15 10 0 6 7 10 15 10 8 0 15
-4 15 -10z m1290 -75 l0 -85 40 0 c22 0 40 -4 40 -10 0 -5 -25 -10 -55 -10
l-55 0 0 95 c0 78 3 95 15 95 12 0 15 -16 15 -85z m130 70 c0 -8 -7 -15 -15
-15 -8 0 -15 7 -15 15 0 8 7 15 15 15 8 0 15 -7 15 -15z m-1370 -20 c0 -10 10
-15 33 -15 31 0 34 -3 52 -56 l19 -57 21 57 c11 31 25 56 32 56 8 0 4 -21 -13
-66 -49 -130 -51 -134 -78 -134 -15 0 -26 5 -26 10 0 6 9 10 20 10 32 0 35 41
9 110 -20 49 -28 60 -46 60 -21 0 -23 -5 -23 -55 0 -48 2 -55 20 -55 11 0 20
-5 20 -11 0 -6 -12 -9 -27 -7 -27 3 -28 6 -31 63 -2 33 -9 63 -15 67 -9 6 -9
8 1 8 6 0 12 7 12 15 0 8 5 15 10 15 6 0 10 -7 10 -15z m1487 -15 c8 0 13 -6
10 -12 -2 -8 -16 -12 -34 -10 -47 5 -49 -15 -3 -38 31 -16 40 -26 40 -45 0
-31 -42 -51 -79 -38 -43 14 -37 32 8 26 32 -4 41 -2 41 9 0 9 -14 21 -30 28
-38 16 -54 42 -37 62 15 19 37 28 55 22 8 -2 20 -4 29 -4z m306 -22 c41 -48
-3 -138 -61 -123 -37 9 -50 21 -57 54 -17 80 66 129 118 69z m147 12 c25 -25
30 -130 5 -130 -10 0 -15 15 -17 57 -2 48 -6 58 -22 61 -28 6 -46 -25 -46 -75
0 -32 -4 -43 -15 -43 -12 0 -15 15 -15 71 0 65 2 71 19 66 10 -2 25 -1 32 4
22 14 37 11 59 -11z m-2000 -60 c0 -40 -4 -70 -10 -70 -6 0 -10 30 -10 70 0
40 4 70 10 70 6 0 10 -30 10 -70z m268 59 c-2 -6 -8 -10 -13 -10 -5 0 -11 4
-13 10 -2 6 4 11 13 11 9 0 15 -5 13 -11z m1162 -59 c0 -56 -3 -70 -15 -70
-12 0 -15 14 -15 70 0 56 3 70 15 70 12 0 15 -14 15 -70z m10560 -85 l0 -85
40 0 c22 0 40 -4 40 -10 0 -5 -25 -10 -55 -10 l-55 0 0 95 c0 78 3 95 15 95
12 0 15 -16 15 -85z m630 69 c0 -9 -5 -14 -12 -12 -18 6 -21 28 -4 28 9 0 16
-7 16 -16z m1978 4 c21 -21 13 -62 -18 -95 -16 -18 -32 -33 -35 -33 -15 0 -2
37 22 62 22 23 24 30 13 43 -9 11 -22 14 -42 10 -26 -6 -37 3 -21 18 11 12 68
8 81 -5z m-2047 -38 c10 0 19 -4 19 -10 0 -5 -9 -10 -21 -10 -18 0 -20 -5 -17
-47 3 -41 6 -48 26 -51 25 -4 29 -17 7 -26 -37 -14 -65 24 -65 90 0 20 -5 34
-12 34 -9 1 -8 5 3 13 8 7 19 21 24 32 8 19 9 19 12 -2 3 -15 12 -23 24 -23z
m840 0 c10 0 19 -4 19 -10 0 -5 -9 -10 -21 -10 -18 0 -20 -5 -17 -47 3 -41 6
-48 26 -51 25 -4 29 -17 7 -26 -37 -14 -65 24 -65 90 0 20 -5 34 -12 34 -9 1
-8 5 3 13 8 7 19 21 24 32 8 19 9 19 12 -2 3 -15 12 -23 24 -23z m929 15 c0
-8 9 -15 20 -15 11 0 20 -4 20 -10 0 -5 -9 -10 -20 -10 -17 0 -20 -7 -20 -50
0 -44 3 -50 21 -50 24 0 21 -23 -3 -28 -28 -5 -48 27 -48 78 0 28 -5 50 -12
52 -7 3 -5 12 8 26 22 26 34 28 34 7z m-14050 -26 c0 -5 -7 -9 -15 -9 -15 0
-20 12 -9 23 8 8 24 -1 24 -14z m11903 10 c30 -16 37 -28 37 -70 0 -48 -20
-72 -60 -72 -76 0 -97 115 -27 143 29 11 25 12 50 -1z m166 -5 c10 -8 -12 -21
-29 -17 -27 7 -50 -14 -50 -46 0 -35 17 -51 52 -51 33 0 37 -15 6 -23 -79 -21
-121 103 -48 140 21 11 55 9 69 -3z m123 -8 c4 -6 8 -37 8 -68 0 -48 -3 -57
-17 -56 -10 1 -27 -2 -39 -6 -14 -4 -29 0 -45 13 -20 16 -22 22 -12 44 8 17
23 27 47 31 23 5 36 12 36 23 0 12 -7 14 -35 10 -26 -4 -35 -2 -35 8 0 24 76
25 92 1z m308 -2 c20 -20 19 -89 -2 -111 -25 -24 -77 -21 -100 6 -59 74 34
169 102 105z m158 -2 c18 -23 16 -122 -3 -122 -12 0 -15 13 -15 55 0 42 -4 57
-16 62 -31 12 -49 -11 -52 -66 -2 -36 -7 -51 -18 -51 -11 0 -14 15 -14 69 l0
70 30 -1 c17 -1 33 2 36 5 9 8 37 -3 52 -21z m220 0 c18 -23 16 -122 -3 -122
-10 0 -15 15 -17 57 -2 48 -6 58 -22 61 -28 6 -46 -25 -46 -75 0 -32 -4 -43
-15 -43 -12 0 -15 14 -15 69 l0 70 30 -1 c17 -1 33 2 36 5 9 8 37 -3 52 -21z
m157 -5 c29 -41 13 -101 -31 -117 -34 -13 -69 3 -84 40 -33 79 67 145 115 77z
m297 9 c4 -6 8 -37 8 -68 0 -48 -3 -57 -17 -56 -10 1 -27 -2 -39 -6 -14 -4
-29 0 -45 13 -20 16 -22 22 -12 44 8 17 23 27 47 31 23 5 36 12 36 23 0 12 -7
14 -35 10 -26 -4 -35 -2 -35 8 0 24 76 25 92 1z m138 0 c0 -6 -15 -11 -32 -11
-32 0 -33 -1 -33 -45 0 -44 1 -45 33 -45 33 0 44 -18 16 -29 -24 -9 -63 4 -74
24 -12 22 -13 80 -2 97 18 28 92 36 92 9z m129 8 c10 -8 -12 -21 -29 -17 -27
7 -50 -14 -50 -46 0 -35 17 -51 52 -51 36 0 36 -16 1 -25 -79 -19 -116 115
-40 145 19 7 54 4 66 -6z m261 -5 c0 -5 -9 -9 -20 -9 -25 0 -40 -29 -40 -79 0
-30 -4 -41 -15 -41 -12 0 -15 14 -15 69 l0 70 30 -1 c17 -1 33 2 37 5 7 8 23
-1 23 -14z m118 -2 c7 -6 12 -33 12 -69 0 -54 -2 -60 -19 -55 -10 2 -25 0 -34
-4 -26 -15 -67 7 -67 35 0 29 14 41 58 51 41 9 36 30 -6 30 -37 0 -44 22 -9
27 25 4 46 -1 65 -15z m240 -5 c6 -9 12 -26 12 -39 0 -21 -4 -23 -50 -23 -48
0 -50 -1 -39 -21 8 -17 18 -20 45 -17 39 5 48 -16 12 -25 -62 -17 -108 36 -88
99 18 53 76 67 108 26z m-1868 -52 c0 -56 -3 -70 -15 -70 -12 0 -15 14 -15 70
0 56 3 70 15 70 12 0 15 -14 15 -70z m1300 9 c0 -60 0 -60 28 -57 26 3 27 6
30 61 2 42 7 57 17 57 12 0 15 -15 15 -69 0 -68 0 -69 -27 -70 -88 -6 -93 -2
-93 82 0 44 3 57 15 57 12 0 15 -13 15 -61z m-7690 -42 c0 -32 1 -32 40 -29
35 4 41 1 50 -23 16 -41 13 -115 -5 -115 -10 0 -15 15 -17 58 -3 51 -5 57 -27
60 -31 5 -41 -12 -41 -70 0 -27 -4 -48 -10 -48 -6 0 -10 40 -10 100 0 60 4
100 10 100 6 0 10 -15 10 -33z m1280 -67 c0 -60 -4 -100 -10 -100 -6 0 -10 40
-10 100 0 60 4 100 10 100 6 0 10 -40 10 -100z m1428 -3 c2 -82 0 -97 -13 -97
-12 0 -15 17 -15 101 0 76 3 100 13 97 8 -3 13 -35 15 -101z m-2784 87 c28
-11 17 -21 -21 -20 -32 1 -39 -3 -41 -21 -3 -17 6 -27 37 -42 47 -25 60 -54
35 -82 -20 -22 -104 -28 -104 -6 0 8 15 12 42 12 37 0 43 3 46 22 3 17 -4 26
-25 34 -15 6 -36 18 -45 26 -47 42 12 101 76 77z m755 -3 c17 -11 -1 -23 -23
-15 -61 24 -112 -65 -70 -124 11 -16 25 -22 55 -22 21 0 39 -4 39 -10 0 -20
-83 -11 -107 12 -25 24 -32 92 -12 129 17 33 86 50 118 30z m1111 -86 c0 -57
-4 -95 -10 -95 -6 0 -10 38 -10 95 0 57 4 95 10 95 6 0 10 -38 10 -95z m155
75 c37 -30 10 -87 -45 -96 -37 -6 -40 -9 -40 -40 0 -19 -4 -34 -10 -34 -6 0
-10 39 -10 96 l0 97 45 -5 c25 -3 52 -11 60 -18z m238 -8 c10 -11 21 -38 24
-60 5 -36 2 -45 -25 -72 -25 -25 -39 -30 -76 -30 l-46 0 0 96 0 97 52 -6 c31
-4 60 -14 71 -25z m457 13 c0 -8 -4 -15 -10 -15 -5 0 -10 7 -10 15 0 8 5 15
10 15 6 0 10 -7 10 -15z m-1150 -20 c0 -8 9 -15 20 -15 11 0 20 -4 20 -10 0
-5 -9 -10 -20 -10 -17 0 -20 -7 -20 -50 0 -43 3 -50 20 -50 11 0 20 -5 20 -11
0 -6 -12 -9 -27 -7 -26 3 -28 6 -31 58 -2 30 -9 58 -15 63 -9 7 -9 10 1 14 6
2 12 11 12 19 0 8 5 14 10 14 6 0 10 -7 10 -15z m920 0 c0 -8 9 -15 20 -15 11
0 20 -4 20 -10 0 -5 -9 -10 -20 -10 -17 0 -20 -7 -20 -50 0 -43 3 -50 20 -50
11 0 20 -5 20 -11 0 -6 -12 -9 -27 -7 -26 3 -28 6 -31 58 -2 30 -9 58 -15 63
-9 7 -9 10 1 14 6 2 12 11 12 19 0 8 5 14 10 14 6 0 10 -7 10 -15z m5930 -9
c0 -8 -5 -18 -11 -22 -14 -8 -33 11 -25 25 10 16 36 13 36 -3z m-8105 -20 c23
-17 27 -85 6 -110 -17 -21 -69 -21 -93 1 -23 20 -24 80 -1 105 19 21 62 24 88
4z m70 -34 c14 -58 20 -58 34 -2 7 29 19 50 26 50 7 0 21 -24 31 -52 l17 -53
15 53 c8 28 18 52 23 52 13 0 11 -12 -8 -80 -9 -33 -22 -60 -29 -60 -7 0 -20
24 -30 53 l-17 52 -17 -50 c-22 -67 -43 -70 -58 -8 -6 26 -15 59 -18 72 -5 18
-4 23 7 19 7 -2 18 -23 24 -46z m507 31 c23 -20 24 -85 2 -107 -16 -17 -61
-21 -81 -8 -22 14 -33 60 -22 89 6 15 16 31 22 35 20 13 60 9 79 -9z m154 6
c8 -7 14 -7 19 1 3 5 20 10 36 10 35 0 49 -27 49 -96 0 -32 -4 -44 -15 -44
-10 0 -15 15 -17 58 -3 53 -5 57 -28 57 -23 0 -25 -4 -28 -57 -2 -43 -7 -58
-17 -58 -12 0 -15 14 -15 61 0 60 0 60 -27 57 -27 -3 -28 -6 -31 -60 -2 -43
-7 -58 -17 -58 -12 0 -15 15 -15 69 l0 68 47 1 c26 1 52 -3 59 -9z m154 -1 c0
-9 3 -9 12 0 17 17 63 15 79 -4 18 -22 17 -87 -1 -109 -9 -11 -24 -16 -47 -13
-31 4 -33 2 -33 -29 0 -23 -5 -33 -15 -33 -12 0 -15 18 -15 100 0 60 4 100 10
100 6 0 10 -5 10 -12z m298 0 c7 -7 12 -22 12 -35 0 -21 -5 -23 -45 -23 -45 0
-50 -5 -39 -34 4 -11 19 -16 46 -16 23 0 37 -4 33 -10 -7 -12 -65 -13 -82 -2
-6 4 -16 20 -22 35 -11 29 0 75 22 89 18 12 62 9 75 -4z m236 -10 c27 -37 20
-48 -28 -48 -25 0 -48 -5 -51 -10 -12 -19 16 -40 51 -40 19 0 34 -4 34 -10 0
-16 -72 -11 -92 7 -23 20 -24 80 -1 105 23 25 68 23 87 -4z m686 3 c21 -40 13
-51 -36 -51 -41 0 -45 -2 -42 -22 2 -19 10 -24 46 -26 52 -4 46 -22 -7 -22
-47 0 -66 20 -66 70 0 21 7 45 14 54 19 23 78 21 91 -3z m228 7 c14 -14 16
-128 2 -128 -5 0 -10 5 -10 12 0 9 -3 9 -12 0 -19 -19 -66 -15 -77 6 -15 27
13 62 48 62 33 0 42 7 34 26 -3 8 -19 14 -40 14 -20 0 -32 4 -28 10 9 14 68
13 83 -2z m72 -58 c0 -40 -4 -70 -10 -70 -6 0 -10 30 -10 70 0 40 4 70 10 70
6 0 10 -30 10 -70z m190 60 c0 -5 -16 -10 -35 -10 -45 0 -46 -21 -3 -41 41
-18 56 -42 39 -63 -15 -18 -91 -22 -91 -5 0 6 10 10 23 9 59 -5 66 23 12 46
-26 10 -35 20 -35 37 0 13 3 27 7 30 10 11 83 8 83 -3z m-8790 -120 c0 -5 -4
-10 -10 -10 -5 0 -10 5 -10 10 0 6 5 10 10 10 6 0 10 -4 10 -10z m1160 -5 c0
-8 -7 -15 -15 -15 -8 0 -15 7 -15 15 0 8 7 15 15 15 8 0 15 -7 15 -15z m5880
-35 c0 -7 -217 -10 -630 -10 -413 0 -630 3 -630 10 0 7 217 10 630 10 413 0
630 -3 630 -10z m1760 0 c0 -7 -288 -10 -845 -10 -557 0 -845 3 -845 10 0 7
288 10 845 10 557 0 845 -3 845 -10z m-8440 -15 c0 -8 -4 -15 -10 -15 -5 0
-10 7 -10 15 0 8 5 15 10 15 6 0 10 -7 10 -15z m13650 -80 c0 -8 -4 -15 -10
-15 -5 0 -10 7 -10 15 0 8 5 15 10 15 6 0 10 -7 10 -15z"/>
<path d="M2152 5118 c-30 -30 -4 -94 35 -86 14 3 18 13 18 48 0 37 -3 45 -20
48 -11 1 -26 -3 -33 -10z"/>
<path d="M2312 5118 c-14 -14 -16 -57 -3 -76 14 -22 56 -10 59 17 9 57 -24 91
-56 59z"/>
<path d="M1770 5140 c0 -26 3 -30 29 -30 16 0 31 6 35 15 10 26 -5 45 -35 45
-26 0 -29 -4 -29 -30z"/>
<path d="M2011 5126 c-13 -33 -10 -39 17 -34 19 3 19 6 7 33 l-13 30 -11 -29z"/>
<path d="M2567 5116 c-5 -12 1 -16 24 -16 20 0 29 4 27 13 -7 18 -45 20 -51 3z"/>
<path d="M12560 4200 c0 -6 27 -10 60 -10 33 0 60 4 60 10 0 6 -27 10 -60 10
-33 0 -60 -4 -60 -10z"/>
<path d="M15950 4061 c0 -33 5 -63 10 -66 6 -4 10 18 10 59 0 37 -4 66 -10 66
-6 0 -10 -26 -10 -59z"/>
<path d="M15140 4049 c0 -37 4 -58 10 -54 6 3 10 15 10 25 0 11 8 20 21 22 55
8 50 68 -6 68 l-35 0 0 -61z m53 37 c6 -16 -16 -40 -26 -29 -4 3 -7 15 -7 25
0 21 25 24 33 4z"/>
<path d="M15493 4089 c-4 -4 -7 -27 -5 -50 4 -42 24 -61 45 -40 8 8 7 11 -6
11 -22 0 -24 57 -2 62 13 2 12 5 -3 15 -12 7 -23 8 -29 2z"/>
<path d="M15267 4074 c-15 -15 -7 -63 13 -74 33 -17 62 4 58 43 -3 27 -7 32
-33 35 -17 2 -34 0 -38 -4z m51 -37 c3 -22 -1 -27 -17 -27 -15 0 -21 6 -21 23
0 46 33 49 38 4z"/>
<path d="M15390 4038 c0 -21 5 -38 10 -38 6 0 10 11 10 24 0 14 9 31 21 40 21
14 21 15 -10 14 -29 -1 -31 -3 -31 -40z"/>
<path d="M15580 4041 c0 -43 11 -52 53 -44 24 5 27 10 27 44 0 47 -17 52 -22
7 -2 -22 -9 -34 -20 -36 -15 -3 -18 4 -18 32 0 20 -4 36 -10 36 -5 0 -10 -18
-10 -39z"/>
<path d="M15711 4038 c0 -24 -1 -52 -3 -63 -2 -16 3 -21 28 -23 56 -6 71 53
16 60 l-27 4 26 11 c15 6 29 21 32 32 4 19 1 21 -33 21 -38 0 -38 0 -39 -42z
m49 17 c0 -8 -7 -15 -15 -15 -8 0 -15 7 -15 15 0 8 7 15 15 15 8 0 15 -7 15
-15z m5 -80 c0 -5 -10 -11 -22 -13 -16 -2 -23 2 -23 13 0 11 7 15 23 13 12 -2
22 -7 22 -13z"/>
<path d="M15858 4073 c29 -6 28 -21 -2 -29 -51 -12 -35 -57 17 -47 24 5 27 10
27 44 0 38 -1 39 -32 38 -24 -1 -27 -3 -10 -6z m22 -48 c0 -8 -7 -15 -15 -15
-16 0 -20 12 -8 23 11 12 23 8 23 -8z"/>
<path d="M16301 3319 c-17 -50 -14 -69 12 -68 16 1 18 2 5 6 -25 6 -22 22 5
33 12 5 16 9 10 9 -7 1 -13 10 -13 20 0 11 6 22 13 24 7 4 6 6 -5 6 -9 1 -20
-12 -27 -30z"/>
<path d="M16941 3333 c-1 -7 -10 -13 -21 -13 -20 0 -40 -27 -40 -54 0 -11 9
-16 30 -16 25 0 30 4 36 34 3 19 4 41 1 48 -4 10 -6 10 -6 1z m-13 -45 c-4
-27 -28 -36 -28 -10 0 20 8 32 22 32 5 0 8 -10 6 -22z"/>
<path d="M16466 3318 c-15 -47 -16 -68 -2 -68 9 0 12 7 9 20 -3 11 0 26 6 34
8 10 9 16 1 21 -5 3 -12 0 -14 -7z"/>
<path d="M16382 3304 c3 -12 2 -27 -2 -35 -6 -10 -2 -14 13 -15 18 -1 22 4 23
27 1 16 -1 27 -4 24 -3 -3 -12 1 -20 8 -13 10 -15 9 -10 -9z"/>
<path d="M16517 3285 c-6 -40 0 -44 13 -9 6 16 17 32 23 36 7 4 3 6 -10 5 -16
-1 -23 -9 -26 -32z"/>
<path d="M16586 3304 c-12 -30 -6 -54 12 -53 10 0 12 3 5 6 -20 8 -15 23 7 23
13 0 20 7 20 20 0 24 -35 28 -44 4z m34 -4 c0 -5 -7 -10 -16 -10 -8 0 -12 5
-9 10 3 6 10 10 16 10 5 0 9 -4 9 -10z"/>
<path d="M16662 3288 c-10 -37 -6 -50 8 -28 10 15 14 60 5 60 -2 0 -8 -15 -13
-32z"/>
<path d="M16699 3307 c7 -10 10 -25 6 -39 -5 -16 -4 -20 4 -13 20 19 18 59 -4
63 -17 4 -17 2 -6 -11z"/>
<path d="M16748 3307 c6 -7 9 -24 6 -38 -4 -24 -4 -24 7 -2 13 24 6 53 -12 53
-8 0 -8 -4 -1 -13z"/>
<path d="M16800 3294 c-12 -32 -6 -44 25 -44 16 0 25 7 29 25 8 32 1 45 -25
45 -12 0 -23 -10 -29 -26z m38 -6 c-4 -27 -28 -36 -28 -10 0 20 8 32 22 32 5
0 8 -10 6 -22z"/>
<path d="M16981 3310 c0 -8 -4 -25 -7 -37 -6 -20 -3 -23 24 -23 22 0 31 6 36
23 11 40 5 53 -9 20 -8 -18 -18 -33 -24 -33 -5 0 -12 15 -14 33 -2 17 -5 25
-6 17z"/>
<path d="M17070 3301 c0 -11 -3 -28 -6 -38 -3 -10 2 -7 10 7 18 29 20 50 6 50
-5 0 -10 -9 -10 -19z"/>
<path d="M14635 3072 c-13 -36 -3 -95 27 -152 17 -33 34 -60 38 -60 3 0 21 28
39 63 25 49 32 72 29 107 l-3 45 -62 5 c-47 4 -64 2 -68 -8z m90 -62 c0 -18
-6 -26 -23 -28 -24 -4 -38 18 -28 44 3 9 15 14 28 12 17 -2 23 -10 23 -28z"/>
<path d="M14725 1070 c-3 -6 1 -7 9 -4 18 7 21 14 7 14 -6 0 -13 -4 -16 -10z"/>
<path d="M14773 1015 c0 -38 2 -53 4 -32 2 20 2 52 0 70 -2 17 -4 1 -4 -38z"/>
<path d="M15326 1048 c-9 -12 -16 -29 -16 -38 0 -27 30 -60 54 -60 48 0 75 70
40 104 -22 23 -60 20 -78 -6z m72 0 c7 -7 12 -24 12 -38 0 -52 -61 -71 -82
-25 -23 51 32 101 70 63z"/>
<path d="M15747 1063 c-16 -16 -4 -43 27 -61 26 -15 33 -17 29 -6 -3 8 -16 17
-29 20 -34 9 -32 42 4 47 l27 4 -26 2 c-14 0 -29 -2 -32 -6z"/>
<path d="M16202 1008 l1 -63 6 55 c5 45 8 51 15 32 4 -13 10 -21 12 -19 7 7
-18 57 -28 57 -4 0 -7 -28 -6 -62z"/>
<path d="M16296 1054 c-3 -8 -2 -12 4 -9 5 3 11 -18 13 -47 l3 -53 2 63 c2 58
-9 81 -22 46z"/>
<path d="M16587 1063 c19 -4 23 -12 26 -61 l3 -57 2 57 c2 50 5 57 25 61 12 2
0 4 -28 4 -27 0 -40 -2 -28 -4z"/>
<path d="M15172 1038 c-14 -14 -16 -44 -3 -52 4 -3 6 6 3 19 -3 19 1 27 19 34
14 6 18 10 9 10 -9 1 -21 -4 -28 -11z"/>
<path d="M15827 1044 c-2 -2 -1 -23 2 -46 4 -31 11 -43 24 -44 12 -1 13 -1 2
3 -22 7 -20 70 3 75 14 3 13 5 -5 10 -12 3 -24 4 -26 2z"/>
<path d="M16139 1042 c-7 -38 10 -92 29 -92 16 1 16 1 0 11 -11 6 -18 22 -18
39 0 19 6 30 18 32 14 3 13 5 -5 10 -13 3 -24 3 -24 0z"/>
<path d="M14537 1033 c-3 -5 8 -8 23 -8 15 0 26 3 23 8 -2 4 -13 7 -23 7 -10
0 -21 -3 -23 -7z"/>
<path d="M14647 1034 c17 -4 23 -14 26 -42 l4 -37 -1 40 c-1 35 -4 40 -26 42
-21 1 -21 0 -3 -3z"/>
<path d="M14713 1033 c9 -2 23 -2 30 0 6 3 -1 5 -18 5 -16 0 -22 -2 -12 -5z"/>
<path d="M14817 1033 c-4 -3 -7 -15 -7 -25 0 -13 8 -18 29 -18 17 0 32 4 35 8
3 5 -8 6 -25 4 -22 -3 -29 0 -29 13 0 13 6 16 25 13 13 -3 22 -1 19 3 -6 11
-38 12 -47 2z"/>
<path d="M14899 1003 l6 -38 3 32 c2 19 10 33 20 36 11 3 7 5 -8 6 -24 1 -26
-1 -21 -36z"/>
<path d="M15488 1030 c15 -6 22 -18 22 -35 0 -17 -8 -29 -22 -35 -18 -8 -19
-9 -4 -7 45 5 48 88 3 86 l-22 0 23 -9z"/>
<path d="M15556 1032 c-3 -5 6 -7 19 -4 19 3 25 0 25 -13 0 -14 -7 -16 -30
-13 -18 3 -30 0 -30 -7 0 -7 13 -9 36 -7 29 4 35 8 32 26 -3 22 -41 35 -52 18z"/>
<path d="M15641 991 l2 -46 6 40 c5 31 11 41 28 43 19 3 22 -2 26 -40 l4 -43
-1 45 c-1 44 -2 45 -33 46 -33 1 -33 1 -32 -45z"/>
<path d="M15891 990 l2 -45 6 39 c4 26 13 42 26 47 17 6 15 7 -7 6 -26 -1 -28
-4 -27 -47z"/>
<path d="M15966 1032 c-3 -5 6 -7 19 -4 19 3 25 0 25 -13 0 -14 -7 -16 -30
-13 -18 3 -30 0 -30 -7 0 -7 13 -9 36 -7 29 4 35 8 32 26 -3 22 -41 35 -52 18z"/>
<path d="M16057 1033 c-4 -3 -7 -15 -7 -25 0 -14 8 -18 35 -18 36 0 46 15 23
38 -13 13 -41 16 -51 5z m51 -20 c2 -8 -6 -13 -22 -13 -17 0 -26 5 -26 16 0
19 41 16 48 -3z"/>
<path d="M16378 1033 c17 -3 22 -11 22 -34 0 -31 -20 -47 -41 -33 -9 5 -7 11
6 21 16 11 16 13 3 13 -19 0 -29 -22 -18 -40 5 -8 17 -10 35 -6 23 6 26 11 23
44 -3 31 -7 37 -28 39 -22 1 -22 1 -2 -4z"/>
<path d="M16441 971 c1 -40 4 -56 8 -41 4 18 13 25 30 25 13 0 26 7 28 15 4
12 3 12 -5 2 -17 -25 -47 -10 -47 23 0 33 30 48 47 23 8 -10 9 -10 5 2 -2 9
-16 15 -35 16 l-32 1 1 -66z"/>
<path d="M16686 1032 c-3 -5 6 -7 19 -4 19 3 25 0 25 -13 0 -14 -7 -16 -30
-13 -18 3 -30 0 -30 -7 0 -7 13 -9 36 -7 29 4 35 8 32 26 -3 22 -41 35 -52 18z"/>
<path d="M16873 1032 c12 -2 17 -14 18 -45 l2 -42 6 40 c5 31 11 41 31 46 17
4 8 6 -25 6 -27 -1 -42 -3 -32 -5z"/>
<path d="M16984 1029 c-3 -6 -1 -16 5 -22 9 -9 11 -8 6 5 -5 12 0 18 17 21 22
4 22 4 1 6 -12 0 -25 -4 -29 -10z"/>
<path d="M16953 985 c0 -22 2 -30 4 -17 2 12 2 30 0 40 -3 9 -5 -1 -4 -23z"/>
<path d="M14520 995 c0 -7 15 -9 35 -7 19 2 35 7 35 11 0 3 -16 6 -35 6 -19 0
-35 -5 -35 -10z"/>
<path d="M16244 987 c3 -10 6 -24 6 -30 0 -7 7 -3 15 7 8 11 15 25 15 30 0 6
-5 4 -10 -4 -9 -13 -11 -13 -21 0 -9 13 -10 12 -5 -3z"/>
<path d="M17030 977 c0 -9 -11 -17 -27 -20 l-28 -4 28 -2 c26 -1 48 22 33 36
-3 4 -6 -1 -6 -10z"/>
<path d="M15225 971 c-6 -5 -21 -11 -35 -14 l-25 -4 26 -2 c15 0 32 6 39 14
14 16 10 21 -5 6z"/>
<path d="M16050 972 c0 -13 47 -28 57 -18 4 3 -3 6 -13 6 -11 0 -25 5 -32 12
-9 9 -12 9 -12 0z"/>
<path d="M14539 957 c5 -5 19 -7 32 -5 20 3 19 5 -9 9 -20 3 -29 2 -23 -4z"/>
<path d="M15559 957 c5 -5 19 -7 32 -5 20 3 19 5 -9 9 -20 3 -29 2 -23 -4z"/>
<path d="M15765 960 l-30 -8 27 -1 c15 0 30 4 33 9 3 6 5 9 3 9 -2 -1 -16 -5
-33 -9z"/>
<path d="M15969 957 c5 -5 19 -7 32 -5 20 3 19 5 -9 9 -20 3 -29 2 -23 -4z"/>
<path d="M16688 958 c6 -6 18 -8 28 -6 14 3 12 5 -9 10 -19 3 -25 2 -19 -4z"/>
<path d="M14463 953 c9 -2 25 -2 35 0 9 3 1 5 -18 5 -19 0 -27 -2 -17 -5z"/>
<path d="M14628 953 c6 -2 18 -2 25 0 6 3 1 5 -13 5 -14 0 -19 -2 -12 -5z"/>
<path d="M14838 953 c6 -2 18 -2 25 0 6 3 1 5 -13 5 -14 0 -19 -2 -12 -5z"/>
<path d="M14918 953 c7 -3 16 -2 19 1 4 3 -2 6 -13 5 -11 0 -14 -3 -6 -6z"/>
<path d="M1380 4405 c0 -43 1 -45 29 -45 31 0 61 22 61 45 0 23 -30 45 -61 45
-28 0 -29 -2 -29 -45z"/>
<path d="M1757 4375 l-38 -55 41 0 40 0 0 55 c0 30 -1 55 -2 55 -2 -1 -20 -25
-41 -55z"/>
<path d="M2752 4428 c-17 -17 -15 -58 4 -65 8 -3 23 1 32 10 13 13 13 21 4 42
-13 28 -22 31 -40 13z"/>
<path d="M4543 4424 c-8 -22 18 -37 36 -20 7 8 10 19 7 25 -10 16 -36 13 -43
-5z"/>
<path d="M4540 4325 c-17 -20 -5 -45 20 -45 11 0 23 7 26 15 6 15 -11 45 -26
45 -4 0 -13 -7 -20 -15z"/>
<path d="M4736 4365 c-21 -31 -20 -35 4 -35 16 0 20 7 20 30 0 36 -3 37 -24 5z"/>
<path d="M3272 3498 c-29 -29 -3 -98 33 -84 21 8 21 82 -1 90 -20 8 -18 8 -32
-6z"/>
<path d="M4522 3498 c-29 -29 -3 -98 33 -84 21 8 21 82 -1 90 -20 8 -18 8 -32
-6z"/>
<path d="M1380 3535 c0 -43 1 -45 29 -45 31 0 61 22 61 45 0 23 -30 45 -61 45
-28 0 -29 -2 -29 -45z"/>
<path d="M1741 3476 c-31 -37 18 -98 60 -76 16 9 19 19 17 48 -3 33 -6 37 -34
40 -19 2 -36 -3 -43 -12z"/>
<path d="M2843 3502 c-23 -15 -21 -77 3 -86 36 -14 62 52 32 82 -14 14 -19 14
-35 4z"/>
<path d="M3475 3500 c-4 -6 7 -10 25 -10 18 0 29 4 25 10 -3 6 -15 10 -25 10
-10 0 -22 -4 -25 -10z"/>
<path d="M3815 3500 c-4 -6 5 -10 19 -10 14 0 26 5 26 10 0 6 -9 10 -19 10
-11 0 -23 -4 -26 -10z"/>
<path d="M4325 3500 c-4 -6 5 -10 19 -10 14 0 26 5 26 10 0 6 -9 10 -19 10
-11 0 -23 -4 -26 -10z"/>
<path d="M9418 2266 c-16 -37 3 -79 35 -74 19 3 22 9 22 48 0 39 -3 45 -22 48
-16 2 -26 -4 -35 -22z"/>
<path d="M10632 2278 c-30 -30 -4 -94 35 -86 14 3 18 13 18 48 0 37 -3 45 -20
48 -11 1 -26 -3 -33 -10z"/>
<path d="M1770 2300 c0 -26 3 -30 29 -30 16 0 31 6 35 15 10 26 -5 45 -35 45
-26 0 -29 -4 -29 -30z"/>
<path d="M2300 2265 c-12 -32 3 -75 28 -75 25 0 42 20 42 50 0 51 -53 70 -70
25z"/>
<path d="M2790 2210 c0 -23 29 -27 48 -8 19 19 14 28 -18 28 -23 0 -30 -4 -30
-20z"/>
<path d="M3090 2265 c-12 -32 3 -75 28 -75 25 0 42 20 42 50 0 51 -53 70 -70
25z"/>
<path d="M7352 2278 c-7 -7 -12 -24 -12 -38 0 -51 52 -69 72 -25 22 49 -25 98
-60 63z"/>
<path d="M7890 2265 c-12 -32 3 -75 28 -75 25 0 42 20 42 50 0 51 -53 70 -70
25z"/>
<path d="M8167 2223 c-15 -15 -6 -33 17 -33 20 0 36 16 36 36 0 7 -46 5 -53
-3z"/>
<path d="M8464 2276 c-3 -8 -4 -29 -2 -48 2 -28 7 -34 30 -36 22 -3 29 2 34
22 11 44 -3 76 -32 76 -13 0 -27 -6 -30 -14z"/>
<path d="M9070 2210 c0 -23 29 -27 48 -8 19 19 14 28 -18 28 -23 0 -30 -4 -30
-20z"/>
<path d="M9570 2275 c-11 -13 -7 -15 23 -15 28 0 35 3 31 15 -4 8 -14 15 -24
15 -10 0 -23 -7 -30 -15z"/>
<path d="M9780 2275 c-11 -13 -7 -15 23 -15 28 0 35 3 31 15 -4 8 -14 15 -24
15 -10 0 -23 -7 -30 -15z"/>
<path d="M10058 2266 c-16 -37 3 -79 35 -74 19 3 22 9 22 48 0 39 -3 45 -22
48 -16 2 -26 -4 -35 -22z"/>
<path d="M10210 2265 c-12 -32 3 -75 28 -75 25 0 42 20 42 50 0 51 -53 70 -70
25z"/>
<path d="M10487 2276 c-5 -12 1 -16 24 -16 20 0 29 4 27 13 -7 18 -45 20 -51
3z"/>
<path d="M3160 1306 c-13 -35 3 -76 30 -76 43 0 45 92 2 98 -16 3 -25 -4 -32
-22z"/>
<path d="M1470 1345 c0 -33 2 -35 35 -35 28 0 36 4 41 24 8 35 -2 46 -42 46
-32 0 -34 -2 -34 -35z"/>
<path d="M3940 1340 c0 -29 2 -31 33 -28 27 2 32 7 32 28 0 21 -5 26 -32 28
-31 3 -33 1 -33 -28z"/>
<path d="M7090 1281 l0 -61 55 0 55 0 0 41 c0 36 -3 41 -32 53 -80 33 -78 34
-78 -33z"/>
<path d="M6980 1205 c0 -21 32 -75 55 -93 46 -36 55 -30 55 38 l0 60 -55 0
c-30 0 -55 -2 -55 -5z"/>
<path d="M3310 1250 c0 -23 29 -27 48 -8 19 19 14 28 -18 28 -23 0 -30 -4 -30
-20z"/>
<path d="M3574 1259 c-3 -6 -2 -15 4 -21 15 -15 46 -5 50 15 3 12 -3 17 -22
17 -14 0 -28 -5 -32 -11z"/>
<path d="M3720 1305 c-12 -32 3 -75 28 -75 25 0 42 20 42 50 0 51 -53 70 -70
25z"/>
<path d="M4090 1250 c0 -23 29 -27 48 -8 19 19 14 28 -18 28 -23 0 -30 -4 -30
-20z"/>
<path d="M4334 1259 c-3 -6 -2 -15 4 -21 15 -15 46 -5 50 15 3 12 -3 17 -22
17 -14 0 -28 -5 -32 -11z"/>
<path d="M4547 1263 c-14 -13 -7 -33 11 -33 19 0 42 18 42 32 0 10 -44 11 -53
1z"/>
<path d="M7720 1195 c0 -58 2 -65 19 -65 30 0 51 28 51 69 0 43 -14 61 -47 61
-22 0 -23 -4 -23 -65z"/>
<path d="M8780 1230 c0 -34 23 -41 38 -12 13 23 4 42 -19 42 -14 0 -19 -7 -19
-30z"/>
<path d="M9050 1228 c0 -9 -3 -23 -6 -32 -4 -12 0 -16 16 -16 18 0 20 4 15 23
-10 30 -25 46 -25 25z"/>
<path d="M9230 1195 c0 -58 2 -65 19 -65 30 0 51 28 51 69 0 43 -14 61 -47 61
-22 0 -23 -4 -23 -65z"/>
<path d="M9440 1195 c0 -58 2 -65 19 -65 30 0 51 28 51 69 0 43 -14 61 -47 61
-22 0 -23 -4 -23 -65z"/>
<path d="M9650 1235 c0 -22 4 -26 23 -23 14 2 22 10 22 23 0 13 -8 21 -22 23
-19 3 -23 -1 -23 -23z"/>
<path d="M10626 1238 c-21 -30 -20 -61 2 -88 40 -49 97 6 76 72 -13 43 -54 51
-78 16z"/>
<path d="M4090 970 c0 -29 2 -31 33 -28 27 2 32 7 32 28 0 21 -5 26 -32 28
-31 3 -33 1 -33 -28z"/>
<path d="M1500 945 c-11 -13 -8 -15 20 -15 21 0 30 4 28 13 -7 18 -33 20 -48
2z"/>
<path d="M1974 889 c-3 -6 -2 -15 4 -21 15 -15 46 -5 50 15 3 12 -3 17 -22 17
-14 0 -28 -5 -32 -11z"/>
<path d="M2197 954 c-15 -15 -6 -24 24 -24 20 0 29 4 27 13 -5 14 -40 21 -51
11z"/>
<path d="M2394 889 c-3 -6 -2 -15 4 -21 15 -15 46 -5 50 15 3 12 -3 17 -22 17
-14 0 -28 -5 -32 -11z"/>
<path d="M2757 954 c-15 -15 -6 -24 24 -24 20 0 29 4 27 13 -5 14 -40 21 -51
11z"/>
<path d="M3170 935 c-12 -32 3 -75 28 -75 25 0 42 20 42 50 0 51 -53 70 -70
25z"/>
<path d="M3390 935 c-12 -32 3 -75 28 -75 25 0 42 20 42 50 0 51 -53 70 -70
25z"/>
<path d="M3540 935 c0 -22 4 -26 23 -23 14 2 22 10 22 23 0 13 -8 21 -22 23
-19 3 -23 -1 -23 -23z"/>
<path d="M3526 825 c-3 -9 1 -18 8 -21 26 -10 61 1 64 19 3 13 -4 17 -31 17
-22 0 -37 -6 -41 -15z"/>
<path d="M3740 880 c0 -23 29 -27 48 -8 19 19 14 28 -18 28 -23 0 -30 -4 -30
-20z"/>
<path d="M3044 526 c-3 -8 -4 -29 -2 -48 2 -25 8 -34 25 -36 31 -5 51 37 35
73 -13 27 -49 34 -58 11z"/>
<path d="M3190 515 c-12 -32 3 -75 28 -75 25 0 42 20 42 50 0 51 -53 70 -70
25z"/>
<path d="M13542 408 c-30 -30 -4 -94 35 -86 14 3 18 13 18 48 0 37 -3 45 -20
48 -11 1 -26 -3 -33 -10z"/>
<path d="M13804 349 c-3 -6 -2 -15 4 -21 15 -15 46 -5 50 15 3 12 -3 17 -22
17 -14 0 -28 -5 -32 -11z"/>
<path d="M14112 408 c-7 -7 -12 -24 -12 -38 0 -51 52 -69 72 -25 22 49 -25 98
-60 63z"/>
<path d="M14640 395 c-12 -32 3 -75 28 -75 25 0 42 20 42 50 0 51 -53 70 -70
25z"/>
<path d="M14944 349 c-3 -6 -2 -15 4 -21 15 -15 46 -5 50 15 3 12 -3 17 -22
17 -14 0 -28 -5 -32 -11z"/>
<path d="M15597 353 c-15 -15 -6 -33 17 -33 20 0 36 16 36 36 0 7 -46 5 -53
-3z"/>
<path d="M15837 414 c-15 -15 -6 -24 24 -24 20 0 29 4 27 13 -5 14 -40 21 -51
11z"/>
<path d="M9510 300 c0 -33 3 -40 19 -40 36 0 51 12 51 40 0 28 -15 40 -51 40
-16 0 -19 -7 -19 -40z"/>
<path d="M9730 266 l0 -76 28 0 c45 0 72 25 72 69 0 49 -17 70 -63 78 l-37 6
0 -77z"/>
<path d="M7812 278 c-16 -16 -15 -63 2 -78 8 -6 25 -10 38 -8 20 3 23 9 23 48
0 41 -2 45 -25 48 -14 2 -31 -3 -38 -10z"/>
<path d="M8384 265 c-3 -14 -3 -36 0 -50 5 -19 13 -25 35 -25 30 0 41 14 41
54 0 48 -64 66 -76 21z"/>
<path d="M8784 277 c-3 -8 -4 -30 -2 -49 3 -29 6 -33 33 -33 29 0 30 2 30 45
0 42 -2 45 -28 48 -17 2 -29 -2 -33 -11z"/>
<path d="M8997 284 c-18 -19 -5 -34 29 -34 28 0 35 3 32 18 -3 17 -48 29 -61
16z"/>
<path d="M9232 278 c-20 -20 -14 -28 24 -28 28 0 35 3 32 18 -4 21 -39 27 -56
10z"/>
<path d="M9917 283 c-18 -18 -5 -33 29 -33 29 0 35 3 30 16 -3 9 -6 18 -6 20
0 7 -46 5 -53 -3z"/>
<path d="M10158 229 c-21 -12 -24 -35 -5 -42 20 -7 47 12 47 33 0 22 -15 25
-42 9z"/>
<path d="M1270 135 c0 -32 2 -35 30 -35 32 0 50 22 43 51 -4 14 -15 19 -39 19
-32 0 -34 -2 -34 -35z"/>
<path d="M1432 114 c-33 -23 -27 -34 18 -34 43 0 49 9 24 34 -19 19 -15 19
-42 0z"/>
<path d="M1562 118 c-25 -25 0 -64 32 -52 21 8 21 50 0 58 -20 8 -18 8 -32 -6z"/>
<path d="M1752 108 c-7 -7 -12 -24 -12 -38 0 -31 17 -50 45 -50 28 0 45 19 45
50 0 31 -17 50 -45 50 -12 0 -26 -5 -33 -12z"/>
<path d="M1907 113 c-4 -3 -7 -30 -7 -60 l0 -53 35 0 35 0 0 60 c0 59 0 60
-28 60 -16 0 -32 -3 -35 -7z"/>
<path d="M3044 106 c-3 -8 -4 -29 -2 -48 2 -25 8 -34 25 -36 31 -5 51 37 35
73 -13 27 -49 34 -58 11z"/>
<path d="M3190 95 c-12 -32 3 -75 28 -75 25 0 42 20 42 50 0 51 -53 70 -70 25z"/>
<path d="M1270 40 l0 -40 40 0 40 0 -20 40 c-29 56 -60 56 -60 0z"/>
<path d="M3334 49 c-3 -6 -2 -15 4 -21 15 -15 46 -5 50 15 3 12 -3 17 -22 17
-14 0 -28 -5 -32 -11z"/>
<path d="M14840 20 c0 -16 7 -20 35 -20 37 0 49 22 19 34 -32 12 -54 6 -54
-14z"/>
<path d="M17370 10 c0 -5 9 -10 20 -10 11 0 20 5 20 10 0 6 -9 10 -20 10 -11
0 -20 -4 -20 -10z"/>
</g>
</svg>
