<?xml version="1.0" standalone="no"?>
<!DOCTYPE svg PUBLIC "-//W3C//DTD SVG 20010904//EN"
 "http://www.w3.org/TR/2001/REC-SVG-20010904/DTD/svg10.dtd">
<svg version="1.0" xmlns="http://www.w3.org/2000/svg"
 width="487.000000pt" height="406.000000pt" viewBox="0 0 487.000000 406.000000"
 preserveAspectRatio="xMidYMid meet">

<g transform="translate(0.000000,406.000000) scale(0.100000,-0.100000)"
fill="#000000" stroke="none">
<path d="M0 2030 c0 -1798 2 -2030 15 -2030 13 0 15 232 15 2025 l0 2025 1961
0 c1856 0 1963 -1 1976 -17 32 -40 57 -109 54 -150 -2 -23 3 -67 10 -98 9 -42
10 -58 1 -67 -15 -15 -16 -63 -2 -88 7 -13 5 -29 -6 -55 -15 -38 -12 -68 12
-96 12 -13 11 -19 -11 -39 -14 -13 -25 -29 -25 -37 0 -7 -7 -14 -15 -14 -40
-4 -81 -28 -94 -55 -12 -28 3 -84 24 -84 16 0 61 -52 70 -79 3 -10 -1 -38 -10
-62 -8 -24 -15 -54 -15 -66 0 -12 -10 -29 -21 -37 -13 -9 -25 -32 -30 -62 -5
-27 -13 -52 -19 -58 -5 -5 -85 -11 -177 -12 -101 -2 -169 -8 -171 -14 -12 -34
63 -138 130 -182 23 -15 25 -22 20 -68 -4 -42 -1 -55 16 -73 11 -12 22 -38 24
-57 2 -26 11 -40 38 -58 21 -14 35 -31 35 -45 0 -19 6 -22 43 -23 48 -1 82
-26 82 -60 0 -12 -16 -45 -35 -74 -19 -29 -34 -59 -33 -68 2 -8 -9 -22 -23
-31 -58 -35 -109 -77 -115 -94 -3 -10 -6 -39 -6 -65 0 -26 -3 -51 -8 -57 -4
-5 -16 -36 -25 -68 l-16 -57 30 -31 c39 -38 89 -110 116 -164 18 -36 24 -40
55 -39 19 0 43 4 53 8 21 10 23 -17 3 -55 -7 -14 -16 -37 -20 -52 -7 -29 -17
-33 -46 -17 -16 9 -24 6 -42 -15 -14 -16 -32 -25 -50 -25 -16 0 -30 -6 -32
-12 -33 -110 -41 -127 -87 -175 -33 -35 -49 -60 -49 -78 0 -14 -11 -43 -25
-63 -31 -45 -31 -49 -1 -93 23 -34 34 -91 40 -207 3 -49 20 -75 29 -43 3 12 2
23 -2 25 -4 3 -8 29 -10 58 -3 73 -18 133 -43 177 l-22 38 22 30 c12 16 26 50
31 74 7 32 20 52 49 76 31 26 45 48 62 102 21 62 26 70 53 75 17 3 37 12 45
19 9 6 31 12 50 12 34 0 34 0 63 85 16 47 29 86 29 86 0 3 -65 -5 -96 -11 -29
-6 -33 -4 -43 27 -6 18 -38 69 -71 112 -66 87 -71 110 -41 169 13 26 19 57 18
93 -1 53 1 57 38 90 22 19 54 41 71 49 31 14 74 65 54 65 -5 0 5 27 23 60 l32
59 -20 38 c-18 35 -24 38 -67 41 -43 3 -48 5 -48 27 0 19 -9 28 -35 39 -32 14
-35 19 -33 50 1 26 -5 42 -21 60 -21 22 -23 32 -18 76 6 47 4 51 -21 67 -62
40 -132 125 -132 161 0 4 75 8 166 9 104 2 171 6 180 13 7 7 16 33 20 58 4 30
15 55 30 69 13 12 24 33 24 46 0 13 7 44 16 70 16 46 15 48 -11 93 -14 25 -37
50 -50 56 -13 6 -25 18 -28 28 -8 30 24 70 59 76 31 5 54 16 54 27 0 6 12 24
27 39 23 24 25 31 15 46 -33 46 -36 61 -19 98 11 22 14 41 9 52 -5 9 -8 84 -7
165 1 81 -2 150 -7 153 -5 3 -16 23 -25 45 -8 21 -19 39 -24 39 -5 0 -9 4 -9
10 0 6 161 11 448 13 246 1 -650 3 -1990 5 l-2438 2 0 -2030z"/>
<path d="M320 3320 c0 -6 27 -10 60 -10 33 0 60 4 60 10 0 6 -27 10 -60 10
-33 0 -60 -4 -60 -10z"/>
<path d="M3710 3181 c0 -33 5 -63 10 -66 6 -4 10 18 10 59 0 37 -4 66 -10 66
-6 0 -10 -26 -10 -59z"/>
<path d="M2900 3169 c0 -37 4 -58 10 -54 6 3 10 15 10 25 0 11 8 20 21 22 55
8 50 68 -6 68 l-35 0 0 -61z m53 37 c6 -16 -16 -40 -26 -29 -4 3 -7 15 -7 25
0 21 25 24 33 4z"/>
<path d="M3253 3209 c-4 -4 -7 -27 -5 -50 4 -42 24 -61 45 -40 8 8 7 11 -6 11
-22 0 -24 57 -2 62 13 2 12 5 -3 15 -12 7 -23 8 -29 2z"/>
<path d="M3027 3194 c-15 -15 -7 -63 13 -74 33 -17 62 4 58 43 -3 27 -7 32
-33 35 -17 2 -34 0 -38 -4z m51 -37 c3 -22 -1 -27 -17 -27 -15 0 -21 6 -21 23
0 46 33 49 38 4z"/>
<path d="M3150 3158 c0 -21 5 -38 10 -38 6 0 10 11 10 24 0 14 9 31 21 40 21
14 21 15 -10 14 -29 -1 -31 -3 -31 -40z"/>
<path d="M3340 3161 c0 -43 11 -52 53 -44 24 5 27 10 27 44 0 47 -17 52 -22 7
-2 -22 -9 -34 -20 -36 -15 -3 -18 4 -18 32 0 20 -4 36 -10 36 -5 0 -10 -18
-10 -39z"/>
<path d="M3471 3158 c0 -24 -1 -52 -3 -63 -2 -16 3 -21 28 -23 56 -6 71 53 16
60 l-27 4 26 11 c15 6 29 21 32 32 4 19 1 21 -33 21 -38 0 -38 0 -39 -42z m49
17 c0 -8 -7 -15 -15 -15 -8 0 -15 7 -15 15 0 8 7 15 15 15 8 0 15 -7 15 -15z
m5 -80 c0 -5 -10 -11 -22 -13 -16 -2 -23 2 -23 13 0 11 7 15 23 13 12 -2 22
-7 22 -13z"/>
<path d="M3618 3193 c29 -6 28 -21 -2 -29 -51 -12 -35 -57 17 -47 24 5 27 10
27 44 0 38 -1 39 -32 38 -24 -1 -27 -3 -10 -6z m22 -48 c0 -8 -7 -15 -15 -15
-16 0 -20 12 -8 23 11 12 23 8 23 -8z"/>
<path d="M4061 2439 c-17 -50 -14 -69 12 -68 16 1 18 2 5 6 -25 6 -22 22 5 33
12 5 16 9 10 9 -7 1 -13 10 -13 20 0 11 6 22 13 24 7 4 6 6 -5 6 -9 1 -20 -12
-27 -30z"/>
<path d="M4701 2453 c-1 -7 -10 -13 -21 -13 -20 0 -40 -27 -40 -54 0 -11 9
-16 30 -16 25 0 30 4 36 34 3 19 4 41 1 48 -4 10 -6 10 -6 1z m-13 -45 c-4
-27 -28 -36 -28 -10 0 20 8 32 22 32 5 0 8 -10 6 -22z"/>
<path d="M4226 2438 c-15 -47 -16 -68 -2 -68 9 0 12 7 9 20 -3 11 0 26 6 34 8
10 9 16 1 21 -5 3 -12 0 -14 -7z"/>
<path d="M4142 2424 c3 -12 2 -27 -2 -35 -6 -10 -2 -14 13 -15 18 -1 22 4 23
27 1 16 -1 27 -4 24 -3 -3 -12 1 -20 8 -13 10 -15 9 -10 -9z"/>
<path d="M4277 2405 c-6 -40 0 -44 13 -9 6 16 17 32 23 36 7 4 3 6 -10 5 -16
-1 -23 -9 -26 -32z"/>
<path d="M4346 2424 c-12 -30 -6 -54 12 -53 10 0 12 3 5 6 -20 8 -15 23 7 23
13 0 20 7 20 20 0 24 -35 28 -44 4z m34 -4 c0 -5 -7 -10 -16 -10 -8 0 -12 5
-9 10 3 6 10 10 16 10 5 0 9 -4 9 -10z"/>
<path d="M4422 2408 c-10 -37 -6 -50 8 -28 10 15 14 60 5 60 -2 0 -8 -15 -13
-32z"/>
<path d="M4459 2427 c7 -10 10 -25 6 -39 -5 -16 -4 -20 4 -13 20 19 18 59 -4
63 -17 4 -17 2 -6 -11z"/>
<path d="M4508 2427 c6 -7 9 -24 6 -38 -4 -24 -4 -24 7 -2 13 24 6 53 -12 53
-8 0 -8 -4 -1 -13z"/>
<path d="M4560 2414 c-12 -32 -6 -44 25 -44 16 0 25 7 29 25 8 32 1 45 -25 45
-12 0 -23 -10 -29 -26z m38 -6 c-4 -27 -28 -36 -28 -10 0 20 8 32 22 32 5 0 8
-10 6 -22z"/>
<path d="M4741 2430 c0 -8 -4 -25 -7 -37 -6 -20 -3 -23 24 -23 22 0 31 6 36
23 11 40 5 53 -9 20 -8 -18 -18 -33 -24 -33 -5 0 -12 15 -14 33 -2 17 -5 25
-6 17z"/>
<path d="M4830 2421 c0 -11 -3 -28 -6 -38 -3 -10 2 -7 10 7 18 29 20 50 6 50
-5 0 -10 -9 -10 -19z"/>
<path d="M2395 2192 c-13 -36 -3 -95 27 -152 17 -33 34 -60 38 -60 3 0 21 28
39 63 25 49 32 72 29 107 l-3 45 -62 5 c-47 4 -64 2 -68 -8z m90 -62 c0 -18
-6 -26 -23 -28 -24 -4 -38 18 -28 44 3 9 15 14 28 12 17 -2 23 -10 23 -28z"/>
<path d="M2485 190 c-3 -6 1 -7 9 -4 18 7 21 14 7 14 -6 0 -13 -4 -16 -10z"/>
<path d="M2533 135 c0 -38 2 -53 4 -32 2 20 2 52 0 70 -2 17 -4 1 -4 -38z"/>
<path d="M3086 168 c-9 -12 -16 -29 -16 -38 0 -27 30 -60 54 -60 48 0 75 70
40 104 -22 23 -60 20 -78 -6z m72 0 c7 -7 12 -24 12 -38 0 -52 -61 -71 -82
-25 -23 51 32 101 70 63z"/>
<path d="M3507 183 c-16 -16 -4 -43 27 -61 26 -15 33 -17 29 -6 -3 8 -16 17
-29 20 -34 9 -32 42 4 47 l27 4 -26 2 c-14 0 -29 -2 -32 -6z"/>
<path d="M3962 128 l1 -63 6 55 c5 45 8 51 15 32 4 -13 10 -21 12 -19 7 7 -18
57 -28 57 -4 0 -7 -28 -6 -62z"/>
<path d="M4056 174 c-3 -8 -2 -12 4 -9 5 3 11 -18 13 -47 l3 -53 2 63 c2 58
-9 81 -22 46z"/>
<path d="M4347 183 c19 -4 23 -12 26 -61 l3 -57 2 57 c2 50 5 57 25 61 12 2 0
4 -28 4 -27 0 -40 -2 -28 -4z"/>
<path d="M2932 158 c-14 -14 -16 -44 -3 -52 4 -3 6 6 3 19 -3 19 1 27 19 34
14 6 18 10 9 10 -9 1 -21 -4 -28 -11z"/>
<path d="M3587 164 c-2 -2 -1 -23 2 -46 4 -31 11 -43 24 -44 12 -1 13 -1 2 3
-22 7 -20 70 3 75 14 3 13 5 -5 10 -12 3 -24 4 -26 2z"/>
<path d="M3899 162 c-7 -38 10 -92 29 -92 16 1 16 1 0 11 -11 6 -18 22 -18 39
0 19 6 30 18 32 14 3 13 5 -5 10 -13 3 -24 3 -24 0z"/>
<path d="M2297 153 c-3 -5 8 -8 23 -8 15 0 26 3 23 8 -2 4 -13 7 -23 7 -10 0
-21 -3 -23 -7z"/>
<path d="M2407 154 c17 -4 23 -14 26 -42 l4 -37 -1 40 c-1 35 -4 40 -26 42
-21 1 -21 0 -3 -3z"/>
<path d="M2473 153 c9 -2 23 -2 30 0 6 3 -1 5 -18 5 -16 0 -22 -2 -12 -5z"/>
<path d="M2577 153 c-4 -3 -7 -15 -7 -25 0 -13 8 -18 29 -18 17 0 32 4 35 8 3
5 -8 6 -25 4 -22 -3 -29 0 -29 13 0 13 6 16 25 13 13 -3 22 -1 19 3 -6 11 -38
12 -47 2z"/>
<path d="M2659 123 l6 -38 3 32 c2 19 10 33 20 36 11 3 7 5 -8 6 -24 1 -26 -1
-21 -36z"/>
<path d="M3248 150 c15 -6 22 -18 22 -35 0 -17 -8 -29 -22 -35 -18 -8 -19 -9
-4 -7 45 5 48 88 3 86 l-22 0 23 -9z"/>
<path d="M3316 152 c-3 -5 6 -7 19 -4 19 3 25 0 25 -13 0 -14 -7 -16 -30 -13
-18 3 -30 0 -30 -7 0 -7 13 -9 36 -7 29 4 35 8 32 26 -3 22 -41 35 -52 18z"/>
<path d="M3401 111 l2 -46 6 40 c5 31 11 41 28 43 19 3 22 -2 26 -40 l4 -43
-1 45 c-1 44 -2 45 -33 46 -33 1 -33 1 -32 -45z"/>
<path d="M3651 110 l2 -45 6 39 c4 26 13 42 26 47 17 6 15 7 -7 6 -26 -1 -28
-4 -27 -47z"/>
<path d="M3726 152 c-3 -5 6 -7 19 -4 19 3 25 0 25 -13 0 -14 -7 -16 -30 -13
-18 3 -30 0 -30 -7 0 -7 13 -9 36 -7 29 4 35 8 32 26 -3 22 -41 35 -52 18z"/>
<path d="M3817 153 c-4 -3 -7 -15 -7 -25 0 -14 8 -18 35 -18 36 0 46 15 23 38
-13 13 -41 16 -51 5z m51 -20 c2 -8 -6 -13 -22 -13 -17 0 -26 5 -26 16 0 19
41 16 48 -3z"/>
<path d="M4138 153 c17 -3 22 -11 22 -34 0 -31 -20 -47 -41 -33 -9 5 -7 11 6
21 16 11 16 13 3 13 -19 0 -29 -22 -18 -40 5 -8 17 -10 35 -6 23 6 26 11 23
44 -3 31 -7 37 -28 39 -22 1 -22 1 -2 -4z"/>
<path d="M4201 91 c1 -40 4 -56 8 -41 4 18 13 25 30 25 13 0 26 7 28 15 4 12
3 12 -5 2 -17 -25 -47 -10 -47 23 0 33 30 48 47 23 8 -10 9 -10 5 2 -2 9 -16
15 -35 16 l-32 1 1 -66z"/>
<path d="M4446 152 c-3 -5 6 -7 19 -4 19 3 25 0 25 -13 0 -14 -7 -16 -30 -13
-18 3 -30 0 -30 -7 0 -7 13 -9 36 -7 29 4 35 8 32 26 -3 22 -41 35 -52 18z"/>
<path d="M4633 152 c12 -2 17 -14 18 -45 l2 -42 6 40 c5 31 11 41 31 46 17 4
8 6 -25 6 -27 -1 -42 -3 -32 -5z"/>
<path d="M4744 149 c-3 -6 -1 -16 5 -22 9 -9 11 -8 6 5 -5 12 0 18 17 21 22 4
22 4 1 6 -12 0 -25 -4 -29 -10z"/>
<path d="M4713 105 c0 -22 2 -30 4 -17 2 12 2 30 0 40 -3 9 -5 -1 -4 -23z"/>
<path d="M2280 115 c0 -7 15 -9 35 -7 19 2 35 7 35 11 0 3 -16 6 -35 6 -19 0
-35 -5 -35 -10z"/>
<path d="M4004 107 c3 -10 6 -24 6 -30 0 -7 7 -3 15 7 8 11 15 25 15 30 0 6
-5 4 -10 -4 -9 -13 -11 -13 -21 0 -9 13 -10 12 -5 -3z"/>
<path d="M4790 97 c0 -9 -11 -17 -27 -20 l-28 -4 28 -2 c26 -1 48 22 33 36 -3
4 -6 -1 -6 -10z"/>
<path d="M2985 91 c-6 -5 -21 -11 -35 -14 l-25 -4 26 -2 c15 0 32 6 39 14 14
16 10 21 -5 6z"/>
<path d="M3810 92 c0 -13 47 -28 57 -18 4 3 -3 6 -13 6 -11 0 -25 5 -32 12 -9
9 -12 9 -12 0z"/>
<path d="M2299 77 c5 -5 19 -7 32 -5 20 3 19 5 -9 9 -20 3 -29 2 -23 -4z"/>
<path d="M3319 77 c5 -5 19 -7 32 -5 20 3 19 5 -9 9 -20 3 -29 2 -23 -4z"/>
<path d="M3525 80 l-30 -8 27 -1 c15 0 30 4 33 9 3 6 5 9 3 9 -2 -1 -16 -5
-33 -9z"/>
<path d="M3729 77 c5 -5 19 -7 32 -5 20 3 19 5 -9 9 -20 3 -29 2 -23 -4z"/>
<path d="M4448 78 c6 -6 18 -8 28 -6 14 3 12 5 -9 10 -19 3 -25 2 -19 -4z"/>
<path d="M2223 73 c9 -2 25 -2 35 0 9 3 1 5 -18 5 -19 0 -27 -2 -17 -5z"/>
<path d="M2388 73 c6 -2 18 -2 25 0 6 3 1 5 -13 5 -14 0 -19 -2 -12 -5z"/>
<path d="M2598 73 c6 -2 18 -2 25 0 6 3 1 5 -13 5 -14 0 -19 -2 -12 -5z"/>
<path d="M2678 73 c7 -3 16 -2 19 1 4 3 -2 6 -13 5 -11 0 -14 -3 -6 -6z"/>
</g>
</svg>
